<?xml version="1.0" standalone="no"?>
<!DOCTYPE svg PUBLIC "-//W3C//DTD SVG 1.1//EN" "http://www.w3.org/Graphics/SVG/1.1/DTD/svg11.dtd" >
<svg>
<metadata>
Created by FontForge 20090622 at Thu Jun 21 05:36:45 2018
 By deploy user
&#194;&#169; 2000 Adobe Systems Incorporated. All Rights Reserved.
</metadata>
<defs>
<font id="ChaparralPro-Bold" horiz-adv-x="389" >
  <font-face 
    font-family="Chaparral Pro"
    font-weight="700"
    font-stretch="normal"
    units-per-em="1000"
    panose-1="2 6 5 3 4 5 5 2 2 3"
    ascent="740"
    descent="-260"
    x-height="441"
    cap-height="650"
    bbox="-43 -348 1202 905"
    underline-thickness="54"
    underline-position="-46"
    unicode-range="U+0020-U+FB04"
  />
<missing-glyph horiz-adv-x="500" 
d="M0 0v700h500v-700h-500zM250 395l170 255h-340zM280 350l170 -255v510zM80 50h340l-170 255zM50 605v-510l170 255z" />
    <glyph glyph-name="T_h" unicode="Th" horiz-adv-x="1112" 
d="M394 558l-2 -469l72 -3q0 -58 -1 -86q-20 0 -74 0.5t-81 0.5q-24 0 -78 -0.5t-79 -0.5q0 57 1 86l68 3q3 0 3 4v466q-34 0 -69 -5q-15 -2 -19 -19l-19 -96l-50 4t-55 5l12 202q9 0 42.5 -0.5t52.5 -0.5h196h230q40 1 210 1q0 -120 -3 -249l5 -1q71 34 97.5 42.5t56.5 8.5
q31 0 65 -24.5t53 -57.5q15 -27 15 -74q0 -3 -3 -210l51 -2q0 -56 -1 -82h-123q-52 0 -128 -2q0 56 1 83l35 3q3 0 3 4v46.5v57.5v43q0 64 -9 81q-13 20 -39 20q-34 0 -77 -29q-2 -122 -2 -223l46 -2q0 -56 -2 -82h-131q-21 0 -64.5 -0.5t-63.5 -0.5q0 13 0.5 41t0.5 41
l49 3q3 0 3 4q2 286 2 445q0 20 -30 22q-16 2 -167 2z" />
    <glyph glyph-name="T_h.caron" unicode="&#x164;h" horiz-adv-x="1112" 
d="M394 558l-2 -469l72 -3q0 -58 -1 -86q-20 0 -74 0.5t-81 0.5q-24 0 -78 -0.5t-79 -0.5q0 57 1 86l68 3q3 0 3 4v466q-34 0 -69 -5q-15 -2 -19 -19l-19 -96l-50 4t-55 5l12 202q9 0 42.5 -0.5t52.5 -0.5h196h230q40 1 210 1q0 -120 -3 -249l5 -1q71 34 97.5 42.5t56.5 8.5
q31 0 65 -24.5t53 -57.5q15 -27 15 -74q0 -3 -3 -210l51 -2q0 -56 -1 -82h-123q-52 0 -128 -2q0 56 1 83l35 3q3 0 3 4v46.5v57.5v43q0 64 -9 81q-13 20 -39 20q-34 0 -77 -29q-2 -122 -2 -223l46 -2q0 -56 -2 -82h-131q-21 0 -64.5 -0.5t-63.5 -0.5q0 13 0.5 41t0.5 41
l49 3q3 0 3 4q2 286 2 445q0 20 -30 22q-16 2 -167 2zM375 802l123 75q22 -22 41 -52l-143 -114q-31 0 -44 1l-142 115q16 22 39 49z" />
    <glyph glyph-name="T_h.commaaccent" unicode="&#x162;h" horiz-adv-x="1112" 
d="M394 558l-2 -469l72 -3q0 -58 -1 -86q-20 0 -74 0.5t-81 0.5q-24 0 -78 -0.5t-79 -0.5q0 57 1 86l68 3q3 0 3 4v466q-34 0 -69 -5q-15 -2 -19 -19l-19 -96l-50 4t-55 5l12 202q9 0 42.5 -0.5t52.5 -0.5h196h230q40 1 210 1q0 -120 -3 -249l5 -1q71 34 97.5 42.5t56.5 8.5
q31 0 65 -24.5t53 -57.5q15 -27 15 -74q0 -3 -3 -210l51 -2q0 -56 -1 -82h-123q-52 0 -128 -2q0 56 1 83l35 3q3 0 3 4v46.5v57.5v43q0 64 -9 81q-13 20 -39 20q-34 0 -77 -29q-2 -122 -2 -223l46 -2q0 -56 -2 -82h-131q-21 0 -64.5 -0.5t-63.5 -0.5q0 13 0.5 41t0.5 41
l49 3q3 0 3 4q2 286 2 445q0 20 -30 22q-16 2 -167 2zM313 -31h1q32 0 57 -28t25 -64q0 -54 -34 -106.5t-93 -83.5q-33 38 -37 44q66 49 66 99q0 19 -15.5 32t-35.5 17q-3 38 17 64t49 26z" />
    <glyph glyph-name="f_f_j" unicode="ffj" horiz-adv-x="954" 
d="M33 82l49 3q4 0 4 5q0 173 -1 256h-69q0 16 0.5 46t0.5 42q38 2 60 2q6 2 6 8q0 56 12.5 94t45.5 71q75 76 172 76q65 0 101 -19q0 -25 -17.5 -62.5t-32.5 -49.5q-47 27 -80 27q-23 0 -30 -20q-11 -28 -9 -124h166q5 0 5 7q0 68 14.5 104t57.5 75q45 41 85.5 54.5
t95.5 13.5q104 0 166 -32q0 -26 -20 -65.5t-40 -53.5q-82 48 -141 48q-32 0 -42 -16q-11 -15 -14 -40.5t-1 -94.5q58 0 110 2q34 0 85.5 2.5t87.5 5t37 2.5q2 0 2 -3q0 -56 -0.5 -186.5t-0.5 -188.5q0 -49 -5.5 -78t-22.5 -64q-28 -61 -69.5 -112.5t-86.5 -74.5
q-24 0 -60 28t-39 49q73 36 92 71q32 55 32 190v265q-26 1 -75 1h-87v-261l50 -2q0 -55 -1 -83q-21 0 -63.5 0.5t-65.5 0.5q-21 0 -67 -0.5t-65 -0.5q0 55 1 82l49 3q4 0 4 5q0 174 -1 256h-55.5h-65h-53.5v-261l58 -2q0 -55 -1 -82h-137q-21 0 -67 -0.5t-65 -0.5q0 55 1 82
z" />
    <glyph glyph-name="f_j" unicode="fj" horiz-adv-x="627" 
d="M337 691h1q101 0 167 -32q0 -26 -20 -65.5t-39 -53.5q-90 48 -144 48q-30 0 -41 -16q-11 -15 -13.5 -40t0.5 -95q57 0 110 1q35 0 86.5 3l88.5 5l37 3q2 0 2 -3q0 -56 -0.5 -186.5t-0.5 -188.5q0 -49 -5.5 -78t-22.5 -64q-28 -61 -69.5 -112.5t-86.5 -74.5q-24 0 -60 28
t-38 49q72 37 91 71q32 56 31 190l-2 265q-26 1 -72 1h-90v-261l48 -2q0 -55 -1 -82h-130q-21 0 -66.5 -0.5t-64.5 -0.5q0 55 1 82l49 3q4 0 4 4q0 174 -1 257h-69q0 15 0.5 45t0.5 43q10 0 31 1t30 1q5 0 5 8q0 68 14 104t57 75q45 41 85.5 54.5t96.5 13.5z" />
    <glyph glyph-name="ff" unicode="ff" horiz-adv-x="717" 
d="M314 685h1q64 0 100 -17q0 -28 -17 -64.5t-33 -46.5q-44 24 -79 24q-23 0 -30 -20q-9 -23 -9 -124h165q6 0 6 7q-1 65 11.5 100.5t46.5 70.5q75 76 173 76q64 0 108 -18q0 -28 -16.5 -65t-32.5 -47q-1 0 -13 5l-23 9.5t-26 8t-25 3.5q-25 0 -31 -18q-8 -21 -7 -132h127
q0 -49 -3 -91h-124q0 -34 -0.5 -128t-0.5 -132l90 -3q0 -28 -2 -82h-171q-21 0 -67 -0.5t-65 -0.5q0 55 1 82l49 3q4 2 4 5q0 174 -1 256h-173v-260l55 -3q0 -55 -1 -82h-137q-21 0 -67 -0.5t-65 -0.5q0 55 1 82l49 3q4 2 4 5q0 174 -1 256h-69q0 34 2 88q25 0 59 2q6 2 6 8
q0 106 58 165q75 76 173 76z" />
    <glyph glyph-name="fi" unicode="fi" horiz-adv-x="644" 
d="M337 691h1q101 0 167 -32q0 -26 -20.5 -65.5t-39.5 -53.5q-88 48 -144 48q-29 0 -40 -16q-11 -15 -13.5 -40t0.5 -95q57 0 110 1q34 0 86 3l89 5l37 3q2 0 2 -3q0 -260 -1 -361l55 -2v-82h-138q-20 0 -62.5 -0.5t-61.5 -0.5q0 56 1 82l42 3q3 0 3 4v256q-16 1 -75 1h-88
v-261l48 -2q0 -55 -1 -82h-130q-21 0 -66.5 -0.5t-64.5 -0.5q0 55 1 82l49 3q4 0 4 4q0 174 -1 257h-69q0 15 0.5 45t0.5 43q10 0 31 1t30 1q5 0 5 8q0 68 14 104t57 75q45 41 85.5 54.5t96.5 13.5z" />
    <glyph glyph-name="fl" unicode="fl" horiz-adv-x="651" 
d="M244 86l53 -3q0 -54 -1 -82h-132q-21 0 -66.5 -0.5t-64.5 -0.5q0 55 1 82l49 4q4 0 4 4q0 173 -1 255h-69q0 62 1 89q24 0 60 2q6 0 6 8q0 69 13.5 105.5t53.5 72.5q50 43 90.5 56t110.5 13q56 0 124 -10t101 -23q4 -4 4 -8q0 -90 -2 -299t-2 -265l58 -3
q0 -14 -0.5 -41.5t-0.5 -40.5h-139q-20 0 -64 -0.5t-61 -0.5q0 57 1 82l45 3q4 2 4 6v254h-175q0 -35 -0.5 -128t-0.5 -131zM310 599h-1q-40 0 -52 -21q-14 -22 -12 -143q26 0 84 0.5t91 0.5v149q-42 14 -110 14z" />
    <glyph glyph-name="ffi" unicode="ffi" horiz-adv-x="971" 
d="M33 82l49 3q4 0 4 5q0 173 -1 256h-69q0 16 0.5 46t0.5 42q38 2 60 2q6 2 6 8q0 56 12.5 94t45.5 71q75 76 172 76q65 0 101 -19q0 -25 -17.5 -62.5t-32.5 -49.5q-47 27 -80 27q-23 0 -30 -20q-11 -28 -9 -124h166q5 0 5 7q0 68 14.5 104t57.5 75q45 41 85.5 54.5
t95.5 13.5q104 0 166 -32q0 -26 -20 -65.5t-40 -53.5q-82 48 -141 48q-32 0 -42 -16q-11 -15 -14 -40.5t-1 -94.5q58 0 110 2q34 0 85.5 2.5t87.5 5t37 2.5q2 0 2 -3q0 -260 -1 -361l55 -2v-82h-135q-20 0 -62.5 -0.5t-61.5 -0.5q0 13 0.5 41t0.5 41l43 3q3 0 3 4v256
q-18 1 -77 1h-87v-261l50 -2q0 -55 -1 -83q-21 0 -63.5 0.5t-65.5 0.5q-21 0 -67 -0.5t-65 -0.5q0 55 1 82l49 3q4 0 4 5q0 174 -1 256h-55.5h-65h-53.5v-261l58 -2q0 -55 -1 -82h-137q-21 0 -67 -0.5t-65 -0.5q0 55 1 82z" />
    <glyph glyph-name="ffl" unicode="ffl" horiz-adv-x="978" 
d="M692 691h1q51 0 116.5 -10t96.5 -21q3 -2 3 -8q0 -61 -1.5 -264t-2.5 -302l57 -3v-82h-136q-20 0 -64 -0.5t-61 -0.5v82l46 3q4 0 4 6v254q-63 1 -176 1q0 -34 -0.5 -128t-0.5 -132l55 -3q0 -55 -1 -83q-12 0 -59.5 0.5t-72.5 0.5q-21 0 -66.5 -0.5t-64.5 -0.5q0 55 1 82
l49 3q4 2 4 6q0 173 -1 255h-173q0 -34 -0.5 -128t-0.5 -132l59 -3q0 -28 -2 -82h-137q-21 0 -66.5 -0.5t-64.5 -0.5q0 55 1 82l49 3q4 2 4 5q0 174 -1 256h-69q0 15 0.5 45t0.5 43q26 0 60 2q6 2 6 8q0 106 58 164q75 77 172 77q61 0 99 -18q0 -24 -17 -62.5t-32 -48.5
q-50 25 -80 25q-24 0 -31 -20q-10 -21 -8 -124h165q6 0 6 7q0 69 13.5 105.5t53.5 72.5q49 43 92 56t117 13zM639 599h-1q-15 0 -30 -7.5t-20 -17.5q-14 -23 -13 -140q26 0 84.5 0.5t91.5 0.5v151q-39 13 -112 13z" />
    <glyph glyph-name=".notdef" horiz-adv-x="500" 
d="M0 0v700h500v-700h-500zM250 395l170 255h-340zM280 350l170 -255v510zM80 50h340l-170 255zM50 605v-510l170 255z" />
    <glyph glyph-name=".null" horiz-adv-x="0" 
 />
    <glyph glyph-name="nonmarkingreturn" horiz-adv-x="333" 
 />
    <glyph glyph-name="space" unicode=" " horiz-adv-x="225" 
 />
    <glyph glyph-name="exclam" unicode="!" horiz-adv-x="314" 
d="M250 653h1q1 -1 1 -2q-5 -42 -23 -213.5l-23 -216.5q-14 -5 -49 -9t-49 -4q-3 20 -24 196q-16 141 -31 222q30 7 102.5 17t94.5 10zM160 150h1q36 0 58 -23t22 -58t-23.5 -57t-61.5 -22q-34 0 -58 21.5t-24 55.5q0 35 24.5 59t61.5 24z" />
    <glyph glyph-name="quotedbl" unicode="&#x22;" horiz-adv-x="443" 
d="M187 699q-22 -312 -22 -313q-36 -9 -71 -9q-18 198 -32 304q22 7 66.5 13t58.5 5zM385 699q-19 -229 -22 -313q-36 -9 -71 -9q-18 196 -32 305q21 7 66 12.5t59 4.5z" />
    <glyph glyph-name="numbersign" unicode="#" horiz-adv-x="563" 
d="M259 483h97l26 162h92q-4 -25 -14.5 -81t-14.5 -81q16 0 47.5 0.5t46.5 1.5q1 -38 -4 -82h-105q-16 -105 -21 -133h101q2 -41 -4 -79q-13 0 -51 -0.5t-60 -0.5q-5 -26 -15 -85.5t-15 -86.5q-57 -2 -83 -1l28 173q-16 0 -49 -0.5t-50 -0.5l-31 -171q-32 -3 -82 -1l27 172
q-19 0 -52.5 -0.5t-45.5 -0.5q-1 26 4 83h107l20 133h-105q0 29 4 77q18 0 56 0.5t57 0.5q6 34 16 95.5l11 67.5q31 2 91 2zM343 403h-98q-14 -90 -20 -133h98z" />
    <glyph glyph-name="dollar" unicode="$" horiz-adv-x="563" 
d="M60 443v1q0 38 21 72t52 56q57 40 143 47q0 10 0.5 28.5t1 34t1.5 30.5q38 8 78 9q-2 -64 -4 -100q85 0 137 -30q0 -22 -16.5 -57t-33.5 -48q-54 39 -91 47q-1 -35 -5 -144q84 -24 124.5 -63t40.5 -106q0 -81 -54 -132q-60 -54 -157 -61q-2 -58 -4 -95q-38 -6 -73 -6
q0 4 3 98q-105 0 -176 39q0 17 19 53.5t37 50.5q73 -50 122 -58q0 25 1.5 76.5t2.5 78.5l-46.5 19.5t-39 18.5t-36.5 24.5t-24.5 28.5t-18.5 39t-5 49zM193 468v-1q0 -22 17.5 -36t59.5 -25q1 21 2.5 64.5t1.5 63.5q-40 -1 -59 -19q-22 -18 -22 -47zM379 178v1q0 52 -76 69
q-2 -92 -4 -138q39 0 60 19q20 17 20 49z" />
    <glyph glyph-name="percent" unicode="%" horiz-adv-x="854" 
d="M547 589l-5 3q-110 0 -200 1q35 -33 35 -112q0 -108 -73 -161q-41 -32 -102 -32q-60 0 -101 31q-62 46 -62 151q0 101 68 150q43 32 115 32q215 -2 405 10q15 -20 33 -54l-206 -322l-207 -321q-41 20 -69 38l205 320zM210 591h-1q-13 0 -25 -13q-22 -25 -22 -108
q0 -86 18 -106q12 -15 28 -15q18 0 28 13q18 22 18 110q0 77 -15 103q-9 16 -29 16zM652 353h1q69 0 106 -34q55 -48 55 -141q0 -51 -19 -92.5t-50 -65.5q-40 -31 -100 -31q-62 0 -102 28q-26 19 -45 58t-19 88q0 45 19 88.5t47 65.5q46 36 107 36zM648 292h-1
q-14 0 -27 -14q-19 -21 -19 -111q0 -84 16 -102q11 -15 29 -15q16 0 27 13q19 21 19 107q0 82 -16 106q-9 16 -28 16z" />
    <glyph glyph-name="ampersand" unicode="&#x26;" horiz-adv-x="770" 
d="M378 359v-4q83 -64 148 -134q16 16 28.5 50t12.5 58q0 8 -6 8l-42 3q0 27 2 75h123q19 0 55.5 0.5t51.5 0.5q2 -39 0 -76l-52 -4q-40 -114 -108 -182q44 -40 63 -59q13 -14 29 -14l66 -1q0 -54 -1 -79q-46 -3 -211 -11q-52 57 -57 63q-89 -63 -219 -63q-93 0 -146 30
q-91 51 -91 145q0 57 37.5 106t98.5 77v4q-78 62 -78 132q0 63 49 111q60 60 174 60q89 0 138 -41q49 -37 49 -97q0 -96 -114 -158zM231 511v-1q0 -51 79 -105q45 39 45 96q0 38 -20 58q-15 16 -43 16q-26 0 -43 -17q-18 -18 -18 -47zM316 86h1q59 0 101 32
q-129 131 -190 175q-36 -33 -36 -93q0 -53 39 -87q30 -27 85 -27z" />
    <glyph glyph-name="quotesingle" unicode="'" horiz-adv-x="241" 
d="M184 699q-19 -229 -22 -313q-36 -9 -71 -9q-18 191 -32 305q22 7 66 12.5t59 4.5z" />
    <glyph glyph-name="parenleft" unicode="(" horiz-adv-x="406" 
d="M84 265v1q0 146 74 267.5t184 189.5q18 -20 41 -51q-73 -65 -113 -167t-40 -227q0 -136 39 -231.5t114 -180.5q-26 -26 -51 -44q-53 41 -92 80t-77 93t-58.5 122.5t-20.5 147.5z" />
    <glyph glyph-name="parenright" unicode=")" horiz-adv-x="406" 
d="M322 290v-1q0 -151 -72 -269t-183 -198q-25 24 -47 50q156 154 156 408q0 131 -37.5 226t-113.5 172q16 17 47 44q250 -167 250 -432z" />
    <glyph glyph-name="asterisk" unicode="*" horiz-adv-x="408" 
d="M232 461q2 -44 4 -134q-21 -2 -67 0q3 45 7 135l-109 -82q-18 22 -37 55l124 78l-124 78q21 34 37 54q34 -24 108 -81l-6 135q11 1 35 1q23 0 33 -1l-6 -136l108 83q17 -22 37 -55l-122 -79l122 -79q-20 -31 -38 -54z" />
    <glyph glyph-name="plus" unicode="+" horiz-adv-x="563" 
d="M499 193h-167q-1 -67 -1 -188q-43 -3 -93 -3q0 118 -1 192h-175q1 16 2 46.5t1 42.5q105 0 173 1v95t-1 88q64 4 99 4q-1 -57 -3 -185q29 0 87.5 0.5t82.5 1.5q0 -55 -4 -95z" />
    <glyph glyph-name="comma" unicode="," horiz-adv-x="298" 
d="M134 158h1q40 0 71.5 -34.5t31.5 -80.5q0 -68 -42.5 -133t-115.5 -104q-32 36 -46 54q82 61 82 124q0 24 -19.5 40t-45.5 22q-3 48 21.5 80t61.5 32z" />
    <glyph glyph-name="hyphen" unicode="-" horiz-adv-x="375" 
d="M181 197h-1q-19 0 -70 0.5t-73 0.5l3 90q98 0 147 1q61 0 151 2q0 -54 -4 -94h-153z" />
    <glyph glyph-name="period" unicode="." horiz-adv-x="298" 
d="M151 156h1q38 0 60.5 -23.5t22.5 -57.5q0 -39 -24.5 -62t-63.5 -23q-32 0 -58 23.5t-26 59.5q0 34 24.5 58.5t63.5 24.5z" />
    <glyph glyph-name="slash" unicode="/" horiz-adv-x="408" 
d="M89 -65q-68 22 -89 30l155 368l150 361q49 -12 100 -31l-157 -359z" />
    <glyph glyph-name="zero" unicode="0" horiz-adv-x="563" 
d="M526 325v-1q0 -185 -100 -280q-57 -54 -155 -54q-84 0 -140 48q-93 84 -93 256q0 203 99 299q65 62 161 62q94 0 147 -58q81 -83 81 -272zM286 576h-1q-24 0 -42 -27q-13 -19 -21.5 -91.5t-8.5 -151.5q0 -162 24 -206q17 -32 45 -32q26 0 43 26q27 40 27 208
q0 200 -23 241q-19 33 -43 33z" />
    <glyph glyph-name="one" unicode="1" horiz-adv-x="563" 
d="M380 87l138 -3q0 -31 -2 -83h-224q-30 0 -103.5 -0.5t-118.5 -0.5q0 56 2 84l140 3q5 0 5 6v395l-154 -21q-9 51 -13 83q45 12 126 40l140.5 49t63.5 21t4 -5q0 -91 -2 -302t-2 -266z" />
    <glyph glyph-name="two" unicode="2" horiz-adv-x="563" 
d="M512 464v-1q0 -47 -19 -92t-55.5 -85.5t-60 -62t-62.5 -53.5l-76 -55v-4q41 1 153.5 5.5t125.5 4.5l2 -2q0 -68 -7 -120q-20 0 -152.5 0.5t-172.5 0.5h-127q-12 34 -28 88q91 64 149 120q75 70 115 126.5t40 118.5q0 46 -22 77q-22 28 -62 28t-66 -17q-3 -3 -6 -10
l-23 -100q-48 4 -103 11q3 64 11 179q86 34 196 34q125 0 188 -54q62 -53 62 -137z" />
    <glyph glyph-name="three" unicode="3" horiz-adv-x="563" 
d="M181 541l-21 -89q-61 4 -100 10q4 108 7 161q83 32 198 32q117 0 173 -37q65 -44 65 -113q0 -55 -37 -95t-99 -57v-6q73 -13 112 -58t39 -98q0 -87 -84 -149q-69 -52 -233 -52q-86 0 -136 11q-12 85 -21 173q48 9 104 17l23 -94q1 -5 7 -9q18 -9 43 -9q60 0 89 26t29 70
q0 50 -38 78t-100 29h-56q-3 45 -3 93q106 1 148.5 30.5t42.5 81.5q0 34 -19 54q-23 24 -72 24q-37 0 -56 -15q-3 -2 -5 -9z" />
    <glyph glyph-name="four" unicode="4" horiz-adv-x="563" 
d="M443 82l59 -2q0 -53 -1 -79h-148q-23 0 -75.5 -0.5t-80.5 -0.5q0 54 1 79l89 3q4 0 4 5v74q-29 -1 -239 -1q-22 48 -40 104l130 183q97 132 154 202q71 0 151 -5q0 -51 -1 -184t-1 -197q16 0 53 0.5t46 0.5q0 -50 -3 -97h-97q0 -58 -1 -85zM292 490h-6l-74 -112l-69 -108
q-2 -6 2 -6q45 -2 146 -2z" />
    <glyph glyph-name="five" unicode="5" horiz-adv-x="563" 
d="M510 229v-1q0 -60 -26 -108t-67 -75q-81 -55 -213 -55q-82 0 -131 9q-7 48 -22 166q39 10 100 19l25 -91q1 -7 8 -10q17 -8 39 -8q54 0 84 27q34 31 34 86q0 57 -40.5 87t-112.5 30q-39 0 -96 -3l-20 19q16 162 40 324h190q121 0 195 1q0 -62 -8 -124q-210 2 -278 3
l-18 -103q17 3 73 3q113 0 178.5 -55.5t65.5 -140.5z" />
    <glyph glyph-name="six" unicode="6" horiz-adv-x="563" 
d="M212 377h5q62 34 124 34q80 0 128 -46q25 -24 41.5 -63t16.5 -72q0 -111 -78 -186q-55 -54 -163 -54q-98 0 -151 46q-94 78 -94 233q0 182 89 288q83 98 234 98q56 0 96 -10q14 -102 19 -157q-39 -9 -98 -18l-21 77q-2 9 -6 10q-10 7 -33 7q-45 0 -71 -42
q-33 -56 -38 -145zM295 67h1q30 0 48 28q18 29 18 98q0 28 -8.5 57.5t-21.5 44.5q-16 19 -43 19q-20 0 -42.5 -10.5t-31.5 -26.5q-4 -118 25 -172q20 -38 55 -38z" />
    <glyph glyph-name="seven" unicode="7" horiz-adv-x="563" 
d="M392 511v5q-27 0 -57.5 0.5t-45.5 0.5h-33h-26.5t-18.5 -0.5t-16 -1.5l-12 -2q-12 -3 -19 -20l-24 -76q-62 9 -99 18q7 53 32 211q31 0 95 -2h341q17 -46 32 -113q-171 -262 -205 -407q-7 -29 -7 -121q-40 -7 -164 -7q-2 85 15 132q48 118 212 383z" />
    <glyph glyph-name="eight" unicode="8" horiz-adv-x="563" 
d="M404 361v-4q57 -30 89.5 -74t32.5 -93q0 -91 -80 -153q-63 -47 -180 -47q-104 0 -161 37q-70 47 -70 121q0 101 124 169v5q-96 55 -96 156q0 42 22 77t53 56q64 44 158 44q99 0 149 -40q55 -42 55 -108q0 -89 -96 -146zM213 498v-1q0 -30 25.5 -53t81.5 -47q38 38 38 98
q0 34 -17 56q-18 25 -53 25q-32 0 -50 -16q-25 -23 -25 -62zM366 156v1q0 69 -125 120q-44 -43 -44 -109q0 -41 19 -68q9 -14 29 -23t38 -9q39 0 62 24q21 24 21 64z" />
    <glyph glyph-name="nine" unicode="9" horiz-adv-x="563" 
d="M351 270h-4q-66 -33 -120 -33q-80 0 -130 48q-58 58 -58 141q0 104 78 174q67 55 165 55q93 0 147 -49q40 -36 66 -99.5t26 -143.5q0 -99 -25.5 -175.5t-68.5 -119.5q-79 -78 -218 -78q-71 0 -113 9l-8.5 48.5l-10 56.5l-8.5 48q37 11 95 22l27 -84q3 -8 8 -10
q16 -9 45 -9q51 0 76 43q29 53 31 156zM269 578h-1q-31 0 -47 -26q-19 -30 -19 -105q0 -65 25 -97q18 -22 49 -22q47 0 72 32q1 61 -6 111t-17 68q-18 39 -56 39z" />
    <glyph glyph-name="colon" unicode=":" horiz-adv-x="298" 
d="M152 448h1q38 0 60 -23.5t22 -57.5q0 -38 -24 -60.5t-63 -22.5q-33 0 -58 23t-25 58q0 34 24 58.5t63 24.5zM152 154h1q38 0 60 -23t22 -57q0 -38 -24 -61t-63 -23q-33 0 -58 23t-25 59q0 33 24 57.5t63 24.5z" />
    <glyph glyph-name="semicolon" unicode=";" horiz-adv-x="298" 
d="M151 448h1q37 0 59.5 -23.5t22.5 -57.5q0 -38 -24 -60.5t-63 -22.5q-33 0 -58 23t-25 58q0 34 24 58.5t63 24.5zM134 159h1q40 0 71.5 -35t31.5 -80q0 -68 -42.5 -133t-115.5 -104q-32 36 -46 54q82 61 82 124q0 24 -19.5 40t-45.5 22q-3 48 21.5 80t61.5 32z" />
    <glyph glyph-name="less" unicode="&#x3c;" horiz-adv-x="563" 
d="M221 245l232 -193q-22 -34 -51 -64l-296 218q-3 34 -3 76l300 209q23 -24 48 -67z" />
    <glyph glyph-name="equal" unicode="=" horiz-adv-x="563" 
d="M62 289q0 47 3 90q194 0 438 4q0 -50 -3 -95q-62 0 -223 0.5t-215 0.5zM62 97q0 50 3 95q58 0 219.5 -0.5t218.5 -0.5q0 -47 -3 -90q-204 0 -438 -4z" />
    <glyph glyph-name="greater" unicode="&#x3e;" horiz-adv-x="563" 
d="M326 242l-228 182q25 41 48 67l295 -210q3 -36 3 -76l-301 -217q-19 20 -51 65z" />
    <glyph glyph-name="question" unicode="?" horiz-adv-x="490" 
d="M457 504v-1q0 -67 -43 -114t-132 -93q-16 -9 -16 -19q0 -25 4 -60q-43 -16 -106 -19q-13 19 -25.5 52.5t-13.5 60.5q86 58 117.5 93.5t31.5 84.5q0 32 -19 51.5t-45 19.5q-28 0 -44 -12q-6 -4 -7 -11l-23 -82q-58 5 -104 12q2 27 5.5 81t5.5 78q30 14 87 24t115 10
q96 0 154 -41t58 -115zM217 145h1q35 0 57.5 -22t22.5 -58q0 -33 -23.5 -54t-62.5 -21q-33 0 -57 21t-24 53q0 34 24.5 57.5t61.5 23.5z" />
    <glyph glyph-name="at" unicode="@" horiz-adv-x="696" 
d="M418 368h3l17 28q26 -5 91 -22q-9 -36 -52 -224q-1 -2 0.5 -3t4.5 -1q35 0 66 29q41 44 41 109q0 84 -56.5 142t-165.5 58q-107 0 -183 -77.5t-76 -206.5q0 -105 62.5 -155.5t149.5 -50.5q73 0 134 37q20 -25 22 -42q-66 -44 -178 -44q-106 0 -183 63.5t-77 182.5
q0 150 99.5 246t247.5 96q122 0 197 -66.5t75 -170.5q0 -52 -22 -95t-54 -66q-31 -25 -68.5 -37t-108.5 -12q-8 0 -19.5 7t-14.5 13q0 5 7 47l-5 3q-28 -27 -64.5 -48.5t-58.5 -21.5q-14 0 -41 16t-37 34q-2 12 -2 24q0 42 16 92q17 51 58.5 97t95.5 46q45 0 79 -27z
M287 187v-1q0 -18 15 -18t41.5 24t34.5 44q7 16 21 76q-11 17 -36 17q-30 0 -56 -58q-20 -49 -20 -84z" />
    <glyph glyph-name="A" unicode="A" horiz-adv-x="638" 
d="M-8 84l46 3q4 0 6 5l209 561q27 3 138 3l191 -569l51 -3q0 -56 -1 -84h-120h-161q0 57 1 85l49 2q5 2 4 6l-20 62q-3 5 -7 5l-186 -2q-2 -11 -8.5 -36t-8.5 -35l55 -3q0 -56 -1 -84h-140h-98q0 57 1 84zM292 470h-6l-68 -221q-2 -6 2 -6h140z" />
    <glyph glyph-name="B" unicode="B" horiz-adv-x="638" 
d="M47 82l54 3q4 0 4 4v473l-58 3q0 56 1 83q150 3 206 3q63 0 93.5 -1t69 -7t65.5 -18q36 -16 60.5 -51t24.5 -73q0 -49 -32.5 -87.5t-83.5 -57.5v-8q65 -11 108 -55.5t43 -106.5q0 -81 -74.5 -134t-200.5 -53q-17 0 -75 0.5t-66 0.5h-140q0 56 1 82zM272 570l-1 -199
q3 -1 25 -1q48 0 78 28t30 74q0 41 -28 71t-70 30q-24 0 -34 -3zM270 289l-1 -184q-1 -15 11.5 -21t32.5 -6q49 0 81 27t32 75q0 44 -35.5 77t-93.5 33q-24 0 -27 -1z" />
    <glyph glyph-name="C" unicode="C" horiz-adv-x="611" 
d="M43 285v1q0 188 139 295q99 80 245 80q92 0 132 -15q9 -91 16 -204q-34 -6 -106 -14l-23 104q-2 9 -7 12q-16 13 -46 13q-56 0 -96 -41q-68 -71 -68 -197t58 -178q44 -41 117 -41q33 0 81.5 9t74.5 19q9 -39 17 -94q-48 -18 -108.5 -31t-98.5 -13q-133 0 -214 59
q-50 36 -81.5 98.5t-31.5 137.5z" />
    <glyph glyph-name="D" unicode="D" horiz-adv-x="711" 
d="M50 84l52 3q3 0 3 4l1 470l-58 2q0 15 0.5 43t0.5 42q111 3 245 3q144 0 225 -44q65 -36 107 -106t42 -149q0 -101 -41 -178.5t-106 -120.5q-77 -53 -218 -53h-117h-136v84zM278 566l-3 -466q0 -21 25 -21q71 0 120 44q32 29 48 82t16 107q0 78 -17 128t-57 88
q-43 42 -102 42q-21 0 -30 -4z" />
    <glyph glyph-name="E" unicode="E" horiz-adv-x="581" 
d="M50 84l52 3q4 0 4 4v470l-57 2q0 59 1 86h132h233q23 0 56.5 0.5t42.5 0.5q6 -87 9 -178q-94 -10 -97 -10l-16 76q-3 15 -20 17q-42 6 -105 6h-10v-189q15 0 44 0.5t43 1.5q11 0 13 19l6 37q34 1 94 -1q-1 -32 -1 -104q-1 -36 -1 -98q-87 -3 -94 -3l-4 40q-3 21 -16 21
q-56 2 -85 2v-177q0 -14 9 -18t43 -4q46 0 79 7q13 3 19 18l29 80q56 -8 98 -18l-37 -176q-51 1 -328 1h-137q0 13 0.5 41.5t0.5 42.5z" />
    <glyph glyph-name="F" unicode="F" horiz-adv-x="555" 
d="M105 562l-57 2q0 58 1 85h132q16 0 119.5 0.5t114.5 0.5q23 0 56.5 0.5t42.5 0.5q10 -124 13 -187q-23 -3 -98 -12l-19 86q-3 15 -20 17q-53 7 -107 7q-6 0 -8 -1l-1 -215q63 0 94 1q13 0 17 4t6 15l6 41q32 0 94 -2q-2 -68 -2 -107q0 -19 -0.5 -54t-0.5 -49
q-60 -2 -94 -2l-4 46q-2 11 -7 15t-17 4q-45 3 -92 3l-1 -172l108 -3q0 -58 -2 -86q-26 0 -92.5 0.5t-99.5 0.5q-24 0 -71 -0.5t-67 -0.5q0 58 1 85l51 2q4 0 4 4v471z" />
    <glyph glyph-name="G" unicode="G" horiz-adv-x="680" 
d="M497 427l-22 106q-2 9 -5 12q-25 19 -61 19q-59 0 -103 -40q-34 -31 -54 -86.5t-20 -122.5q0 -122 55 -182q49 -57 124 -57q21 0 23 12v136l-78 2q0 14 0.5 44t0.5 44h160h132q0 -60 -1 -88l-42 -2q-4 -2 -4 -4l-3 -194q-61 -36 -194 -36q-162 0 -251 69
q-111 89 -111 240q0 184 150 292q98 69 250 69q99 0 149 -24q8 -108 11 -198q-54 -7 -106 -11z" />
    <glyph glyph-name="H" unicode="H" horiz-adv-x="759" 
d="M50 86l51 3q4 0 4 4v468l-55 3q0 58 1 85h144h143q0 -58 -1 -85l-58 -3q-2 0 -2 -5l-1 -174q0 -3 2 -3l205 -1v183l-61 3q0 14 0.5 43t0.5 42h151h135q0 -59 -1 -85l-49 -3q-3 0 -3 -4l-3 -468l55 -3q-1 -14 -1.5 -43t-0.5 -43q-19 0 -67.5 0.5t-69.5 0.5
q-27 0 -79.5 -0.5t-74.5 -0.5q0 59 1 86l64 3q3 0 3 4v189q0 4 -3 4l-204 -2l-2 -195l63 -3q0 -58 -1 -86q-19 0 -69.5 0.5t-76.5 0.5q-22 0 -71 -0.5t-70 -0.5q0 14 0.5 43t0.5 43z" />
    <glyph glyph-name="I" unicode="I" horiz-adv-x="381" 
d="M105 562l-61 3v85q20 0 74 -0.5t77 -0.5q26 0 77.5 0.5t70.5 0.5q0 -58 -1 -85l-62 -3q-2 0 -2 -5l-3 -468l67 -3q0 -58 -1 -86q-19 0 -71.5 0.5t-79.5 0.5q-22 0 -73 -0.5t-74 -0.5q0 58 1 87l58 2q3 0 3 4v469z" />
    <glyph glyph-name="J" unicode="J" horiz-adv-x="541" 
d="M512 566l-53 -3q-3 0 -3 -5q0 -246 -2 -315q-3 -127 -62 -187q-75 -80 -218 -80q-74 0 -129 12l-29 192q27 7 99 22l32 -104q1 -5 9 -11q20 -14 50 -14q42 0 61 27q19 28 19 117q0 114 -2 346l-106 3q0 57 1 83h196h138q0 -57 -1 -83z" />
    <glyph glyph-name="K" unicode="K" horiz-adv-x="677" 
d="M105 562l-55 3q0 31 2 85q19 0 69.5 -0.5t73.5 -0.5q24 0 71.5 0.5t63.5 0.5q0 -58 -1 -85l-50 -3q-2 0 -2 -5l-1 -189q10 1 46 5q46 49 144 182q5 6 -4 6l-47 2q0 58 1 86h149q18 0 51 0.5t47 0.5q0 -14 -0.5 -43t-0.5 -42l-38 -3l-179 -193v-7q52 -35 96 -132
q36 -79 53 -109q14 -29 35 -30l50 -5q0 -32 -2 -84q-56 -2 -108 -2q-23 -1 -105 -1q-31 47 -71 153q-52 136 -82 136q-27 0 -36 -1l-1 -198l56 -3q0 -58 -2 -86q-17 0 -65 0.5t-73 0.5q-22 0 -71 -0.5t-70 -0.5q0 58 1 86l51 3q3 0 3 4z" />
    <glyph glyph-name="L" unicode="L" horiz-adv-x="556" 
d="M105 562l-55 2q0 58 1 85h142h150q0 -31 -2 -85l-63 -3q-3 0 -3 -3l-2 -451q0 -15 6.5 -18.5t38.5 -3.5q47 0 80 7q12 3 18 19l34 103q52 -9 100 -20q-20 -98 -42 -195q-13 0 -127.5 0.5t-194.5 0.5q-24 0 -71 -0.5t-67 -0.5q0 58 1 85l51 2q5 0 5 4v472z" />
    <glyph glyph-name="M" unicode="M" horiz-adv-x="875" 
d="M101 556l-55 3q0 34 2 90h249q29 -75 143 -408h8l145 408h232q0 -32 -2 -90l-49 -3q-3 0 -3 -5q0 -164 2 -464l55 -3q0 -57 -1 -84h-120h-146q0 58 1 84l57 3q3 0 3 4q-2 224 -4 336h-8q-64 -183 -154 -389q-30 -2 -87 -2q-75 178 -150 404h-9q-3 -128 -7 -353l70 -3
q0 -57 -1 -84h-129h-102q0 58 1 84l51 3q4 0 4 4q0 83 2 256t2 209z" />
    <glyph glyph-name="N" unicode="N" horiz-adv-x="715" 
d="M40 86l49 2q4 1 4 4l-1 470l-58 2q0 58 1 85h192q88 -126 287 -434h5q0 38 -0.5 109t-1 129t-1.5 109l-72 2q0 59 1 85h130q18 0 55.5 0.5t51.5 0.5q0 -57 -2 -85l-44 -3q-3 0 -3 -5l-5 -547q-38 -19 -121 -19q-145 174 -294 395h-7q0 -51 -0.5 -149t-1.5 -148l74 -3
q0 -30 -2 -86q-20 0 -69 0.5t-74 0.5q-17 0 -49 -0.5t-45 -0.5q0 58 1 86z" />
    <glyph glyph-name="O" unicode="O" horiz-adv-x="735" 
d="M351 -10h-1q-65 0 -122 22t-95 60q-90 92 -90 247q0 94 41.5 171t106.5 116q86 54 201 54q97 0 174 -49q58 -37 92.5 -110t34.5 -160q0 -76 -26.5 -147.5t-76.5 -118.5q-92 -85 -239 -85zM372 75h1q54 0 85 40q47 62 47 202q0 121 -41 200q-28 58 -89 58q-57 0 -92 -43
q-51 -63 -51 -202q0 -150 50 -210q36 -45 90 -45z" />
    <glyph glyph-name="P" unicode="P" horiz-adv-x="608" 
d="M105 562l-54 2q0 58 1 85q144 2 243 2q91 0 147 -17q60 -19 97 -73.5t37 -119.5q0 -58 -33 -109t-85 -77q-31 -15 -73 -23t-67 -8q-40 0 -47 1l-1 -139l91 -3q0 -56 -1 -83h-180h-128q0 31 2 83l47 3q4 0 4 4v472zM273 567l-2 -248q0 -10 35 -10q40 0 68 26q33 33 33 101
q0 56 -29.5 95t-72.5 39q-26 0 -32 -3z" />
    <glyph glyph-name="Q" unicode="Q" horiz-adv-x="735" 
d="M42 319v1q0 93 41.5 168.5t104.5 116.5q83 55 200 55q103 0 177 -48q58 -38 92.5 -110.5t34.5 -161.5q0 -82 -29 -151.5t-77 -113.5q-48 -43 -89 -58v-5q52 -33 109 -54q35 -14 90 -14q30 0 72 7q9 -50 10 -94q-96 -34 -156 -34q-36 0 -68 16q-88 45 -199 151h-10
q-60 0 -119 23t-99 64q-85 87 -85 242zM232 326v-1q0 -82 12 -128t38 -78q39 -43 90 -43q56 0 84 39q48 64 48 197q0 135 -42 208q-30 55 -83 55q-56 0 -95 -40q-24 -27 -38 -83.5t-14 -125.5z" />
    <glyph glyph-name="R" unicode="R" horiz-adv-x="636" 
d="M106 562l-54 2q1 29 1 85q138 2 231 2q88 0 147 -14q63 -14 103 -62t40 -99q0 -61 -34.5 -106t-90.5 -68v-5q20 -9 38.5 -33t29.5 -45t36 -75q6 -13 9 -19q15 -34 30 -35l48 -6v-83q-19 -1 -74 -1q-12 0 -64 -0.5t-61 -0.5q-21 36 -94 207q-18 43 -53 43q-18 0 -24 -2
l-1 -161l54 -3q0 -14 -0.5 -41.5t-0.5 -41.5h-143h-126v83l50 3q2 0 2 3zM272 567l-2 -235q4 -1 24 -1q50 0 79 31t29 81q0 54 -29 90.5t-69 36.5q-23 0 -32 -3z" />
    <glyph glyph-name="S" unicode="S" horiz-adv-x="538" 
d="M138 214l28 -99q2 -6 6 -9q25 -19 66 -19q46 0 69 20q24 19 24 54t-19 50t-83 39q-179 67 -179 197q0 88 68 149q70 64 212 64q93 0 134 -19q6 -56 14 -182q-23 -4 -102 -13l-23 93q-1 5 -4 7q-19 16 -51 16q-35 0 -59 -18q-27 -21 -27 -57t20.5 -51.5t93.5 -40.5
q85 -29 126.5 -74t41.5 -114q0 -101 -74 -160q-73 -57 -212 -57q-98 0 -153 20q-7 54 -22 186q56 12 105 18z" />
    <glyph glyph-name="T" unicode="T" horiz-adv-x="616" 
d="M152 86l68 3q3 0 3 4v466q-34 0 -69 -5q-16 -3 -19 -19l-19 -97l-50 4t-55 5l12 203q9 0 42.5 -0.5t52.5 -0.5h196h187q39 1 95 1q8 -134 9 -202q-23 -3 -106 -10l-16 96q-3 15 -19 19q-22 5 -70 5l-2 -469l72 -3q0 -57 -1 -86q-20 0 -74 0.5t-81 0.5q-24 0 -78 -0.5
t-79 -0.5q0 58 1 86z" />
    <glyph glyph-name="U" unicode="U" horiz-adv-x="677" 
d="M255 563l-2 -302q-1 -93 36 -137q28 -32 80 -32q46 0 76 35q34 38 34 147q0 203 -2 285q0 2 -4 4l-70 2q0 14 0.5 43t0.5 42q18 0 64 -0.5t69 -0.5q22 0 62 0.5t57 0.5q0 -13 -0.5 -42t-0.5 -43l-48 -3l-2 -272q-1 -159 -74 -232q-66 -68 -181 -68q-131 0 -199 62
q-71 65 -71 206v299q0 6 -5 6l-44 2q0 58 1 85q18 0 66.5 -0.5t71.5 -0.5q27 0 80 0.5t75 0.5q0 -58 -2 -85z" />
    <glyph glyph-name="V" unicode="V" horiz-adv-x="667" 
d="M665 565l-52 -3q-73 -198 -94 -249l-57 -146t-70 -175q-10 -2 -140 -2q-84 227 -116 330l-75 239q0 2 -5 4l-49 2q0 14 0.5 42.5t0.5 41.5h135q31 0 94.5 0.5t89.5 0.5q0 -14 -0.5 -43t-0.5 -42l-68 -4q23 -106 41 -175l59 -221h7l49 160q2 8 20 67t29.5 100.5t15.5 63.5
q0 5 -3 5l-59 2q0 60 1 86h150q16 0 49.5 0.5t48.5 0.5q0 -57 -1 -85z" />
    <glyph glyph-name="W" unicode="W" horiz-adv-x="901" 
d="M901 564l-47 -3l-66 -251q-17 -66 -89 -318q-16 -2 -142 -2q-61 190 -106 355h-5l-118 -353q-19 -2 -141 -2q-43 175 -74 321q-34 160 -51 247q0 4 -5 4l-49 2q0 58 1 85h126h182q0 -13 -0.5 -42t-0.5 -43l-71 -3q4 -44 19 -172q14 -102 28 -222h8l116 440q34 6 130 3
q65 -256 108 -442h9q24 148 29 182l12 83l16 123q2 5 -3 5l-65 2q0 59 1 85q23 0 76 0.5t80 0.5q15 0 47 0.5t46 0.5q0 -59 -1 -86z" />
    <glyph glyph-name="X" unicode="X" horiz-adv-x="659" 
d="M-4 85l48 3q4 0 9 5l188 217v7l-55.5 74l-66.5 93.5l-53 74.5q-3 3 -6 3l-51 2q0 59 1 85h135q32 0 93 0.5t85 0.5q0 -58 -1 -85l-55 -4l88 -140h7q53 70 90 135q2 5 -3 5l-50 2q0 60 1 86h151q16 0 48 0.5t46 0.5q0 -58 -1 -85l-46 -4q-87 -107 -181 -211v-6l191 -257
l48 -2q0 -57 -1 -85q-17 0 -63 0.5t-68 0.5q-31 0 -94.5 -0.5t-90.5 -0.5q0 59 1 85l55 3q8 2 4 6q-82 126 -95 143h-6q-60 -79 -105 -148l59 -3q0 -58 -1 -86q-20 0 -73 0.5t-82 0.5q-16 0 -51 -0.5t-50 -0.5q0 57 1 85z" />
    <glyph glyph-name="Y" unicode="Y" horiz-adv-x="623" 
d="M154 86l63 3q4 0 4 5v149q-30 50 -168 314q0 5 -5 5l-40 3q0 58 1 84h126q31 0 92 0.5t84 0.5q0 -58 -1 -85l-60 -4q45 -110 96 -220h5q59 109 102 215q1 3 -3 5l-54 2q0 58 1 86h142q17 0 47 0.5t42 0.5q0 -58 -1 -86l-44 -3q-122 -210 -192 -317l-1 -155l74 -3
q0 -30 -2 -86q-20 0 -74 0.5t-82 0.5q-23 0 -76 -0.5t-78 -0.5q0 30 2 86z" />
    <glyph glyph-name="Z" unicode="Z" horiz-adv-x="605" 
d="M222 102l2 -4q139 0 183 12q22 5 31 30l31 88q85 -17 107 -22l-48 -207q-4 0 -47 0.5t-116.5 0.5h-152.5h-156q-14 30 -32 81l344 467l-2 4h-60q-81 0 -97 -6q-15 -5 -21 -23l-35 -100l-51 10t-54 11q15 89 38 208q2 0 45 -1t61 -1l340 -1q16 -47 31 -114
q-173 -233 -341 -433z" />
    <glyph glyph-name="bracketleft" unicode="[" horiz-adv-x="409" 
d="M121 -168v871q44 1 125.5 3.5t118.5 3.5q2 -41 -1 -74l-101 -5q-9 0 -9 -10l-3 -715l114 -5q0 -28 -2 -74q-160 4 -242 5z" />
    <glyph glyph-name="backslash" unicode="\" horiz-adv-x="408" 
d="M315 -67l-157 371l-152 354q76 33 99 40l149 -364l150 -361q-61 -30 -89 -40z" />
    <glyph glyph-name="bracketright" unicode="]" horiz-adv-x="409" 
d="M289 703l-4 -871q-84 -1 -241 -5q-2 23 -2 74l113 5v715q0 9 -9 10l-100 5q-3 33 -1 74q80 -3 244 -7z" />
    <glyph glyph-name="asciicircum" unicode="^" horiz-adv-x="563" 
d="M253 636q19 1 66 1l201 -312q-20 -18 -70 -53l-167 234l-165 -232q-53 37 -70 51z" />
    <glyph glyph-name="underscore" unicode="_" horiz-adv-x="500" 
d="M0 -73h500v-54h-500v54z" />
    <glyph glyph-name="grave" unicode="`" horiz-adv-x="450" 
d="M174 693l151 -151q-20 -24 -47 -51q-126 96 -170 127q29 37 66 75z" />
    <glyph glyph-name="a" unicode="a" horiz-adv-x="522" 
d="M302 34h-5q-88 -44 -146 -44q-42 0 -85.5 36t-43.5 81q0 51 59 101t166 50h48q5 79 -61 79q-43 0 -126 -56q-21 25 -52 71q121 99 242 99q59 0 106 -44t47 -106q0 -118 -2 -204q0 -5 0.5 -6.5t4.5 -0.5l53 2v-26v-30.5v-25.5q-16 -6 -65 -13t-102 -7q-11 10 -38 44z
M181 125v-1q0 -16 15 -27t31 -11q30 0 67 22q2 2 2 6v69q-6 1 -21 1q-46 0 -70 -17t-24 -42z" />
    <glyph glyph-name="b" unicode="b" horiz-adv-x="557" 
d="M221 405l4 -1q69 32 94 39.5t57 7.5q60 0 106 -57t46 -128q0 -76 -27 -143q-24 -58 -80 -100q-46 -33 -133 -33q-56 0 -107 27l-35 -38q-10 2 -40.5 6.5l-50.5 7.5q5 65 5 122v473l-66 3q0 31 2 83q24 2 79 8.5l99 11.5t48 5q3 0 3 -3q0 -44 -2 -148.5t-2 -142.5z
M357 219v1q0 66 -16 93q-18 28 -43 28q-35 0 -76 -28q0 -30 -0.5 -98.5t-0.5 -100.5q0 -18 20 -28.5t41 -10.5q35 0 52 29q23 36 23 115z" />
    <glyph glyph-name="c" unicode="c" horiz-adv-x="441" 
d="M30 190v1q0 109 80 184.5t209 75.5q70 0 111 -24q0 -24 -18 -64t-33 -48q-2 1 -12 5l-19.5 8t-22 8t-26 6.5t-24.5 2.5q-37 0 -55 -31q-21 -35 -21 -102q0 -60 31 -96q20 -24 68 -24t115 27q15 -55 19 -80q-45 -24 -97 -36.5t-88 -12.5q-94 0 -155.5 54.5t-61.5 145.5z
" />
    <glyph glyph-name="d" unicode="d" horiz-adv-x="569" 
d="M350 35h-7q-95 -45 -135 -45q-69 0 -117 48q-61 59 -61 154q0 116 77 199q26 29 64.5 44.5t73.5 15.5q45 0 86 -13l7 3q-1 36 -3 146l-75 2v26.5v31.5v26q25 2 82.5 8.5l104 12t50.5 5.5q3 0 3 -3q0 -77 -2 -290t-2 -307q0 -10 6 -10l51 3q1 -25 1 -82
q-13 -5 -67.5 -12.5t-100.5 -7.5q-20 15 -36 45zM335 128v1q0 146 1 211q-28 14 -60 14q-34 0 -50 -26q-24 -38 -24 -118q0 -60 20 -91q17 -26 45 -26q31 0 64 18q4 3 4 17z" />
    <glyph glyph-name="e" unicode="e" horiz-adv-x="499" 
d="M30 196v1q0 108 70.5 181t181.5 73q89 0 136 -54q51 -61 51 -155q-1 -10 -24 -33.5t-30 -24.5q-27 -3 -218 -3q3 -42 27 -65q25 -24 74 -24q62 0 141 27q12 -40 19 -82q-43 -20 -100 -33.5t-94 -13.5q-105 0 -169.5 52t-64.5 154zM263 367h-1q-30 0 -47 -27
q-19 -32 -18 -79q55 0 113 2q9 0 9 11q0 39 -12 63q-13 30 -44 30z" />
    <glyph glyph-name="f" unicode="f" horiz-adv-x="383" 
d="M247 86l90 -3q0 -28 -2 -82h-171q-21 0 -67 -0.5t-65 -0.5q0 55 1 82l49 3q4 2 4 5q0 174 -1 256h-69q0 34 2 88q25 0 59 2q6 2 6 8q0 65 12.5 100.5t46.5 70.5q75 76 172 76q65 0 109 -18q0 -28 -17 -65t-33 -47q-2 1 -13 5.5l-22 9t-26 8t-25 3.5q-27 0 -32 -17
q-7 -22 -7 -133q22 0 65.5 0.5t61.5 0.5q0 -50 -3 -93h-124q0 -35 -0.5 -128t-0.5 -131z" />
    <glyph glyph-name="g" unicode="g" horiz-adv-x="538" 
d="M139 116v7q-42 19 -74.5 55.5t-32.5 89.5q0 79 68 131t165 52q62 0 98 -9q15 -3 22 -3q101 4 149 8q4 -37 2 -90q-10 0 -39 -0.5t-42 -0.5l-2 -4q21 -28 21 -72q0 -62 -45 -110q-65 -67 -200 -62q-22 -19 -22 -34t18.5 -19.5t81.5 -6.5q83 -2 116 -8.5t60 -25.5t37 -38
t10 -55q0 -50 -35 -90t-98 -62q-72 -27 -171 -27q-106 0 -165.5 31t-59.5 88q0 16 21 31q23 16 53.5 34.5t41.5 26.5v6q-37 15 -56.5 34t-19.5 57q0 8 15 18t83 48zM195 283v-1q0 -103 61 -103q58 0 58 109q0 44 -15 71q-12 21 -43 21q-27 0 -44 -26t-17 -71zM371 -112v1
q0 20 -14 27.5t-59 10.5l-59.5 5t-44.5 3q-26 -34 -26 -64q0 -25 26.5 -39t64.5 -14q53 0 84 19q28 17 28 51z" />
    <glyph glyph-name="h" unicode="h" horiz-adv-x="597" 
d="M236 401l5 -1q71 34 97.5 42.5t56.5 8.5q31 0 65 -24.5t53 -57.5q15 -27 15 -73q0 -3 -3 -210l51 -2q0 -57 -1 -83h-123q-52 0 -128 -2q0 56 1 83l35 3q3 1 3 4v147q0 65 -9 81q-13 20 -39 20q-35 0 -78 -29q0 -100 -2 -222l46 -3q0 -56 -1 -82h-132q-21 0 -64.5 -0.5
t-62.5 -0.5q0 57 1 83l48 2q3 1 3 5q0 77 0.5 250.5t0.5 246.5l-64 2q0 14 0.5 42.5t0.5 41.5q24 2 79 8.5l99 12t48 5.5q3 0 3 -4q0 -46 -2 -150.5t-2 -143.5z" />
    <glyph glyph-name="i" unicode="i" horiz-adv-x="319" 
d="M156 680h1q41 0 64.5 -24t23.5 -57q0 -40 -27 -65t-66 -25q-34 0 -60.5 25.5t-26.5 62.5q0 33 26 58t65 25zM85 336l-64 2q0 32 2 86q23 2 77.5 8.5t99 12.5t47.5 6q2 0 2 -3q-3 -327 -3 -362l55 -3v-82h-138q-22 0 -69 -0.5t-67 -0.5q0 56 1 82l53 3q4 0 4 4v247z" />
    <glyph glyph-name="j" unicode="j" horiz-adv-x="297" 
d="M144 685h1q41 0 64 -24.5t23 -56.5q0 -41 -26.5 -66.5t-67.5 -25.5q-33 0 -60 25.5t-27 62.5q0 34 26.5 59.5t66.5 25.5zM79 334l-75 2q0 14 1 43.5t1 42.5q18 2 78.5 9.5l107 13.5t49.5 6q2 0 2 -3q0 -57 -0.5 -187.5t-0.5 -188.5q0 -50 -5.5 -79t-22.5 -64
q-28 -61 -69.5 -112.5t-86.5 -74.5q-25 0 -61 28t-38 49q73 36 92 71q31 57 30 190z" />
    <glyph glyph-name="k" unicode="k" horiz-adv-x="571" 
d="M75 586l-63 2v83q224 28 227 28q2 0 2 -4q0 -107 -2 -419q1 0 21 1t31 2q45 42 69 71q3 4 -2 4l-37 2q0 57 1 83q22 0 70.5 0.5t69.5 0.5q27 1 86 1q0 -56 -1 -83l-37 -3l-110 -91v-6q45 -30 72 -94q22 -52 31 -69q6 -9 15 -9l51 -2q0 -57 -2 -83q-21 0 -108 -1t-91 -1
q-11 21 -43 117q-26 82 -49 82q-25 0 -38 -1q0 -16 -0.5 -56t-0.5 -56l36 -3q0 -55 -1 -81h-123q-21 0 -64.5 -0.5t-63.5 -0.5q0 56 1 82l49 3q4 0 4 4v497z" />
    <glyph glyph-name="l" unicode="l" horiz-adv-x="309" 
d="M74 585l-68 4q0 31 2 83q22 2 79 9l101.5 12.5t48.5 5.5q3 0 3 -4q0 -64 -1.5 -285t-2.5 -325l57 -2v-82h-139q-22 0 -69.5 -0.5t-67.5 -0.5v82l54 3q3 0 3 4v496z" />
    <glyph glyph-name="m" unicode="m" horiz-adv-x="861" 
d="M86 338l-60 2q0 29 2 81q20 2 69.5 9.5l90 13.5t42.5 6q3 0 3 -3q1 -4 4 -24.5t5 -31.5l3 -1q69 40 94.5 50.5t55.5 10.5q54 0 103 -65h5q72 42 98.5 52.5t55.5 10.5q58 0 103 -57q31 -40 31 -89q0 -24 -3 -216l52 -2q0 -29 -2 -85h-123h-123q0 58 1 84l34 2q4 2 4 5v171
q0 35 -7 49q-11 22 -38 22q-30 0 -70 -24q0 -32 -1 -111.5t-1 -110.5l40 -2q0 -14 -0.5 -42.5t-0.5 -42.5h-125h-107v84l37 3q3 0 3 5v180q0 31 -7 45q-8 18 -34 18q-31 0 -74 -29q-2 -118 -2 -219l41 -2q0 -57 -1 -85h-129h-123q0 58 1 84l50 3q3 0 3 5v246z" />
    <glyph glyph-name="n" unicode="n" horiz-adv-x="609" 
d="M85 336l-63 3q0 14 0.5 41.5t0.5 40.5q22 1 71.5 8.5l90 14t42.5 6.5t2 -3q3 -10 7 -31t7 -31l5 -1q72 44 101 55.5t64 11.5q30 0 58.5 -22t45.5 -51q23 -38 23 -89q0 -77 -4 -203l50 -3q0 -56 -1 -82h-129q-22 0 -65 -0.5t-60 -0.5q0 13 0.5 41t0.5 41l40 3q4 0 4 4v135
q0 71 -8 86q-12 21 -38 21q-37 0 -80 -34q-3 -177 -3 -211l43 -3q0 -56 -1 -82h-125q-21 0 -67.5 -0.5t-65.5 -0.5q0 13 0.5 41t0.5 41l49 3q4 0 4 4v247z" />
    <glyph glyph-name="o" unicode="o" horiz-adv-x="546" 
d="M263 -10h-1q-103 0 -158 48q-74 63 -74 170q0 124 96 195q65 48 162 48q78 0 137 -37q91 -58 91 -185q0 -64 -30.5 -117.5t-77.5 -83.5q-58 -38 -145 -38zM274 68h1q29 0 44 23q23 33 23 135q0 74 -18 115q-15 31 -47 31q-29 0 -45 -24q-27 -38 -27 -124q0 -95 24 -129
q16 -27 45 -27z" />
    <glyph glyph-name="p" unicode="p" horiz-adv-x="572" 
d="M230 394l6 -1q76 40 99 49t55 9q62 0 107.5 -60t44.5 -138q0 -65 -31 -134q-25 -58 -76 -97q-16 -12 -47.5 -22t-59.5 -10q-54 0 -88 14l-7 -2q1 -50 1 -152l81 -3q0 -56 -1 -82q-108 0 -161 -1q-92 0 -132 -1q0 55 1 82l48 4q4 0 4 5l1 483l-63 1q0 30 2 82l70 11
l90.5 14.5t42.5 6.5t2 -2q2 -9 5.5 -27.5zM371 215v1q0 69 -16 93q-17 25 -39 25q-34 0 -78 -27q-2 -114 -2 -192q0 -14 21.5 -24.5t39.5 -10.5q33 0 51 26q23 35 23 109z" />
    <glyph glyph-name="q" unicode="q" horiz-adv-x="556" 
d="M339 28h-8q-81 -38 -125 -38q-66 0 -115 46q-61 56 -61 153q0 116 77 201q56 61 149 61q48 0 111 -22l54 36q42 -6 83 -17q-3 -28 -5 -107q-5 -383 -4 -490l54 -1q0 -43 -3 -83q-19 0 -65 -0.5t-70 -0.5q-15 0 -154 -3q0 56 2 83l74 5q4 0 4 5zM278 354h-1q-33 0 -50 -26
q-25 -43 -25 -117q0 -62 21 -93q17 -26 44 -26q29 0 64 17q5 3 5 18v211q-28 16 -58 16z" />
    <glyph glyph-name="r" unicode="r" horiz-adv-x="456" 
d="M85 340l-59 2q0 32 2 82q19 2 68 9l89 12.5t42 5.5t2 -3l9 -127l7 -1q45 85 70.5 108.5t64.5 23.5q35 0 72 -14q0 -33 -16.5 -82t-30.5 -62q-3 0 -14.5 3t-25 5t-24.5 2q-16 0 -28 -9q-26 -20 -52 -70q-15 -28 -15 -85q-1 -17 -1 -55l83 -3q0 -29 -2 -81h-152
q-22 0 -71 -0.5t-70 -0.5q0 56 1 81l47 3q4 0 4 4v252z" />
    <glyph glyph-name="s" unicode="s" horiz-adv-x="447" 
d="M116 159l15 -57q2 -7 8 -11q25 -15 55 -15q27 0 39 5q22 11 22 33q0 19 -14.5 27.5t-65.5 22.5q-134 39 -134 133q0 42 25.5 75t60.5 50q58 29 143 29q86 0 120 -14q10 -84 14 -133q-15 -3 -47.5 -7.5t-42.5 -6.5l-15 53q-2 9 -7 11q-15 11 -39 11q-26 0 -38 -8
q-18 -12 -18 -34q0 -16 16 -24t78 -25q60 -17 90.5 -45t30.5 -84q0 -41 -23.5 -75t-64.5 -55q-53 -25 -148 -25q-79 0 -132 16q-5 40 -16 137q53 11 88 16z" />
    <glyph glyph-name="t" unicode="t" horiz-adv-x="424" 
d="M194 -10h-1q-43 0 -77 31q-22 19 -28.5 36t-6.5 42q0 33 0.5 74t0.5 42q0 12 0.5 70t0.5 61h-70q0 43 3 85q10 1 32.5 3t32.5 2q7 0 7 8q0 3 7 83q23 11 60 24.5t62.5 21.5t27.5 8q3 0 3 -4q-1 -11 -2 -69t-1 -71q26 0 78.5 0.5t75.5 0.5q0 -54 -4 -94q-21 0 -74 0.5
t-76 0.5q0 -2 -0.5 -11.5t-0.5 -28.5v-43v-122q0 -20 14 -32.5t32 -12.5q51 0 109 15q6 -33 12 -84q-93 -36 -217 -36z" />
    <glyph glyph-name="u" unicode="u" horiz-adv-x="569" 
d="M346 40h-5q-59 -33 -84.5 -41.5t-57.5 -8.5q-45 0 -90.5 47.5t-45.5 93.5q0 39 0.5 114t0.5 106l-44 2q0 14 0.5 41.5t0.5 40.5q22 1 109 4t94 3q3 0 3 -4q-3 -210 -3 -231q0 -66 12 -85q13 -21 39 -21q31 0 60 21v228l-49 2q0 31 2 85q148 4 210 4q2 0 2 -4
q-3 -318 -3 -341q0 -6 4 -6l56 2q0 -13 -0.5 -41t-0.5 -42q-9 -5 -64 -12t-100 -7q-22 16 -46 50z" />
    <glyph glyph-name="v" unicode="v" horiz-adv-x="518" 
d="M518 357l-38 -3l-71 -168l-90 -195q-29 -1 -145 -1q-51 137 -80 223l-26.5 78.5l-19.5 58.5q0 3 -6 3l-39 2q0 14 0.5 43.5t1.5 42.5h121h141q0 -57 -1 -85l-43 -2q4 -21 25 -106l34 -121h7l19 58t18 57q27 103 28 106q0 5 -4 5l-32 2q0 60 1 85h114q14 0 44 0.5t43 0.5
q0 -30 -2 -84z" />
    <glyph glyph-name="w" unicode="w" horiz-adv-x="742" 
d="M743 357l-37 -2l-56 -169l-68 -194q-62 -2 -148 -2l-63 216h-6q-32 -86 -84 -214q-68 -2 -144 -2l-50 198q-24 92 -40 161q-2 4 -7 4l-35 3q0 14 0.5 43t0.5 42h114h149q0 -57 -1 -86l-57 -2l13 -104q13 -88 19 -123l7 -2q29 103 84 272q19 3 132 3q43 -167 69 -279h8
l24 125q9 46 18 104q0 4 -4 4l-46 2q0 33 2 85h129q14 0 41 0.5t38 0.5q0 -30 -2 -84z" />
    <glyph glyph-name="x" unicode="x" horiz-adv-x="536" 
d="M4 83l36 3q6 0 12 4l126 117v8l-119 135q-3 3 -7 3l-36 2q0 60 1 86h117h149q0 -58 -1 -85l-37 -2q48 -60 57 -69h8q18 18 52 64q2 4 -2 4l-27 2q0 14 0.5 43t0.5 42h106q14 0 43 0.5t41 0.5q0 -32 -2 -84l-31 -3l-57.5 -57t-70.5 -67v-6l119 -137l42 -3q0 -57 -1 -84
h-116h-149q0 14 0.5 42.5t0.5 41.5l29 2q8 2 4 6q-19 26 -51 60h-8q-15 -17 -55 -66l31 -2q-1 -13 -1 -41.5t-1 -42.5h-110h-94q0 57 1 83z" />
    <glyph glyph-name="y" unicode="y" horiz-adv-x="514" 
d="M514 357l-36 -3l-84 -212q-85 -207 -148 -306q-50 -79 -77 -94q-25 0 -72.5 32.5t-47.5 51.5q39 22 72 53q56 51 74 96l-83 209l-63 166q-1 3 -6 3l-38 2q0 34 2 86h118h143q0 -58 -1 -85l-46 -2l32 -104q5 -17 11.5 -35.5l15 -42t13.5 -39.5h6q21 66 30 106
q20 84 25 109q0 5 -4 5l-34 2q0 59 1 85h114q14 0 43.5 0.5t41.5 0.5q0 -32 -2 -84z" />
    <glyph glyph-name="z" unicode="z" horiz-adv-x="500" 
d="M212 87l2 -4q7 0 107 2q28 2 35 18l33 79q39 -7 88 -21q-14 -61 -40 -162q-2 0 -71 0.5t-109 0.5h-127h-88q-13 35 -25 75l268 277l-1 5h-103q-19 0 -26 -15l-29 -80q-52 8 -92 17q17 89 33 162h19.5t36.5 -0.5t54 -0.5q78 -1 261 -1q18 -55 27 -107q-14 -17 -52 -54.5
l-73.5 -70.5l-78 -73t-49.5 -47z" />
    <glyph glyph-name="braceleft" unicode="{" horiz-adv-x="409" 
d="M181 274v-8q39 -7 65.5 -35.5t26.5 -72.5q0 -29 -10.5 -88.5t-10.5 -102.5q0 -45 23.5 -67.5t85.5 -22.5q2 -46 1 -71q-108 0 -175 44t-67 125q0 40 14 101.5t14 89.5q0 34 -15 50t-68 15q-1 23 -1 73q53 0 68.5 16t14.5 48q0 19 -13 73.5t-13 94.5q0 86 63 132t181 46
q2 -40 -1 -71q-68 0 -89 -24.5t-21 -69.5q0 -36 10 -91.5t10 -78.5q0 -85 -93 -105z" />
    <glyph glyph-name="bar" unicode="|" horiz-adv-x="563" 
d="M236 750h92v-1000h-92v1000z" />
    <glyph glyph-name="braceright" unicode="}" horiz-adv-x="409" 
d="M228 266v8q-92 20 -93 102q0 26 10.5 82t11.5 91q-1 49 -21 71.5t-89 22.5q-3 31 -1 71q243 0 243 -178q1 -41 -13.5 -95.5t-14.5 -72.5q0 -16 2.5 -25.5t10 -19.5t25.5 -14.5t46 -4.5q0 -50 -1 -73q-53 1 -68.5 -15t-15.5 -50q0 -27 14 -88.5t14 -102.5
q0 -80 -67 -124.5t-175 -44.5q-2 24 0 71q61 0 85.5 23t24.5 67q0 43 -10.5 102.5t-10.5 88.5q0 44 27 72.5t66 35.5z" />
    <glyph glyph-name="asciitilde" unicode="~" horiz-adv-x="563" 
d="M184 322h1q44 0 108 -32q66 -32 87 -32q18 0 32 17.5t14 47.5q12 1 25.5 1t29 -0.5t22.5 -0.5q0 -72 -35.5 -119t-88.5 -47q-39 0 -111 34q-7 3 -26 12.5t-32 13.5t-26 4q-18 0 -32 -17.5t-15 -47.5q-20 -2 -77 0q1 71 37 118.5t87 47.5z" />
    <glyph glyph-name="uni00A0" unicode="&#xa0;" horiz-adv-x="225" 
 />
    <glyph glyph-name="exclamdown" unicode="&#xa1;" horiz-adv-x="314" 
d="M60 -210h-1v1l45 429q23 8 99 13q1 -8 11 -95t12 -101q30 -217 31 -221q-28 -7 -101 -16.5t-96 -9.5zM151 292h-1q-36 0 -58.5 23t-22.5 56q0 34 24.5 57t61.5 23q34 0 58 -22t24 -56t-24 -57.5t-62 -23.5z" />
    <glyph glyph-name="cent" unicode="&#xa2;" horiz-adv-x="563" 
d="M61 295v1q0 95 62.5 165.5t177.5 87.5v103q39 7 84 10q-1 -18 -1.5 -54t-0.5 -54h8q69 0 117 -24q0 -24 -14 -62.5t-29 -47.5q-61 32 -87 35q-4 -162 -5 -252q47 1 111 24q5 -15 21 -73q-64 -31 -130 -40q-2 -82 -2 -120q-13 -1 -39.5 -3.5t-39.5 -3.5q0 78 1 120
q-41 0 -79 10t-74.5 30t-58.5 58.5t-22 89.5zM215 321v-1q0 -50 24 -81q18 -25 56 -36l3 252q-35 -7 -59 -45t-24 -89z" />
    <glyph glyph-name="sterling" unicode="&#xa3;" horiz-adv-x="563" 
d="M361 655h1q61 0 112 -18q10 -124 14 -179q-10 -1 -98 -12l-23 99q-3 10 -6 12q-10 5 -35 5q-26 0 -43 -21t-17 -74q0 -25 14 -107q67 0 155 2q1 -33 -3 -93q-90 0 -139 1q0 -6 0.5 -18.5t0.5 -17.5q0 -76 -69 -134q-5 -4 -6.5 -6t1 -3t8.5 -1q140 0 160 8q14 3 20 22
l33 98q49 -9 99 -22l-42 -197q-2 0 -112 0.5t-209 0.5q-25 0 -80 -0.5t-84 -0.5q0 31 2 91l75 3q7 0 13 4q34 37 34 119q0 31 -4 54h-95q0 31 2 85h71q3 0 3 4q-16 62 -16 104q0 40 20.5 78.5t57.5 62.5q75 51 185 51z" />
    <glyph glyph-name="currency" unicode="&#xa4;" horiz-adv-x="563" 
d="M295 521h1q57 0 90 -16l75 95q36 -27 63 -56l-71 -86q26 -23 41 -61t15 -77q0 -45 -17.5 -85.5t-48.5 -65.5l82 -96q-41 -37 -62 -51l-86 98q-36 -20 -99 -20q-58 0 -94 17l-89 -98q-32 24 -58 53l80 93q-56 48 -56 138q0 40 17 80t46 66l-74 90q24 24 62 56l78 -97
q40 23 105 23zM288 440h-1q-48 0 -77 -25q-46 -41 -46 -107q0 -64 40 -102q28 -26 79 -26q45 0 76 23q47 36 47 112q0 70 -49 106q-25 19 -69 19z" />
    <glyph glyph-name="yen" unicode="&#xa5;" horiz-adv-x="563" 
d="M203 92v46q-23 0 -73.5 -0.5t-70.5 -0.5q0 27 2 67q20 0 67.5 -0.5t74.5 -0.5v51h-143q0 43 2 64h122l-132 228q-3 4 -11 6l-30 2q0 56 1 81h111q29 0 85 0.5t74 0.5q0 -56 -1 -82l-56 -4l91 -202h7q55 117 89 196q2 6 -5 6l-50 2q0 56 1 83h124q15 0 41 0.5t34 0.5
q0 -56 -1 -83l-34 -2l-136 -229q22 0 60.5 0.5t52.5 0.5q2 -39 -1 -70h-146v-49h147q0 -43 -1 -65q-20 0 -70 -0.5t-76 -0.5l-1 -53l82 -3q0 -26 -2 -82q-19 0 -73 0.5t-81 0.5q-23 0 -75.5 -0.5t-76.5 -0.5q0 30 2 82l71 3q5 0 5 7z" />
    <glyph glyph-name="brokenbar" unicode="&#xa6;" horiz-adv-x="563" 
d="M236 675h92v-350h-92v350zM236 175h92v-350h-92v350z" />
    <glyph glyph-name="section" unicode="&#xa7;" horiz-adv-x="476" 
d="M437 223v-1q0 -86 -61 -155q28 -30 28 -91q0 -78 -64 -132q-59 -50 -143 -50q-107 0 -181 51q7 26 29.5 53.5t47.5 36.5q62 -53 117 -53q31 0 48 17t17 44q0 9 -2 16.5t-4 13.5t-8.5 12.5l-10.5 10.5t-15.5 11.5t-18.5 11.5l-24 14l-27 16q-64 39 -95 79.5t-31 101.5
q0 88 68 159q-33 39 -33 95q0 71 64 120q62 49 157 49q93 0 150 -45q-4 -23 -24.5 -50.5t-46.5 -38.5q-19 18 -50.5 32.5t-56.5 14.5q-33 0 -49 -18q-16 -17 -16 -39q0 -14 4 -24t15.5 -19.5t20.5 -15t31.5 -18l36.5 -20.5q127 -75 127 -189zM147 277v-1q0 -20 5.5 -35
t21 -28.5t22.5 -18l29 -18.5l24 -15.5l35 -22t28 -18.5q15 25 15 62q0 32 -18.5 53.5t-55.5 46.5q-7 5 -36.5 24.5t-46.5 33.5q-23 -27 -23 -63z" />
    <glyph glyph-name="dieresis" unicode="&#xa8;" horiz-adv-x="450" 
d="M131 631h1q27 0 43.5 -17t16.5 -40q0 -28 -17 -45.5t-46 -17.5q-25 0 -43 17.5t-18 43.5q0 23 17.5 41t45.5 18zM319 631h1q28 0 45 -18t17 -41q0 -26 -18.5 -43.5t-42.5 -17.5q-29 0 -46 17t-17 46q0 23 16.5 40t44.5 17z" />
    <glyph glyph-name="copyright" unicode="&#xa9;" horiz-adv-x="757" 
d="M383 660h1q142 0 236 -94.5t94 -235.5t-99 -240.5t-240 -99.5q-143 0 -237 94.5t-94 236.5q0 140 99 239.5t240 99.5zM380 609h-1q-116 0 -192.5 -84t-76.5 -203t75.5 -200t192.5 -81t193.5 84t76.5 203t-75.5 200t-192.5 81zM447 368l-14 61q0 6 -4 8q-8 7 -23 7
q-30 0 -50 -20q-39 -39 -39 -108q0 -56 30 -84q24 -23 67 -23q48 0 89 16q8 -42 9 -57q-60 -29 -120 -29q-79 0 -122 33q-65 48 -65 127q0 103 78 165q58 44 140 44q54 0 78 -8q6 -60 9 -123q-6 -1 -63 -9z" />
    <glyph glyph-name="ordfeminine" unicode="&#xaa;" horiz-adv-x="409" 
d="M234 322h-4q-56 -33 -108 -33q-34 0 -66.5 26.5t-32.5 61.5q0 41 43.5 80t121.5 39h40q2 61 -45 61q-42 0 -98 -44q-19 24 -39 55q92 76 185 76q43 0 80 -34t37 -81q0 -28 -0.5 -86t-0.5 -72q0 -6 3 -6l41 2q0 -43 -1 -63q-66 -15 -128 -15q-14 9 -28 33zM141 392v-1
q0 -12 12 -20t26 -8q32 0 48 16q2 2 2 5v55q-2 1 -15 1q-36 0 -54.5 -13.5t-18.5 -34.5z" />
    <glyph glyph-name="guillemotleft" unicode="&#xab;" horiz-adv-x="484" 
d="M170 222l95 -157q-12 -13 -48 -44l-165 166q-2 21 -2 67l168 167q23 -17 47 -45zM358 221l91 -150q-14 -16 -44 -43l-159 163q-2 19 -2 58l158 165q16 -12 45 -43z" />
    <glyph glyph-name="logicalnot" unicode="&#xac;" horiz-adv-x="563" 
d="M408 11v188q-60 0 -180 0.5t-169 0.5q0 12 1 42.5t2 46.5q62 0 215 1.5t219 2.5q5 0 5 -4q0 -45 -1.5 -143t-1.5 -132q-44 -3 -90 -3z" />
    <glyph glyph-name="uni00AD" unicode="&#xad;" horiz-adv-x="375" 
d="M181 197h-1q-19 0 -70 0.5t-73 0.5l3 90q98 0 147 1q61 0 151 2q0 -54 -4 -94h-153z" />
    <glyph glyph-name="registered" unicode="&#xae;" horiz-adv-x="506" 
d="M256 660h1q90 0 148 -58t58 -147q0 -87 -61.5 -148.5t-150.5 -61.5q-92 0 -150 57.5t-58 147.5q0 87 61.5 148.5t151.5 61.5zM254 622h-1q-73 0 -119 -49t-46 -123q0 -72 45.5 -119.5t118.5 -47.5q72 0 118.5 49.5t46.5 121.5q0 73 -45.5 120.5t-117.5 47.5zM169 380v147
h-18v35q31 1 89 1q38 0 61 -6q23 -5 35.5 -19.5t12.5 -32.5q0 -40 -43 -58v-6q14 -6 37 -51q6 -10 11 -10l15 -1q0 -22 -1 -34h-75q-16 32 -30 68q-6 11 -21 11h-7v-44l18 -1v-34h-102v34zM235 528v-70h7q19 0 30.5 9.5t11.5 26.5q0 34 -41 34h-8z" />
    <glyph glyph-name="macron" unicode="&#xaf;" horiz-adv-x="450" 
d="M345 598q2 -37 0 -73q-34 0 -115.5 0.5t-122.5 0.5q-3 29 -1 70q162 2 239 2z" />
    <glyph glyph-name="degree" unicode="&#xb0;" horiz-adv-x="385" 
d="M193 655h1q64 0 103 -37t39 -95q0 -57 -42 -96t-102 -39q-61 0 -102 35.5t-41 97.5q0 54 41.5 94t102.5 40zM194 592h-1q-24 0 -40 -20.5t-16 -50.5q0 -32 16.5 -51t40.5 -19q26 0 40 19t14 51q0 71 -54 71z" />
    <glyph glyph-name="plusminus" unicode="&#xb1;" horiz-adv-x="563" 
d="M240 359v149q60 4 95 4q-1 -21 -1.5 -73t-0.5 -78q29 0 89 0.5t84 1.5q0 -51 -3 -96h-171q0 -23 -0.5 -67t-0.5 -60q-56 -4 -91 -4v132h-175q0 47 3 89q38 0 172 2zM501 2l-438 -4q0 50 3 92q60 0 221.5 -0.5t216.5 -0.5q0 -45 -3 -87z" />
    <glyph glyph-name="twosuperior" unicode="&#xb2;" 
d="M337 641v-1q0 -73 -110 -146q-15 -11 -39 -22v-5q13 0 44.5 1t67 3t41.5 2q1 0 1 -1q0 -31 -4 -79q-20 0 -99.5 0.5t-99.5 0.5h-83q-10 31 -16 55q56 35 86 60q91 75 91 129q0 21 -12 36q-9 12 -30 12q-20 0 -33 -10q-3 -2 -3 -6l-13 -59q-11 0 -72 6q1 42 5 113
q56 22 133 22t111 -32t34 -79z" />
    <glyph glyph-name="threesuperior" unicode="&#xb3;" 
d="M123 513l12 -56q1 -3 5 -6q7 -5 24 -5q28 0 41 10q16 14 16 33q0 52 -78 52h-35q-2 41 -1 60q66 -1 88 13t22 44q0 15 -10 25q-9 9 -30 9q-20 0 -33 -9q-3 -1 -3 -5l-11 -51q-50 4 -75 5q2 67 4 101q59 19 132 19q81 0 109 -22q35 -28 35 -61q0 -63 -75 -83v-5
q40 -6 61.5 -30.5t21.5 -53.5q0 -52 -47 -82q-43 -29 -138 -29q-63 0 -101 8q-6 39 -11 108q24 5 77 11z" />
    <glyph glyph-name="acute" unicode="&#xb4;" horiz-adv-x="450" 
d="M287 694q32 -31 67 -76l-179 -127l-45 52z" />
    <glyph glyph-name="mu" unicode="&#xb5;" horiz-adv-x="569" 
d="M203 11l-5 -2q0 -32 2 -79l4 -92t2 -50q-22 -16 -73 -26.5t-77 -9.5q3 135 3 378q0 115 2 273q31 16 79.5 27.5t79.5 11.5q3 0 3 -4q-2 -146 -2 -226q0 -69 13 -90q14 -22 41 -22q24 0 42.5 14.5t18.5 38.5v250q31 16 81 27t80 11q2 0 2 -4q0 -47 -1 -146t-1 -142
q0 -57 20 -57q24 0 51 7q9 -50 11 -79q-21 -12 -73.5 -21t-102.5 -9q-21 13 -53 57h-6q-55 -56 -96 -56q-23 0 -45 20z" />
    <glyph glyph-name="mu" unicode="&#x3bc;" horiz-adv-x="569" 
d="M203 11l-5 -2q0 -32 2 -79l4 -92t2 -50q-22 -16 -73 -26.5t-77 -9.5q3 135 3 378q0 115 2 273q31 16 79.5 27.5t79.5 11.5q3 0 3 -4q-2 -146 -2 -226q0 -69 13 -90q14 -22 41 -22q24 0 42.5 14.5t18.5 38.5v250q31 16 81 27t80 11q2 0 2 -4q0 -47 -1 -146t-1 -142
q0 -57 20 -57q24 0 51 7q9 -50 11 -79q-21 -12 -73.5 -21t-102.5 -9q-21 13 -53 57h-6q-55 -56 -96 -56q-23 0 -45 20z" />
    <glyph glyph-name="paragraph" unicode="&#xb6;" horiz-adv-x="635" 
d="M540 563l-4 -710q-47 -13 -89 -17l-2 729h-66l-3 -716q-45 -11 -92 -16l-1 338h-21q-42 0 -89 22q-131 61 -131 204q0 79 40.5 134t98.5 83q68 37 235 37q38 0 107.5 -2t85.5 -2q1 -25 1 -85z" />
    <glyph glyph-name="periodcentered" unicode="&#xb7;" horiz-adv-x="298" 
d="M150 343h1q38 0 60.5 -24t22.5 -58q0 -38 -24.5 -61t-63.5 -23q-33 0 -58.5 23.5t-25.5 58.5q0 34 24 59t64 25z" />
    <glyph glyph-name="cedilla" unicode="&#xb8;" horiz-adv-x="450" 
d="M149 -76l94 79h84l-84 -72q30 -5 50 -26.5t20 -51.5q0 -47 -43.5 -77t-125.5 -30q-4 25 -6 57q84 5 84 48q0 13 -11 26q-15 15 -50 12q-2 5 -6 17.5t-6 17.5z" />
    <glyph glyph-name="onesuperior" unicode="&#xb9;" 
d="M271 454l82 -1q0 -40 -1 -59h-132h-155q0 39 1 59l90 1q2 0 2 3v191q-26 -3 -93 -12q-8 50 -9 59q31 8 83.5 24l89 27t42.5 11q1 0 1 -3q0 -42 -0.5 -147t-0.5 -153z" />
    <glyph glyph-name="ordmasculine" unicode="&#xba;" horiz-adv-x="417" 
d="M202 289h-1q-78 0 -119 40q-53 50 -53 128q0 96 69 149q47 38 121 38q61 0 104 -30q65 -45 65 -140q0 -49 -20.5 -90t-53.5 -64q-44 -31 -112 -31zM209 350h1q24 0 35 17q17 26 17 103q0 65 -14 90q-12 23 -36 23q-23 0 -37 -18q-20 -32 -20 -96q0 -71 18 -99
q13 -20 36 -20z" />
    <glyph glyph-name="guillemotright" unicode="&#xbb;" horiz-adv-x="484" 
d="M128 221l-89 150q25 27 45 43l158 -165q0 -22 -2 -58l-160 -163q-4 4 -20.5 19.5t-23.5 23.5zM315 221l-95 155q17 18 48 45l167 -168q0 -24 -2 -66l-166 -166q-36 31 -48 44z" />
    <glyph glyph-name="onequarter" unicode="&#xbc;" horiz-adv-x="891" 
d="M281 353l82 -1q0 -40 -1 -59h-132h-155q0 39 1 59l90 1q2 0 2 3v191q-13 -1 -27.5 -3t-33.5 -5l-32 -5l-9 60q31 8 83.5 24l89 27t42.5 11q1 0 1 -3q0 -42 -0.5 -147.5t-0.5 -152.5zM302 -18q-2 1 -27.5 15t-39.5 23l179 285l215 358q45 -20 72 -40l-219 -356zM770 50
l42 -1q0 -33 -1 -49h-105h-109v48l74 2q3 0 3 3v28h-155q-18 36 -28 66l83 107l84 102q3 0 114 -3q0 -29 -0.5 -100t-0.5 -105h63q0 -41 -2 -63h-62v-35zM675 273h-7q-12 -17 -29 -38.5t-22 -29.5l-35 -50q-4 -7 3 -7h89z" />
    <glyph glyph-name="onehalf" unicode="&#xbd;" horiz-adv-x="891" 
d="M271 353l82 -1q0 -40 -1 -59h-132h-155q0 39 1 59l90 1q2 0 2 3v191q-13 -1 -27.5 -3t-33.5 -5l-32 -5l-9 60q31 8 83.5 24l89 27t42.5 11q1 0 1 -3q0 -42 -0.5 -147.5t-0.5 -152.5zM291 -18l-30.5 17t-36.5 21l180 285l214 358q42 -18 72 -40l-218 -356zM835 247v-1
q0 -73 -110 -146q-15 -11 -39 -22v-5q13 0 44.5 1t67 3t41.5 2q1 0 1 -1q0 -31 -4 -79q-20 0 -99.5 0.5t-99.5 0.5h-83q-10 31 -16 55q56 35 86 60q91 75 91 129q0 21 -12 36q-9 12 -30 12q-20 0 -33 -10q-3 -2 -3 -6l-13 -59q-11 0 -72 6q1 42 5 113q56 22 133 22t111 -32
t34 -79z" />
    <glyph glyph-name="threequarters" unicode="&#xbe;" horiz-adv-x="891" 
d="M158 413l12 -56q1 -3 5 -6q8 -5 24 -5q28 0 41 10q16 14 16 33q0 52 -78 52h-35q-2 41 -1 60q66 -1 88 13t22 43q0 15 -10 25q-9 9 -30 9q-20 0 -33 -9q-3 -2 -3 -5l-11 -50q-12 1 -37 2.5t-38 2.5q2 65 4 100q59 19 132 19q81 0 109 -22q35 -28 35 -61q0 -62 -75 -82v-5
q40 -6 61.5 -30.5t21.5 -53.5q0 -52 -47 -82q-43 -29 -138 -29q-63 0 -101 8q-6 39 -11 108q27 5 77 11zM292 -18q-2 1 -27.5 15t-39.5 23l179 285l215 358q45 -20 72 -40l-219 -356zM760 50l42 -1q0 -33 -1 -49h-105h-109v48l74 2q3 0 3 3v28h-155q-18 36 -28 66l83 107
l84 102q3 0 114 -3q0 -29 -0.5 -100t-0.5 -105h63q0 -41 -2 -63h-62v-35zM665 273h-7q-12 -17 -29 -38.5t-22 -29.5l-35 -50q-4 -7 3 -7h89z" />
    <glyph glyph-name="questiondown" unicode="&#xbf;" horiz-adv-x="490" 
d="M269 296h-1q-35 0 -57.5 22t-22.5 56q0 32 25 54.5t62 22.5q32 0 56.5 -21t24.5 -53q0 -34 -24.5 -57.5t-62.5 -23.5zM29 -64v1q0 68 43.5 115.5t132.5 92.5q16 9 16 19q0 25 -4 60q43 16 106 19q13 -19 25.5 -52.5t13.5 -60.5q-86 -58 -117.5 -93.5t-32.5 -85.5
q0 -32 19 -51.5t45 -19.5q28 0 44 12q6 6 7 11l23 83q60 -5 104 -12q-6 -109 -11 -160q-30 -14 -87 -24t-115 -10q-96 0 -154 41t-58 115z" />
    <glyph glyph-name="Agrave" unicode="&#xc0;" horiz-adv-x="638" 
d="M-8 84l46 3q4 0 6 5l209 561q27 3 138 3l191 -569l51 -3q0 -56 -1 -84h-120h-161q0 57 1 85l49 2q5 2 4 6l-20 62q-3 5 -7 5l-186 -2q-2 -11 -8.5 -36t-8.5 -35l55 -3q0 -56 -1 -84h-140h-98q0 57 1 84zM292 470h-6l-68 -221q-2 -6 2 -6h140zM232 885l179 -127
q-13 -25 -37 -58l-198 99q32 54 56 86z" />
    <glyph glyph-name="Aacute" unicode="&#xc1;" horiz-adv-x="638" 
d="M-8 84l46 3q4 0 6 5l209 561q27 3 138 3l191 -569l51 -3q0 -56 -1 -84h-120h-161q0 57 1 85l49 2q5 2 4 6l-20 62q-3 5 -7 5l-186 -2q-2 -11 -8.5 -36t-8.5 -35l55 -3q0 -56 -1 -84h-140h-98q0 57 1 84zM292 470h-6l-68 -221q-2 -6 2 -6h140zM398 885q24 -32 56 -86
l-197 -99q-22 31 -38 58z" />
    <glyph glyph-name="Acircumflex" unicode="&#xc2;" horiz-adv-x="638" 
d="M-8 84l46 3q4 0 6 5l209 561q27 3 138 3l191 -569l51 -3q0 -56 -1 -84h-120h-161q0 57 1 85l49 2q5 2 4 6l-20 62q-3 5 -7 5l-186 -2q-2 -11 -8.5 -36t-8.5 -35l55 -3q0 -56 -1 -84h-140h-98q0 57 1 84zM292 470h-6l-68 -221q-2 -6 2 -6h140zM326 780l-126 -74
q-24 27 -39 49l142 114q14 1 45 1l143 -114q-15 -24 -42 -51z" />
    <glyph glyph-name="Atilde" unicode="&#xc3;" horiz-adv-x="638" 
d="M-8 84l46 3q4 0 6 5l209 561q27 3 138 3l191 -569l51 -3q0 -56 -1 -84h-120h-161q0 57 1 85l49 2q5 2 4 6l-20 62q-3 5 -7 5l-186 -2q-2 -11 -8.5 -36t-8.5 -35l55 -3q0 -56 -1 -84h-140h-98q0 57 1 84zM292 470h-6l-68 -221q-2 -6 2 -6h140zM254 847h1q26 0 74 -25
q44 -24 59 -24t26.5 13t12.5 33q19 2 58 0q-3 -57 -27.5 -93.5t-71.5 -36.5q-25 0 -75 27q-39 22 -58 22q-15 0 -26 -12.5t-13 -33.5q-19 -2 -58 0q2 53 29.5 91.5t68.5 38.5z" />
    <glyph glyph-name="Adieresis" unicode="&#xc4;" horiz-adv-x="638" 
d="M-8 84l46 3q4 0 6 5l209 561q27 3 138 3l191 -569l51 -3q0 -56 -1 -84h-120h-161q0 57 1 85l49 2q5 2 4 6l-20 62q-3 5 -7 5l-186 -2q-2 -11 -8.5 -36t-8.5 -35l55 -3q0 -56 -1 -84h-140h-98q0 57 1 84zM292 470h-6l-68 -221q-2 -6 2 -6h140zM222 833h1q28 0 44.5 -17.5
t16.5 -40.5q0 -29 -17.5 -46t-46.5 -17q-25 0 -43.5 17.5t-18.5 43.5q0 23 17.5 41.5t46.5 18.5zM427 833h1q28 0 45.5 -18.5t17.5 -41.5q0 -26 -18.5 -43.5t-43.5 -17.5q-29 0 -46.5 17t-17.5 46q0 23 17 40.5t45 17.5z" />
    <glyph glyph-name="Aring" unicode="&#xc5;" horiz-adv-x="638" 
d="M-8 84l46 3q4 0 6 5l209 561q27 3 138 3l191 -569l51 -3q0 -56 -1 -84h-120h-161q0 57 1 85l49 2q5 2 4 6l-20 62q-3 5 -7 5l-186 -2q-2 -11 -8.5 -36t-8.5 -35l55 -3q0 -56 -1 -84h-140h-98q0 57 1 84zM292 470h-6l-68 -221q-2 -6 2 -6h140zM320 905h1q54 0 88.5 -29
t34.5 -74t-36.5 -75t-88.5 -30q-53 0 -88.5 27.5t-35.5 75.5q0 41 36 73t89 32zM321 854h-1q-21 0 -36 -16t-15 -38q0 -23 15 -37.5t36 -14.5q23 0 36 14.5t13 38.5t-13 38.5t-35 14.5z" />
    <glyph glyph-name="AE" unicode="&#xc6;" horiz-adv-x="906" 
d="M431 247l-174 -3q-52 -104 -75 -156l64 -4q0 -56 -1 -84h-159h-98q0 56 1 84l55 5q4 0 7 5l319 550q4 5 9 5h140h229q24 0 57 0.5t42 0.5q8 -117 10 -178q-94 -10 -97 -10l-17 76q-3 15 -20 17q-42 6 -106 6h-9l-2 -217q48 2 87 3q12 0 15 19l6 37q34 1 94 -1
q0 -16 -0.5 -51t-0.5 -53t-0.5 -47t-0.5 -36q-43 -3 -94 -3l-4 28q-3 18 -15 18q-29 1 -87 1v-149q0 -15 9 -19t43 -4q49 0 79 7q13 3 19 19l22 63q56 -8 98 -18l-29 -159q-14 0 -131 0.5t-198 0.5q-25 0 -77 -0.5t-77 -0.5q0 14 0.5 43t0.5 42l69 2q4 0 4 5v151q0 5 -7 5z
M438 565h-5q-54 -88 -131 -231q-3 -6 3 -6l133 1v236z" />
    <glyph glyph-name="Ccedilla" unicode="&#xc7;" horiz-adv-x="611" 
d="M267 -82l83 73h-10q-46 0 -96.5 15.5t-87.5 42.5q-50 36 -81.5 98.5t-31.5 137.5q0 189 139 296q99 80 245 80q92 0 132 -15q9 -91 16 -204q-37 -7 -106 -14l-23 104q-2 9 -7 12q-16 13 -46 13q-57 0 -95 -41q-69 -71 -69 -197t58 -178q44 -41 117 -41q33 0 83.5 8
t72.5 16q9 -39 17 -94q-58 -22 -137 -34l-75 -69q80 -8 80 -76q0 -47 -48.5 -80t-129.5 -33q-5 20 -9 56q89 4 89 48q0 20 -14 29q-17 12 -52 12z" />
    <glyph glyph-name="Egrave" unicode="&#xc8;" horiz-adv-x="581" 
d="M50 84l52 3q4 0 4 4v470l-57 2q0 59 1 86h132h233q23 0 56.5 0.5t42.5 0.5q6 -87 9 -178q-94 -10 -97 -10l-16 76q-3 15 -20 17q-42 6 -105 6h-10v-189q15 0 44 0.5t43 1.5q11 0 13 19l6 37q34 1 94 -1q-1 -32 -1 -104q-1 -36 -1 -98q-87 -3 -94 -3l-4 40q-3 21 -16 21
q-56 2 -85 2v-177q0 -14 9 -18t43 -4q46 0 79 7q13 3 19 18l29 80q56 -8 98 -18l-37 -176q-51 1 -328 1h-137q0 13 0.5 41.5t0.5 42.5zM220 885l179 -127q-13 -25 -37 -58l-198 99q32 54 56 86z" />
    <glyph glyph-name="Eacute" unicode="&#xc9;" horiz-adv-x="581" 
d="M50 84l52 3q4 0 4 4v470l-57 2q0 59 1 86h132h233q23 0 56.5 0.5t42.5 0.5q6 -87 9 -178q-94 -10 -97 -10l-16 76q-3 15 -20 17q-42 6 -105 6h-10v-189q15 0 44 0.5t43 1.5q11 0 13 19l6 37q34 1 94 -1q-1 -32 -1 -104q-1 -36 -1 -98q-87 -3 -94 -3l-4 40q-3 21 -16 21
q-56 2 -85 2v-177q0 -14 9 -18t43 -4q46 0 79 7q13 3 19 18l29 80q56 -8 98 -18l-37 -176q-51 1 -328 1h-137q0 13 0.5 41.5t0.5 42.5zM386 885q24 -32 56 -86l-197 -99q-22 31 -38 58z" />
    <glyph glyph-name="Ecircumflex" unicode="&#xca;" horiz-adv-x="581" 
d="M50 84l52 3q4 0 4 4v470l-57 2q0 59 1 86h132h233q23 0 56.5 0.5t42.5 0.5q6 -87 9 -178q-94 -10 -97 -10l-16 76q-3 15 -20 17q-42 6 -105 6h-10v-189q15 0 44 0.5t43 1.5q11 0 13 19l6 37q34 1 94 -1q-1 -32 -1 -104q-1 -36 -1 -98q-87 -3 -94 -3l-4 40q-3 21 -16 21
q-56 2 -85 2v-177q0 -14 9 -18t43 -4q46 0 79 7q13 3 19 18l29 80q56 -8 98 -18l-37 -176q-51 1 -328 1h-137q0 13 0.5 41.5t0.5 42.5zM294 780l-126 -74q-24 27 -39 49l142 114q14 1 45 1l143 -114q-15 -24 -42 -51z" />
    <glyph glyph-name="Edieresis" unicode="&#xcb;" horiz-adv-x="581" 
d="M50 84l52 3q4 0 4 4v470l-57 2q0 59 1 86h132h233q23 0 56.5 0.5t42.5 0.5q6 -87 9 -178q-94 -10 -97 -10l-16 76q-3 15 -20 17q-42 6 -105 6h-10v-189q15 0 44 0.5t43 1.5q11 0 13 19l6 37q34 1 94 -1q-1 -32 -1 -104q-1 -36 -1 -98q-87 -3 -94 -3l-4 40q-3 21 -16 21
q-56 2 -85 2v-177q0 -14 9 -18t43 -4q46 0 79 7q13 3 19 18l29 80q56 -8 98 -18l-37 -176q-51 1 -328 1h-137q0 13 0.5 41.5t0.5 42.5zM187 833h1q28 0 44.5 -17.5t16.5 -40.5q0 -29 -17.5 -46t-46.5 -17q-25 0 -43.5 17.5t-18.5 43.5q0 23 17.5 41.5t46.5 18.5zM392 833h1
q28 0 45.5 -18.5t17.5 -41.5q0 -26 -18.5 -43.5t-43.5 -17.5q-29 0 -46.5 17t-17.5 46q0 23 17 40.5t45 17.5z" />
    <glyph glyph-name="Igrave" unicode="&#xcc;" horiz-adv-x="381" 
d="M105 562l-61 3v85q20 0 74 -0.5t77 -0.5q26 0 77.5 0.5t70.5 0.5q0 -58 -1 -85l-62 -3q-2 0 -2 -5l-3 -468l67 -3q0 -58 -1 -86q-19 0 -71.5 0.5t-79.5 0.5q-22 0 -73 -0.5t-74 -0.5q0 58 1 87l58 2q3 0 3 4v469zM101 885l179 -127q-13 -25 -37 -58l-198 99q32 54 56 86z
" />
    <glyph glyph-name="Iacute" unicode="&#xcd;" horiz-adv-x="381" 
d="M105 562l-61 3v85q20 0 74 -0.5t77 -0.5q26 0 77.5 0.5t70.5 0.5q0 -58 -1 -85l-62 -3q-2 0 -2 -5l-3 -468l67 -3q0 -58 -1 -86q-19 0 -71.5 0.5t-79.5 0.5q-22 0 -73 -0.5t-74 -0.5q0 58 1 87l58 2q3 0 3 4v469zM286 885q24 -32 56 -86l-197 -99q-22 31 -38 58z" />
    <glyph glyph-name="Icircumflex" unicode="&#xce;" horiz-adv-x="381" 
d="M105 562l-61 3v85q20 0 74 -0.5t77 -0.5q26 0 77.5 0.5t70.5 0.5q0 -58 -1 -85l-62 -3q-2 0 -2 -5l-3 -468l67 -3q0 -58 -1 -86q-19 0 -71.5 0.5t-79.5 0.5q-22 0 -73 -0.5t-74 -0.5q0 58 1 87l58 2q3 0 3 4v469zM198 780l-126 -74q-24 27 -39 49l142 114q14 1 45 1
l143 -114q-15 -24 -42 -51z" />
    <glyph glyph-name="Idieresis" unicode="&#xcf;" horiz-adv-x="381" 
d="M105 562l-61 3v85q20 0 74 -0.5t77 -0.5q26 0 77.5 0.5t70.5 0.5q0 -58 -1 -85l-62 -3q-2 0 -2 -5l-3 -468l67 -3q0 -58 -1 -86q-19 0 -71.5 0.5t-79.5 0.5q-22 0 -73 -0.5t-74 -0.5q0 58 1 87l58 2q3 0 3 4v469zM95 833h1q28 0 44.5 -17.5t16.5 -40.5q0 -29 -17.5 -46
t-46.5 -17q-25 0 -43.5 17.5t-18.5 43.5q0 23 17.5 41.5t46.5 18.5zM300 833h1q28 0 45.5 -18.5t17.5 -41.5q0 -26 -18.5 -43.5t-43.5 -17.5q-29 0 -46.5 17t-17.5 46q0 23 17 40.5t45 17.5z" />
    <glyph glyph-name="Eth" unicode="&#xd0;" horiz-adv-x="730" 
d="M124 368l1 193l-58 2q0 57 1 85q111 3 243 3q154 0 237 -49q58 -34 98.5 -103.5t40.5 -145.5q0 -201 -147 -300q-73 -53 -220 -53h-115h-137q0 57 1 84l51 3q4 0 4 4v185h-72q0 10 0.5 29t1 34t1.5 28q23 1 69 1zM294 275l-1 -176q0 -20 24 -20q77 0 123 44q64 63 64 188
q0 77 -16.5 125.5t-52.5 86.5q-46 47 -109 47q-19 0 -30 -4l-2 -197q46 0 122 2q0 -46 -5 -96h-117z" />
    <glyph glyph-name="Ntilde" unicode="&#xd1;" horiz-adv-x="715" 
d="M40 86l49 2q4 1 4 4l-1 470l-58 2q0 58 1 85h192q88 -126 287 -434h5q0 38 -0.5 109t-1 129t-1.5 109l-72 2q0 59 1 85h130q18 0 55.5 0.5t51.5 0.5q0 -57 -2 -85l-44 -3q-3 0 -3 -5l-5 -547q-38 -19 -121 -19q-145 174 -294 395h-7q0 -51 -0.5 -149t-1.5 -148l74 -3
q0 -30 -2 -86q-20 0 -69 0.5t-74 0.5q-17 0 -49 -0.5t-45 -0.5q0 58 1 86zM308 847h1q26 0 74 -25q44 -24 59 -24t26.5 13t12.5 33q19 2 58 0q-3 -57 -27.5 -93.5t-71.5 -36.5q-25 0 -75 27q-39 22 -58 22q-15 0 -26 -12.5t-13 -33.5q-19 -2 -58 0q2 53 29.5 91.5t68.5 38.5
z" />
    <glyph glyph-name="Ograve" unicode="&#xd2;" horiz-adv-x="735" 
d="M351 -10h-1q-65 0 -122 22t-95 60q-90 92 -90 247q0 94 41.5 171t106.5 116q86 54 201 54q97 0 174 -49q58 -37 92.5 -110t34.5 -160q0 -76 -26.5 -147.5t-76.5 -118.5q-92 -85 -239 -85zM372 75h1q54 0 85 40q47 62 47 202q0 121 -41 200q-28 58 -89 58q-57 0 -92 -43
q-51 -63 -51 -202q0 -150 50 -210q36 -45 90 -45zM300 885l179 -127q-13 -25 -37 -58l-198 99q32 54 56 86z" />
    <glyph glyph-name="Oacute" unicode="&#xd3;" horiz-adv-x="735" 
d="M351 -10h-1q-65 0 -122 22t-95 60q-90 92 -90 247q0 94 41.5 171t106.5 116q86 54 201 54q97 0 174 -49q58 -37 92.5 -110t34.5 -160q0 -76 -26.5 -147.5t-76.5 -118.5q-92 -85 -239 -85zM372 75h1q54 0 85 40q47 62 47 202q0 121 -41 200q-28 58 -89 58q-57 0 -92 -43
q-51 -63 -51 -202q0 -150 50 -210q36 -45 90 -45zM480 885q24 -32 56 -86l-197 -99q-22 31 -38 58z" />
    <glyph glyph-name="Ocircumflex" unicode="&#xd4;" horiz-adv-x="735" 
d="M351 -10h-1q-65 0 -122 22t-95 60q-90 92 -90 247q0 94 41.5 171t106.5 116q86 54 201 54q97 0 174 -49q58 -37 92.5 -110t34.5 -160q0 -76 -26.5 -147.5t-76.5 -118.5q-92 -85 -239 -85zM372 75h1q54 0 85 40q47 62 47 202q0 121 -41 200q-28 58 -89 58q-57 0 -92 -43
q-51 -63 -51 -202q0 -150 50 -210q36 -45 90 -45zM385 780l-126 -74q-24 27 -39 49l142 114q14 1 45 1l143 -114q-15 -24 -42 -51z" />
    <glyph glyph-name="Otilde" unicode="&#xd5;" horiz-adv-x="735" 
d="M351 -10h-1q-65 0 -122 22t-95 60q-90 92 -90 247q0 94 41.5 171t106.5 116q86 54 201 54q97 0 174 -49q58 -37 92.5 -110t34.5 -160q0 -76 -26.5 -147.5t-76.5 -118.5q-92 -85 -239 -85zM372 75h1q54 0 85 40q47 62 47 202q0 121 -41 200q-28 58 -89 58q-57 0 -92 -43
q-51 -63 -51 -202q0 -150 50 -210q36 -45 90 -45zM317 847h1q26 0 74 -25q44 -24 59 -24t26.5 13t12.5 33q19 2 58 0q-3 -57 -27.5 -93.5t-71.5 -36.5q-25 0 -75 27q-39 22 -58 22q-15 0 -26 -12.5t-13 -33.5q-19 -2 -58 0q2 53 29.5 91.5t68.5 38.5z" />
    <glyph glyph-name="Odieresis" unicode="&#xd6;" horiz-adv-x="735" 
d="M351 -10h-1q-65 0 -122 22t-95 60q-90 92 -90 247q0 94 41.5 171t106.5 116q86 54 201 54q97 0 174 -49q58 -37 92.5 -110t34.5 -160q0 -76 -26.5 -147.5t-76.5 -118.5q-92 -85 -239 -85zM372 75h1q54 0 85 40q47 62 47 202q0 121 -41 200q-28 58 -89 58q-57 0 -92 -43
q-51 -63 -51 -202q0 -150 50 -210q36 -45 90 -45zM282 833h1q28 0 44.5 -17.5t16.5 -40.5q0 -29 -17.5 -46t-46.5 -17q-25 0 -43.5 17.5t-18.5 43.5q0 23 17.5 41.5t46.5 18.5zM487 833h1q28 0 45.5 -18.5t17.5 -41.5q0 -26 -18.5 -43.5t-43.5 -17.5q-29 0 -46.5 17
t-17.5 46q0 23 17 40.5t45 17.5z" />
    <glyph glyph-name="multiply" unicode="&#xd7;" horiz-adv-x="563" 
d="M346 239l159 -168q-24 -27 -62 -61l-162 164l-164 -164q-38 34 -62 61l161 168l-143 144q17 19 70 70l138 -146l143 150q44 -38 71 -69z" />
    <glyph glyph-name="Oslash" unicode="&#xd8;" horiz-adv-x="735" 
d="M393 660h1q91 0 170 -48l67 75q29 -21 71 -65q-48 -50 -71 -76q28 -37 45.5 -93t17.5 -111q0 -76 -27.5 -148t-77.5 -119q-89 -85 -238 -85q-104 0 -181 51l-88 -91q-22 18 -61 57l88 94q-67 81 -67 221q0 92 41.5 167.5t106.5 116.5q87 54 203 54zM378 575h-1
q-61 0 -96 -42q-61 -72 -61 -227q0 -58 4 -90l117 134l137 157q-12 28 -38.5 48t-61.5 20zM371 75h1q58 0 91 41q54 67 54 214q0 62 -5 93l-121 -140l-131 -141q16 -28 47 -47.5t64 -19.5z" />
    <glyph glyph-name="Ugrave" unicode="&#xd9;" horiz-adv-x="677" 
d="M255 563l-2 -302q-1 -93 36 -137q28 -32 80 -32q46 0 76 35q34 38 34 147q0 203 -2 285q0 2 -4 4l-70 2q0 14 0.5 43t0.5 42q18 0 64 -0.5t69 -0.5q22 0 62 0.5t57 0.5q0 -13 -0.5 -42t-0.5 -43l-48 -3l-2 -272q-1 -159 -74 -232q-66 -68 -181 -68q-131 0 -199 62
q-71 65 -71 206v299q0 6 -5 6l-44 2q0 58 1 85q18 0 66.5 -0.5t71.5 -0.5q27 0 80 0.5t75 0.5q0 -58 -2 -85zM290 885l179 -127q-13 -25 -37 -58l-198 99q32 54 56 86z" />
    <glyph glyph-name="Uacute" unicode="&#xda;" horiz-adv-x="677" 
d="M255 563l-2 -302q-1 -93 36 -137q28 -32 80 -32q46 0 76 35q34 38 34 147q0 203 -2 285q0 2 -4 4l-70 2q0 14 0.5 43t0.5 42q18 0 64 -0.5t69 -0.5q22 0 62 0.5t57 0.5q0 -13 -0.5 -42t-0.5 -43l-48 -3l-2 -272q-1 -159 -74 -232q-66 -68 -181 -68q-131 0 -199 62
q-71 65 -71 206v299q0 6 -5 6l-44 2q0 58 1 85q18 0 66.5 -0.5t71.5 -0.5q27 0 80 0.5t75 0.5q0 -58 -2 -85zM451 885q24 -32 56 -86l-197 -99q-22 31 -38 58z" />
    <glyph glyph-name="Ucircumflex" unicode="&#xdb;" horiz-adv-x="677" 
d="M255 563l-2 -302q-1 -93 36 -137q28 -32 80 -32q46 0 76 35q34 38 34 147q0 203 -2 285q0 2 -4 4l-70 2q0 14 0.5 43t0.5 42q18 0 64 -0.5t69 -0.5q22 0 62 0.5t57 0.5q0 -13 -0.5 -42t-0.5 -43l-48 -3l-2 -272q-1 -159 -74 -232q-66 -68 -181 -68q-131 0 -199 62
q-71 65 -71 206v299q0 6 -5 6l-44 2q0 58 1 85q18 0 66.5 -0.5t71.5 -0.5q27 0 80 0.5t75 0.5q0 -58 -2 -85zM366 780l-126 -74q-24 27 -39 49l142 114q14 1 45 1l143 -114q-15 -24 -42 -51z" />
    <glyph glyph-name="Udieresis" unicode="&#xdc;" horiz-adv-x="677" 
d="M255 563l-2 -302q-1 -93 36 -137q28 -32 80 -32q46 0 76 35q34 38 34 147q0 203 -2 285q0 2 -4 4l-70 2q0 14 0.5 43t0.5 42q18 0 64 -0.5t69 -0.5q22 0 62 0.5t57 0.5q0 -13 -0.5 -42t-0.5 -43l-48 -3l-2 -272q-1 -159 -74 -232q-66 -68 -181 -68q-131 0 -199 62
q-71 65 -71 206v299q0 6 -5 6l-44 2q0 58 1 85q18 0 66.5 -0.5t71.5 -0.5q27 0 80 0.5t75 0.5q0 -58 -2 -85zM263 833h1q28 0 44.5 -17.5t16.5 -40.5q0 -29 -17.5 -46t-46.5 -17q-25 0 -43.5 17.5t-18.5 43.5q0 23 17.5 41.5t46.5 18.5zM468 833h1q28 0 45.5 -18.5
t17.5 -41.5q0 -26 -18.5 -43.5t-43.5 -17.5q-29 0 -46.5 17t-17.5 46q0 23 17 40.5t45 17.5z" />
    <glyph glyph-name="Yacute" unicode="&#xdd;" horiz-adv-x="623" 
d="M154 86l63 3q4 0 4 5v149q-30 50 -168 314q0 5 -5 5l-40 3q0 58 1 84h126q31 0 92 0.5t84 0.5q0 -58 -1 -85l-60 -4q45 -110 96 -220h5q59 109 102 215q1 3 -3 5l-54 2q0 58 1 86h142q17 0 47 0.5t42 0.5q0 -58 -1 -86l-44 -3q-122 -210 -192 -317l-1 -155l74 -3
q0 -30 -2 -86q-20 0 -74 0.5t-82 0.5q-23 0 -76 -0.5t-78 -0.5q0 30 2 86zM443 885q24 -32 56 -86l-197 -99q-22 31 -38 58z" />
    <glyph glyph-name="Thorn" unicode="&#xde;" horiz-adv-x="624" 
d="M105 90l1 472l-55 3q0 57 1 84h155h136q0 -54 -1 -79l-66 -3q-4 0 -4 -4v-45h41q92 0 144 -15q61 -17 97.5 -61.5t36.5 -101.5q0 -59 -33 -105.5t-86 -70.5q-64 -28 -158 -28h-45v-51l82 -3q0 -55 -1 -82h-170h-129q0 14 0.5 42t0.5 41l49 3q4 0 4 4zM271 432l-1 -203
q0 -8 35 -8q52 0 81 22q33 27 33 89q-1 44 -30 73.5t-76 29.5q-27 0 -42 -3z" />
    <glyph glyph-name="germandbls" unicode="&#xdf;" horiz-adv-x="688" 
d="M18 434l60 2q6 0 6 8q1 70 23 114t75 77q92 57 195 57q77 0 129 -43q66 -55 56 -166q-4 -3 -29.5 -20.5t-37.5 -27.5q-32 -28 -32 -55q1 -19 15 -30t54 -28q7 -2 10 -4q64 -23 91 -58t27 -86q0 -96 -80 -148q-56 -36 -154 -36q-51 0 -101 11q-3 21 -17 137q47 11 82 16
l16 -58q1 -5 8 -10q16 -9 35 -9q20 0 35 11q19 14 19 44q0 24 -14 37t-68 35q-96 39 -96 131q0 11 2.5 21t5.5 17.5t10 17.5l10.5 15t12 15t11.5 13l12 14l12 14t9 12q5 67 -32 100q-26 21 -56 21q-33 0 -52 -20q-13 -14 -17.5 -41t-5.5 -92q0 -47 -0.5 -176.5t-0.5 -180.5
l15 -2q0 -54 -1 -82h-96q-21 0 -66.5 -0.5t-64.5 -0.5q0 55 1 82l49 3q4 0 4 5q0 173 -1 256h-69q0 15 0.5 45t0.5 43z" />
    <glyph glyph-name="agrave" unicode="&#xe0;" horiz-adv-x="522" 
d="M302 34h-5q-88 -44 -146 -44q-42 0 -85.5 36t-43.5 81q0 51 59 101t166 50h48q5 79 -61 79q-43 0 -126 -56q-21 25 -52 71q121 99 242 99q59 0 106 -44t47 -106q0 -118 -2 -204q0 -5 0.5 -6.5t4.5 -0.5l53 2v-26v-30.5v-25.5q-16 -6 -65 -13t-102 -7q-11 10 -38 44z
M181 125v-1q0 -16 15 -27t31 -11q30 0 67 22q2 2 2 6v69q-6 1 -21 1q-46 0 -70 -17t-24 -42zM208 693l151 -151q-20 -24 -47 -51q-126 96 -170 127q29 37 66 75z" />
    <glyph glyph-name="aacute" unicode="&#xe1;" horiz-adv-x="522" 
d="M302 34h-5q-88 -44 -146 -44q-42 0 -85.5 36t-43.5 81q0 51 59 101t166 50h48q5 79 -61 79q-43 0 -126 -56q-21 25 -52 71q121 99 242 99q59 0 106 -44t47 -106q0 -118 -2 -204q0 -5 0.5 -6.5t4.5 -0.5l53 2v-26v-30.5v-25.5q-16 -6 -65 -13t-102 -7q-11 10 -38 44z
M181 125v-1q0 -16 15 -27t31 -11q30 0 67 22q2 2 2 6v69q-6 1 -21 1q-46 0 -70 -17t-24 -42zM363 694q32 -31 67 -76l-179 -127l-45 52z" />
    <glyph glyph-name="acircumflex" unicode="&#xe2;" horiz-adv-x="522" 
d="M302 34h-5q-88 -44 -146 -44q-42 0 -85.5 36t-43.5 81q0 51 59 101t166 50h48q5 79 -61 79q-43 0 -126 -56q-21 25 -52 71q121 99 242 99q59 0 106 -44t47 -106q0 -118 -2 -204q0 -5 0.5 -6.5t4.5 -0.5l53 2v-26v-30.5v-25.5q-16 -6 -65 -13t-102 -7q-11 10 -38 44z
M181 125v-1q0 -16 15 -27t31 -11q30 0 67 22q2 2 2 6v69q-6 1 -21 1q-46 0 -70 -17t-24 -42zM276 589l-103 -96q-28 21 -50 43l121 140q20 1 64 1l122 -142q-24 -26 -47 -43z" />
    <glyph glyph-name="atilde" unicode="&#xe3;" horiz-adv-x="522" 
d="M302 34h-5q-88 -44 -146 -44q-42 0 -85.5 36t-43.5 81q0 51 59 101t166 50h48q5 79 -61 79q-43 0 -126 -56q-21 25 -52 71q121 99 242 99q59 0 106 -44t47 -106q0 -118 -2 -204q0 -5 0.5 -6.5t4.5 -0.5l53 2v-26v-30.5v-25.5q-16 -6 -65 -13t-102 -7q-11 10 -38 44z
M181 125v-1q0 -16 15 -27t31 -11q30 0 67 22q2 2 2 6v69q-6 1 -21 1q-46 0 -70 -17t-24 -42zM201 642h1q7 0 15 -2t13 -3.5t14 -6.5t11.5 -6.5t13 -8.5t11.5 -8q35 -21 52 -21q29 0 36 50q30 2 56 0q-4 -59 -28 -95t-67 -36q-21 0 -69 31q-5 3 -15.5 10t-15 9.5t-12.5 5
t-15 2.5q-31 0 -39 -52h-19h-21.5h-16.5q6 59 29.5 95t65.5 36z" />
    <glyph glyph-name="adieresis" unicode="&#xe4;" horiz-adv-x="522" 
d="M302 34h-5q-88 -44 -146 -44q-42 0 -85.5 36t-43.5 81q0 51 59 101t166 50h48q5 79 -61 79q-43 0 -126 -56q-21 25 -52 71q121 99 242 99q59 0 106 -44t47 -106q0 -118 -2 -204q0 -5 0.5 -6.5t4.5 -0.5l53 2v-26v-30.5v-25.5q-16 -6 -65 -13t-102 -7q-11 10 -38 44z
M181 125v-1q0 -16 15 -27t31 -11q30 0 67 22q2 2 2 6v69q-6 1 -21 1q-46 0 -70 -17t-24 -42zM175 631h1q27 0 43.5 -17t16.5 -40q0 -28 -17 -45.5t-46 -17.5q-25 0 -43 17.5t-18 43.5q0 23 17.5 41t45.5 18zM363 631h1q28 0 45 -18t17 -41q0 -26 -18.5 -43.5t-42.5 -17.5
q-29 0 -46 17t-17 46q0 23 16.5 40t44.5 17z" />
    <glyph glyph-name="aring" unicode="&#xe5;" horiz-adv-x="522" 
d="M302 34h-5q-88 -44 -146 -44q-42 0 -85.5 36t-43.5 81q0 51 59 101t166 50h48q5 79 -61 79q-43 0 -126 -56q-21 25 -52 71q121 99 242 99q59 0 106 -44t47 -106q0 -118 -2 -204q0 -5 0.5 -6.5t4.5 -0.5l53 2v-26v-30.5v-25.5q-16 -6 -65 -13t-102 -7q-11 10 -38 44z
M181 125v-1q0 -16 15 -27t31 -11q30 0 67 22q2 2 2 6v69q-6 1 -21 1q-46 0 -70 -17t-24 -42zM280 706h1q52 0 85 -27t33 -71q0 -45 -35 -74.5t-86 -29.5t-85.5 27.5t-34.5 74.5q0 39 35.5 69.5t86.5 30.5zM280 655h-1q-21 0 -34.5 -13.5t-13.5 -35.5q0 -23 14 -37t35 -14
q22 0 34.5 14t12.5 38q0 48 -47 48z" />
    <glyph glyph-name="ae" unicode="&#xe6;" horiz-adv-x="760" 
d="M344 50h-8q-45 -28 -96.5 -44t-88.5 -16q-41 0 -85 35t-44 81q0 51 59 101.5t166 50.5h46q0 80 -58 80q-42 0 -126 -56q-25 30 -53 71q119 98 223 98q76 0 108 -73h6q51 73 153 73q85 0 132 -52q52 -62 52 -156q-1 -10 -24 -33.5t-30 -24.5q-44 -5 -219 -3q3 -42 27 -66
q25 -24 77 -24q64 0 139 28q12 -42 19 -83q-42 -20 -99 -33.5t-95 -13.5q-114 0 -181 60zM524 367h-1q-28 0 -47 -26q-19 -27 -19 -80q56 0 114 2q9 0 9 12q0 37 -12 61q-16 31 -44 31zM233 83h1q18 0 40 8.5t32 17.5q3 5 2 8q-8 21 -13 66q-4 1 -16 1q-48 0 -72.5 -16.5
t-24.5 -43.5q0 -17 15.5 -29t35.5 -12z" />
    <glyph glyph-name="ccedilla" unicode="&#xe7;" horiz-adv-x="441" 
d="M149 -76l80 67h-5q-28 0 -60 11.5t-62.5 34t-51 62.5t-20.5 91q0 110 80 185.5t209 75.5q70 0 111 -24q0 -24 -18 -64t-33 -48q-2 1 -12 5l-19.5 8t-22 8t-26 6.5t-24.5 2.5q-37 0 -55 -31q-21 -35 -21 -102q0 -60 31 -96q20 -24 68 -24q51 0 115 23q15 -55 19 -80
q-50 -26 -110 -36l-79 -68q30 -5 50 -26t20 -52q0 -47 -43.5 -77t-125.5 -30q-4 25 -6 57q84 5 84 43q0 19 -12 31q-14 15 -49 12q-2 5 -6 17.5t-6 17.5z" />
    <glyph glyph-name="egrave" unicode="&#xe8;" horiz-adv-x="499" 
d="M30 196v1q0 108 70.5 181t181.5 73q89 0 136 -54q51 -61 51 -155q-1 -10 -24 -33.5t-30 -24.5q-27 -3 -218 -3q3 -42 27 -65q25 -24 74 -24q62 0 141 27q12 -40 19 -82q-43 -20 -100 -33.5t-94 -13.5q-105 0 -169.5 52t-64.5 154zM263 367h-1q-30 0 -47 -27
q-19 -32 -18 -79q55 0 113 2q9 0 9 11q0 39 -12 63q-13 30 -44 30zM225 693l151 -151q-20 -24 -47 -51q-126 96 -170 127q29 37 66 75z" />
    <glyph glyph-name="eacute" unicode="&#xe9;" horiz-adv-x="499" 
d="M30 196v1q0 108 70.5 181t181.5 73q89 0 136 -54q51 -61 51 -155q-1 -10 -24 -33.5t-30 -24.5q-27 -3 -218 -3q3 -42 27 -65q25 -24 74 -24q62 0 141 27q12 -40 19 -82q-43 -20 -100 -33.5t-94 -13.5q-105 0 -169.5 52t-64.5 154zM263 367h-1q-30 0 -47 -27
q-19 -32 -18 -79q55 0 113 2q9 0 9 11q0 39 -12 63q-13 30 -44 30zM343 694q32 -31 67 -76l-179 -127l-45 52z" />
    <glyph glyph-name="ecircumflex" unicode="&#xea;" horiz-adv-x="499" 
d="M30 196v1q0 108 70.5 181t181.5 73q89 0 136 -54q51 -61 51 -155q-1 -10 -24 -33.5t-30 -24.5q-27 -3 -218 -3q3 -42 27 -65q25 -24 74 -24q62 0 141 27q12 -40 19 -82q-43 -20 -100 -33.5t-94 -13.5q-105 0 -169.5 52t-64.5 154zM263 367h-1q-30 0 -47 -27
q-19 -32 -18 -79q55 0 113 2q9 0 9 11q0 39 -12 63q-13 30 -44 30zM280 589l-103 -96q-28 21 -50 43l121 140q20 1 64 1l122 -142q-24 -26 -47 -43z" />
    <glyph glyph-name="edieresis" unicode="&#xeb;" horiz-adv-x="499" 
d="M30 196v1q0 108 70.5 181t181.5 73q89 0 136 -54q51 -61 51 -155q-1 -10 -24 -33.5t-30 -24.5q-27 -3 -218 -3q3 -42 27 -65q25 -24 74 -24q62 0 141 27q12 -40 19 -82q-43 -20 -100 -33.5t-94 -13.5q-105 0 -169.5 52t-64.5 154zM263 367h-1q-30 0 -47 -27
q-19 -32 -18 -79q55 0 113 2q9 0 9 11q0 39 -12 63q-13 30 -44 30zM183 631h1q27 0 43.5 -17t16.5 -40q0 -28 -17 -45.5t-46 -17.5q-25 0 -43 17.5t-18 43.5q0 23 17.5 41t45.5 18zM371 631h1q28 0 45 -18t17 -41q0 -26 -18.5 -43.5t-42.5 -17.5q-29 0 -46 17t-17 46
q0 23 16.5 40t44.5 17z" />
    <glyph glyph-name="igrave" unicode="&#xec;" horiz-adv-x="319" 
d="M85 336l-64 2q0 32 2 86q23 2 77.5 8.5t99 12.5t47.5 6q2 0 2 -3q-3 -327 -3 -362l55 -3v-82h-138q-22 0 -69 -0.5t-67 -0.5q0 56 1 82l53 3q4 0 4 4v247zM101 693l151 -151q-20 -24 -47 -51q-126 96 -170 127q29 37 66 75z" />
    <glyph glyph-name="iacute" unicode="&#xed;" horiz-adv-x="319" 
d="M85 336l-64 2q0 32 2 86q23 2 77.5 8.5t99 12.5t47.5 6q2 0 2 -3q-3 -327 -3 -362l55 -3v-82h-138q-22 0 -69 -0.5t-67 -0.5q0 56 1 82l53 3q4 0 4 4v247zM229 694q32 -31 67 -76l-179 -127l-45 52z" />
    <glyph glyph-name="icircumflex" unicode="&#xee;" horiz-adv-x="319" 
d="M85 336l-64 2q0 32 2 86q23 2 77.5 8.5t99 12.5t47.5 6q2 0 2 -3q-3 -327 -3 -362l55 -3v-82h-138q-22 0 -69 -0.5t-67 -0.5q0 56 1 82l53 3q4 0 4 4v247zM166 589l-103 -96q-28 21 -50 43l121 140q20 1 64 1l122 -142q-24 -26 -47 -43z" />
    <glyph glyph-name="idieresis" unicode="&#xef;" horiz-adv-x="319" 
d="M85 336l-64 2q0 32 2 86q23 2 77.5 8.5t99 12.5t47.5 6q2 0 2 -3q-3 -327 -3 -362l55 -3v-82h-138q-22 0 -69 -0.5t-67 -0.5q0 56 1 82l53 3q4 0 4 4v247zM65 631h1q27 0 43.5 -17t16.5 -40q0 -28 -17 -45.5t-46 -17.5q-25 0 -43 17.5t-18 43.5q0 23 17.5 41t45.5 18z
M253 631h1q28 0 45 -18t17 -41q0 -26 -18.5 -43.5t-42.5 -17.5q-29 0 -46 17t-17 46q0 23 16.5 40t44.5 17z" />
    <glyph glyph-name="eth" unicode="&#xf0;" horiz-adv-x="541" 
d="M326 417l6 4q-23 72 -66 119l-94 -70q-18 20 -42 53l77 59q-38 29 -122 44q6 36 17 76q104 -3 192 -47l101 77q26 -30 44 -57l-80 -59q63 -47 104.5 -133t41.5 -178q0 -176 -90 -258q-60 -57 -164 -57q-84 0 -135 36q-86 60 -86 170q0 111 79 183q60 54 144 54
q53 0 73 -16zM267 66h1q26 0 45 26q27 42 27 144q0 83 -14 98q-17 20 -56 20q-34 0 -50 -29q-20 -39 -20 -109q0 -93 24 -127q17 -23 43 -23z" />
    <glyph glyph-name="ntilde" unicode="&#xf1;" horiz-adv-x="609" 
d="M85 336l-63 3q0 14 0.5 41.5t0.5 40.5q22 1 71.5 8.5l90 14t42.5 6.5t2 -3q3 -10 7 -31t7 -31l5 -1q72 44 101 55.5t64 11.5q30 0 58.5 -22t45.5 -51q23 -38 23 -89q0 -77 -4 -203l50 -3q0 -56 -1 -82h-129q-22 0 -65 -0.5t-60 -0.5q0 13 0.5 41t0.5 41l40 3q4 0 4 4v135
q0 71 -8 86q-12 21 -38 21q-37 0 -80 -34q-3 -177 -3 -211l43 -3q0 -56 -1 -82h-125q-21 0 -67.5 -0.5t-65.5 -0.5q0 13 0.5 41t0.5 41l49 3q4 0 4 4v247zM247 642h1q7 0 15 -2t13 -3.5t14 -6.5t11.5 -6.5t13 -8.5t11.5 -8q35 -21 52 -21q29 0 36 50q30 2 56 0
q-4 -59 -28 -95t-67 -36q-21 0 -69 31q-5 3 -15.5 10t-15 9.5t-12.5 5t-15 2.5q-31 0 -39 -52h-19h-21.5h-16.5q6 59 29.5 95t65.5 36z" />
    <glyph glyph-name="ograve" unicode="&#xf2;" horiz-adv-x="546" 
d="M263 -10h-1q-103 0 -158 48q-74 63 -74 170q0 124 96 195q65 48 162 48q78 0 137 -37q91 -58 91 -185q0 -64 -30.5 -117.5t-77.5 -83.5q-58 -38 -145 -38zM274 68h1q29 0 44 23q23 33 23 135q0 74 -18 115q-15 31 -47 31q-29 0 -45 -24q-27 -38 -27 -124q0 -95 24 -129
q16 -27 45 -27zM225 693l151 -151q-20 -24 -47 -51q-126 96 -170 127q29 37 66 75z" />
    <glyph glyph-name="oacute" unicode="&#xf3;" horiz-adv-x="546" 
d="M263 -10h-1q-103 0 -158 48q-74 63 -74 170q0 124 96 195q65 48 162 48q78 0 137 -37q91 -58 91 -185q0 -64 -30.5 -117.5t-77.5 -83.5q-58 -38 -145 -38zM274 68h1q29 0 44 23q23 33 23 135q0 74 -18 115q-15 31 -47 31q-29 0 -45 -24q-27 -38 -27 -124q0 -95 24 -129
q16 -27 45 -27zM343 694q32 -31 67 -76l-179 -127l-45 52z" />
    <glyph glyph-name="ocircumflex" unicode="&#xf4;" horiz-adv-x="546" 
d="M263 -10h-1q-103 0 -158 48q-74 63 -74 170q0 124 96 195q65 48 162 48q78 0 137 -37q91 -58 91 -185q0 -64 -30.5 -117.5t-77.5 -83.5q-58 -38 -145 -38zM274 68h1q29 0 44 23q23 33 23 135q0 74 -18 115q-15 31 -47 31q-29 0 -45 -24q-27 -38 -27 -124q0 -95 24 -129
q16 -27 45 -27zM283 589l-103 -96q-28 21 -50 43l121 140q20 1 64 1l122 -142q-24 -26 -47 -43z" />
    <glyph glyph-name="otilde" unicode="&#xf5;" horiz-adv-x="546" 
d="M263 -10h-1q-103 0 -158 48q-74 63 -74 170q0 124 96 195q65 48 162 48q78 0 137 -37q91 -58 91 -185q0 -64 -30.5 -117.5t-77.5 -83.5q-58 -38 -145 -38zM274 68h1q29 0 44 23q23 33 23 135q0 74 -18 115q-15 31 -47 31q-29 0 -45 -24q-27 -38 -27 -124q0 -95 24 -129
q16 -27 45 -27zM222 642h1q7 0 15 -2t13 -3.5t14 -6.5t11.5 -6.5t13 -8.5t11.5 -8q35 -21 52 -21q29 0 36 50q30 2 56 0q-4 -59 -28 -95t-67 -36q-21 0 -69 31q-5 3 -15.5 10t-15 9.5t-12.5 5t-15 2.5q-31 0 -39 -52h-19h-21.5h-16.5q6 59 29.5 95t65.5 36z" />
    <glyph glyph-name="odieresis" unicode="&#xf6;" horiz-adv-x="546" 
d="M263 -10h-1q-103 0 -158 48q-74 63 -74 170q0 124 96 195q65 48 162 48q78 0 137 -37q91 -58 91 -185q0 -64 -30.5 -117.5t-77.5 -83.5q-58 -38 -145 -38zM274 68h1q29 0 44 23q23 33 23 135q0 74 -18 115q-15 31 -47 31q-29 0 -45 -24q-27 -38 -27 -124q0 -95 24 -129
q16 -27 45 -27zM189 631h1q27 0 43.5 -17t16.5 -40q0 -28 -17 -45.5t-46 -17.5q-25 0 -43 17.5t-18 43.5q0 23 17.5 41t45.5 18zM377 631h1q28 0 45 -18t17 -41q0 -26 -18.5 -43.5t-42.5 -17.5q-29 0 -46 17t-17 46q0 23 16.5 40t44.5 17z" />
    <glyph glyph-name="divide" unicode="&#xf7;" horiz-adv-x="563" 
d="M214 421v1q0 32 20.5 52t50.5 20q29 0 48 -20t19 -51q0 -33 -19.5 -53.5t-52.5 -20.5q-26 0 -46 20t-20 52zM500 194l-438 1q0 2 3 89q65 0 243.5 2t194.5 2q0 -50 -3 -94zM213 61v1q0 30 21 50.5t49 20.5q30 0 49 -20.5t19 -54.5q0 -31 -18.5 -50.5t-48.5 -19.5
t-50.5 19.5t-20.5 53.5z" />
    <glyph glyph-name="oslash" unicode="&#xf8;" horiz-adv-x="546" 
d="M289 451h1q59 0 109 -23l58 68q27 -20 68 -59l-57 -62q21 -23 34.5 -62.5t13.5 -82.5q0 -64 -30 -118t-77 -84q-58 -38 -145 -38q-70 0 -117 22l-76 -79q-28 25 -56 55q36 38 66 73q-51 55 -51 146q0 58 24.5 108t64.5 82q69 54 170 54zM279 372h-1q-34 0 -53 -26
q-35 -51 -35 -127q0 -31 2 -47l138 167q-15 33 -51 33zM278 68h1q31 0 47 24q32 44 32 127q0 12 -2 42l-135 -162q20 -31 57 -31z" />
    <glyph glyph-name="ugrave" unicode="&#xf9;" horiz-adv-x="569" 
d="M346 40h-5q-59 -33 -84.5 -41.5t-57.5 -8.5q-45 0 -90.5 47.5t-45.5 93.5q0 39 0.5 114t0.5 106l-44 2q0 14 0.5 41.5t0.5 40.5q22 1 109 4t94 3q3 0 3 -4q-3 -210 -3 -231q0 -66 12 -85q13 -21 39 -21q31 0 60 21v228l-49 2q0 31 2 85q148 4 210 4q2 0 2 -4
q-3 -318 -3 -341q0 -6 4 -6l56 2q0 -13 -0.5 -41t-0.5 -42q-9 -5 -64 -12t-100 -7q-22 16 -46 50zM221 693l151 -151q-20 -24 -47 -51q-126 96 -170 127q29 37 66 75z" />
    <glyph glyph-name="uacute" unicode="&#xfa;" horiz-adv-x="569" 
d="M346 40h-5q-59 -33 -84.5 -41.5t-57.5 -8.5q-45 0 -90.5 47.5t-45.5 93.5q0 39 0.5 114t0.5 106l-44 2q0 14 0.5 41.5t0.5 40.5q22 1 109 4t94 3q3 0 3 -4q-3 -210 -3 -231q0 -66 12 -85q13 -21 39 -21q31 0 60 21v228l-49 2q0 31 2 85q148 4 210 4q2 0 2 -4
q-3 -318 -3 -341q0 -6 4 -6l56 2q0 -13 -0.5 -41t-0.5 -42q-9 -5 -64 -12t-100 -7q-22 16 -46 50zM356 694q32 -31 67 -76l-179 -127l-45 52z" />
    <glyph glyph-name="ucircumflex" unicode="&#xfb;" horiz-adv-x="569" 
d="M346 40h-5q-59 -33 -84.5 -41.5t-57.5 -8.5q-45 0 -90.5 47.5t-45.5 93.5q0 39 0.5 114t0.5 106l-44 2q0 14 0.5 41.5t0.5 40.5q22 1 109 4t94 3q3 0 3 -4q-3 -210 -3 -231q0 -66 12 -85q13 -21 39 -21q31 0 60 21v228l-49 2q0 31 2 85q148 4 210 4q2 0 2 -4
q-3 -318 -3 -341q0 -6 4 -6l56 2q0 -13 -0.5 -41t-0.5 -42q-9 -5 -64 -12t-100 -7q-22 16 -46 50zM282 589l-103 -96q-28 21 -50 43l121 140q20 1 64 1l122 -142q-24 -26 -47 -43z" />
    <glyph glyph-name="udieresis" unicode="&#xfc;" horiz-adv-x="569" 
d="M346 40h-5q-59 -33 -84.5 -41.5t-57.5 -8.5q-45 0 -90.5 47.5t-45.5 93.5q0 39 0.5 114t0.5 106l-44 2q0 14 0.5 41.5t0.5 40.5q22 1 109 4t94 3q3 0 3 -4q-3 -210 -3 -231q0 -66 12 -85q13 -21 39 -21q31 0 60 21v228l-49 2q0 31 2 85q148 4 210 4q2 0 2 -4
q-3 -318 -3 -341q0 -6 4 -6l56 2q0 -13 -0.5 -41t-0.5 -42q-9 -5 -64 -12t-100 -7q-22 16 -46 50zM182 631h1q27 0 43.5 -17t16.5 -40q0 -28 -17.5 -45.5t-45.5 -17.5q-25 0 -43 17.5t-18 43.5q0 23 17.5 41t45.5 18zM370 631h1q28 0 45 -18t17 -41q0 -26 -18.5 -43.5
t-42.5 -17.5q-29 0 -46 17t-17 46q0 23 16.5 40t44.5 17z" />
    <glyph glyph-name="yacute" unicode="&#xfd;" horiz-adv-x="514" 
d="M514 357l-36 -3l-84 -212q-85 -207 -148 -306q-50 -79 -77 -94q-25 0 -72.5 32.5t-47.5 51.5q39 22 72 53q56 51 74 96l-83 209l-63 166q-1 3 -6 3l-38 2q0 34 2 86h118h143q0 -58 -1 -85l-46 -2l32 -104q5 -17 11.5 -35.5l15 -42t13.5 -39.5h6q21 66 30 106
q20 84 25 109q0 5 -4 5l-34 2q0 59 1 85h114q14 0 43.5 0.5t41.5 0.5q0 -32 -2 -84zM365 694q32 -31 67 -76l-179 -127l-45 52z" />
    <glyph glyph-name="thorn" unicode="&#xfe;" horiz-adv-x="563" 
d="M226 394l5 -1q65 37 92.5 47.5t60.5 10.5q60 0 104.5 -59t44.5 -137q0 -73 -28 -136q-23 -50 -79 -96q-16 -13 -46.5 -23t-60.5 -10q-53 0 -89 14l-6 -2v-155l83 -3q0 -30 -2 -82q-108 0 -161 -1q-92 0 -132 -1q0 55 1 82l48 4q4 0 4 5v676l-66 2q1 26 1 83q21 2 78 9
l101 12.5t48 5.5q3 0 3 -3q0 -30 -0.5 -74.5t-2 -96t-1.5 -71.5zM362 216v1q0 67 -15 92q-17 25 -41 25q-34 0 -77 -27q-2 -114 -2 -192q0 -14 21.5 -24.5t40.5 -10.5q33 0 50 25q23 39 23 111z" />
    <glyph glyph-name="ydieresis" unicode="&#xff;" horiz-adv-x="514" 
d="M514 357l-36 -3l-84 -212q-85 -207 -148 -306q-50 -79 -77 -94q-25 0 -72.5 32.5t-47.5 51.5q39 22 72 53q56 51 74 96l-83 209l-63 166q-1 3 -6 3l-38 2q0 34 2 86h118h143q0 -58 -1 -85l-46 -2l32 -104q5 -17 11.5 -35.5l15 -42t13.5 -39.5h6q21 66 30 106
q20 84 25 109q0 5 -4 5l-34 2q0 59 1 85h114q14 0 43.5 0.5t41.5 0.5q0 -32 -2 -84zM182 631h1q27 0 43.5 -17t16.5 -40q0 -28 -17.5 -45.5t-45.5 -17.5q-25 0 -43 17.5t-18 43.5q0 23 17.5 41t45.5 18zM370 631h1q28 0 45 -18t17 -41q0 -26 -18.5 -43.5t-42.5 -17.5
q-29 0 -46 17t-17 46q0 23 16.5 40t44.5 17z" />
    <glyph glyph-name="Amacron" unicode="&#x100;" horiz-adv-x="638" 
d="M-8 84l46 3q4 0 6 5l209 561q27 3 138 3l191 -569l51 -3q0 -56 -1 -84h-120h-161q0 57 1 85l49 2q5 2 4 6l-20 62q-3 5 -7 5l-186 -2q-2 -11 -8.5 -36t-8.5 -35l55 -3q0 -56 -1 -84h-140h-98q0 57 1 84zM292 470h-6l-68 -221q-2 -6 2 -6h140zM450 807q2 -37 0 -74
q-40 0 -131.5 0.5t-138.5 0.5q-3 30 -1 71q85 0 271 2z" />
    <glyph glyph-name="amacron" unicode="&#x101;" horiz-adv-x="522" 
d="M302 34h-5q-88 -44 -146 -44q-42 0 -85.5 36t-43.5 81q0 51 59 101t166 50h48q5 79 -61 79q-43 0 -126 -56q-21 25 -52 71q121 99 242 99q59 0 106 -44t47 -106q0 -118 -2 -204q0 -5 0.5 -6.5t4.5 -0.5l53 2v-26v-30.5v-25.5q-16 -6 -65 -13t-102 -7q-11 10 -38 44z
M181 125v-1q0 -16 15 -27t31 -11q30 0 67 22q2 2 2 6v69q-6 1 -21 1q-46 0 -70 -17t-24 -42zM381 598q2 -37 0 -73q-34 0 -115.5 0.5t-122.5 0.5q-3 29 -1 70q162 2 239 2z" />
    <glyph glyph-name="Abreve" unicode="&#x102;" horiz-adv-x="638" 
d="M-8 84l46 3q4 0 6 5l209 561q27 3 138 3l191 -569l51 -3q0 -56 -1 -84h-120h-161q0 57 1 85l49 2q5 2 4 6l-20 62q-3 5 -7 5l-186 -2q-2 -11 -8.5 -36t-8.5 -35l55 -3q0 -56 -1 -84h-140h-98q0 57 1 84zM292 470h-6l-68 -221q-2 -6 2 -6h140zM313 734h-1q-59 0 -104.5 35
t-52.5 86q39 12 65 16q8 -28 36.5 -45t58.5 -17q31 0 58 18t33 41q35 -3 66 -12q-8 -49 -53.5 -85.5t-105.5 -36.5z" />
    <glyph glyph-name="abreve" unicode="&#x103;" horiz-adv-x="522" 
d="M302 34h-5q-88 -44 -146 -44q-42 0 -85.5 36t-43.5 81q0 51 59 101t166 50h48q5 79 -61 79q-43 0 -126 -56q-21 25 -52 71q121 99 242 99q59 0 106 -44t47 -106q0 -118 -2 -204q0 -5 0.5 -6.5t4.5 -0.5l53 2v-26v-30.5v-25.5q-16 -6 -65 -13t-102 -7q-11 10 -38 44z
M181 125v-1q0 -16 15 -27t31 -11q30 0 67 22q2 2 2 6v69q-6 1 -21 1q-46 0 -70 -17t-24 -42zM261 508h-1q-55 0 -95.5 34.5t-46.5 85.5q36 12 65 16q7 -28 29.5 -44.5t50.5 -16.5q29 0 49.5 17t26.5 41q35 -3 66 -11q-6 -49 -47 -85.5t-97 -36.5z" />
    <glyph glyph-name="Aogonek" unicode="&#x104;" horiz-adv-x="638" 
d="M291 470h-5l-68 -221q-2 -6 2 -6h139zM301 -135v1q0 35 28.5 71.5t82.5 62.5h-61q0 57 1 85l49 2q5 2 4 6l-20 62q-3 5 -7 5l-186 -2q-2 -11 -8.5 -36t-8.5 -35l55 -3q0 -56 -1 -84h-140h-98q0 57 1 84l46 3q4 0 6 5l209 561q62 3 138 3l191 -569l51 -3q0 -56 -1 -84
h-120h-49q-65 -55 -65 -116q0 -25 17 -39t38 -14q20 0 45 9q11 -42 13 -53q-36 -20 -83 -20q-52 0 -89.5 25.5t-37.5 72.5z" />
    <glyph glyph-name="aogonek" unicode="&#x105;" horiz-adv-x="522" 
d="M181 125v-1q0 -16 15 -27t31 -11q30 0 67 22q2 2 2 6v69q-6 1 -21 1q-46 0 -70 -17t-24 -42zM235 -137v1q0 32 27 67t78 59q-11 10 -38 44h-5q-88 -44 -146 -44q-42 0 -85.5 36t-43.5 81q0 51 59 101t166 50h48q5 79 -61 79q-43 0 -126 -56q-21 25 -52 71q121 99 242 99
q59 0 106 -44t47 -106q0 -88 -2 -204q0 -5 0.5 -6.5t4.5 -0.5l53 2v-26v-30.5v-25.5q-4 -2 -49 -9t-72 -16q-60 -35 -60 -104q0 -26 15.5 -38.5t38.5 -12.5q16 0 42 8q11 -40 13 -50q-35 -19 -78 -19q-49 0 -85.5 24.5t-36.5 69.5z" />
    <glyph glyph-name="Cacute" unicode="&#x106;" horiz-adv-x="611" 
d="M43 285v1q0 188 139 295q99 80 245 80q92 0 132 -15q9 -91 16 -204q-34 -6 -106 -14l-23 104q-2 9 -7 12q-16 13 -46 13q-56 0 -96 -41q-68 -71 -68 -197t58 -178q44 -41 117 -41q33 0 81.5 9t74.5 19q9 -39 17 -94q-48 -18 -108.5 -31t-98.5 -13q-133 0 -214 59
q-50 36 -81.5 98.5t-31.5 137.5zM467 892q24 -32 56 -86l-197 -99q-22 31 -38 58z" />
    <glyph glyph-name="cacute" unicode="&#x107;" horiz-adv-x="441" 
d="M30 190v1q0 109 80 184.5t209 75.5q70 0 111 -24q0 -24 -18 -64t-33 -48q-2 1 -12 5l-19.5 8t-22 8t-26 6.5t-24.5 2.5q-37 0 -55 -31q-21 -35 -21 -102q0 -60 31 -96q20 -24 68 -24t115 27q15 -55 19 -80q-45 -24 -97 -36.5t-88 -12.5q-94 0 -155.5 54.5t-61.5 145.5z
M363 694q32 -31 67 -76l-179 -127l-45 52z" />
    <glyph glyph-name="Ccaron" unicode="&#x10c;" horiz-adv-x="611" 
d="M43 285v1q0 188 139 295q99 80 245 80q92 0 132 -15q9 -91 16 -204q-34 -6 -106 -14l-23 104q-2 9 -7 12q-16 13 -46 13q-56 0 -96 -41q-68 -71 -68 -197t58 -178q44 -41 117 -41q33 0 81.5 9t74.5 19q9 -39 17 -94q-48 -18 -108.5 -31t-98.5 -13q-133 0 -214 59
q-50 36 -81.5 98.5t-31.5 137.5zM362 802l123 75q22 -22 41 -52l-143 -114q-31 0 -44 1l-142 115q16 22 39 49z" />
    <glyph glyph-name="ccaron" unicode="&#x10d;" horiz-adv-x="441" 
d="M30 190v1q0 109 80 184.5t209 75.5q70 0 111 -24q0 -24 -18 -64t-33 -48q-2 1 -12 5l-19.5 8t-22 8t-26 6.5t-24.5 2.5q-37 0 -55 -31q-21 -35 -21 -102q0 -60 31 -96q20 -24 68 -24t115 27q15 -55 19 -80q-45 -24 -97 -36.5t-88 -12.5q-94 0 -155.5 54.5t-61.5 145.5z
M277 590l106 98q25 -19 47 -44l-122 -141q-21 -1 -64 1l-121 140q22 22 50 43z" />
    <glyph glyph-name="Dcaron" unicode="&#x10e;" horiz-adv-x="711" 
d="M50 84l52 3q3 0 3 4l1 470l-58 2q0 15 0.5 43t0.5 42q111 3 245 3q144 0 225 -44q65 -36 107 -106t42 -149q0 -101 -41 -178.5t-106 -120.5q-77 -53 -218 -53h-117h-136v84zM278 566l-3 -466q0 -21 25 -21q71 0 120 44q32 29 48 82t16 107q0 78 -17 128t-57 88
q-43 42 -102 42q-21 0 -30 -4zM292 802l123 75q22 -22 41 -52l-143 -114q-31 0 -44 1l-142 115q16 22 39 49z" />
    <glyph glyph-name="dcaron" unicode="&#x10f;" horiz-adv-x="689" 
d="M350 35h-7q-95 -45 -135 -45q-69 0 -117 48q-61 59 -61 154q0 114 77 199q26 29 64.5 44.5t73.5 15.5q40 0 86 -12l7 3q-1 45 -3 145l-75 2v26.5v31.5v26q25 2 82.5 8.5l104 12t50.5 5.5q3 0 3 -3q0 -77 -2 -290t-2 -307q0 -10 6 -10l51 3q1 -25 1 -82
q-13 -5 -67.5 -12.5t-100.5 -7.5q-20 15 -36 45zM276 354h-1q-33 0 -49 -26q-24 -38 -24 -118q0 -60 20 -91q17 -26 45 -26q31 0 64 18q4 3 4 17q0 147 1 212q-28 14 -60 14zM621 698h1q32 0 57 -25t25 -58q0 -50 -34 -98t-93 -77q-5 6 -18 19t-19 21q66 45 66 91
q0 32 -52 46q-3 34 17.5 57.5t49.5 23.5z" />
    <glyph glyph-name="Dcroat" unicode="&#x110;" horiz-adv-x="730" 
d="M124 368l1 193l-58 2q0 57 1 85q111 3 243 3q154 0 237 -49q58 -34 98.5 -103.5t40.5 -145.5q0 -201 -147 -300q-73 -53 -220 -53h-115h-137q0 57 1 84l51 3q4 0 4 4v185h-72q0 10 0.5 29t1 34t1.5 28q23 1 69 1zM294 275l-1 -176q0 -20 24 -20q77 0 123 44q64 63 64 188
q0 77 -16.5 125.5t-52.5 86.5q-46 47 -109 47q-19 0 -30 -4l-2 -197q46 0 122 2q0 -46 -5 -96h-117z" />
    <glyph glyph-name="dcroat" unicode="&#x111;" horiz-adv-x="569" 
d="M202 210v-1q0 -59 20 -90q20 -26 46 -26q30 0 63 18q5 3 5 17v212q-28 14 -60 14q-34 0 -50 -26q-24 -38 -24 -118zM337 494h-101q0 10 1 30.5t2 29.5q9 0 42 0.5t55 0.5v32l-76 2q0 57 1 84q25 2 82.5 8.5l104 12t50.5 5.5q3 0 3 -3q0 -18 -0.5 -65t-0.5 -74
q11 0 29 0.5t24 0.5q0 -35 -3 -65h-51q-2 -268 -2 -394q0 -10 6 -10l51 3q0 -12 0.5 -40.5t0.5 -41.5q-13 -5 -67.5 -12.5t-100.5 -7.5q-19 14 -37 45h-7q-94 -45 -135 -45q-69 0 -117 48q-61 59 -61 154q0 114 77 199q26 29 64.5 44.5t73.5 15.5q44 0 87 -13l6 3
q0 35 -1 53z" />
    <glyph glyph-name="Emacron" unicode="&#x112;" horiz-adv-x="581" 
d="M50 84l52 3q4 0 4 4v470l-57 2q0 59 1 86h132h233q23 0 56.5 0.5t42.5 0.5q6 -87 9 -178q-94 -10 -97 -10l-16 76q-3 15 -20 17q-42 6 -105 6h-10v-189q15 0 44 0.5t43 1.5q11 0 13 19l6 37q34 1 94 -1q-1 -32 -1 -104q-1 -36 -1 -98q-87 -3 -94 -3l-4 40q-3 21 -16 21
q-56 2 -85 2v-177q0 -14 9 -18t43 -4q46 0 79 7q13 3 19 18l29 80q56 -8 98 -18l-37 -176q-51 1 -328 1h-137q0 13 0.5 41.5t0.5 42.5zM414 807q2 -37 0 -74q-40 0 -131.5 0.5t-138.5 0.5q-3 30 -1 71q85 0 271 2z" />
    <glyph glyph-name="emacron" unicode="&#x113;" horiz-adv-x="499" 
d="M30 196v1q0 108 70.5 181t181.5 73q89 0 136 -54q51 -61 51 -155q-1 -10 -24 -33.5t-30 -24.5q-27 -3 -218 -3q3 -42 27 -65q25 -24 74 -24q62 0 141 27q12 -40 19 -82q-43 -20 -100 -33.5t-94 -13.5q-105 0 -169.5 52t-64.5 154zM263 367h-1q-30 0 -47 -27
q-19 -32 -18 -79q55 0 113 2q9 0 9 11q0 39 -12 63q-13 30 -44 30zM385 595q2 -37 0 -73q-34 0 -115.5 0.5t-122.5 0.5q-3 29 -1 70q162 2 239 2z" />
    <glyph glyph-name="Edotaccent" unicode="&#x116;" horiz-adv-x="581" 
d="M50 84l52 3q4 0 4 4v470l-57 2q0 59 1 86h132h233q23 0 56.5 0.5t42.5 0.5q6 -87 9 -178q-94 -10 -97 -10l-16 76q-3 15 -20 17q-42 6 -105 6h-10v-189q15 0 44 0.5t43 1.5q11 0 13 19l6 37q34 1 94 -1q-1 -32 -1 -104q-1 -36 -1 -98q-87 -3 -94 -3l-4 40q-3 21 -16 21
q-56 2 -85 2v-177q0 -14 9 -18t43 -4q46 0 79 7q13 3 19 18l29 80q56 -8 98 -18l-37 -176q-51 1 -328 1h-137q0 13 0.5 41.5t0.5 42.5zM281 843h1q30 0 48.5 -19t18.5 -44q0 -31 -19.5 -50t-51.5 -19q-26 0 -46.5 19.5t-20.5 47.5q0 26 19.5 45.5t50.5 19.5z" />
    <glyph glyph-name="edotaccent" unicode="&#x117;" horiz-adv-x="499" 
d="M30 196v1q0 108 70.5 181t181.5 73q89 0 136 -54q51 -61 51 -155q-1 -10 -24 -33.5t-30 -24.5q-27 -3 -218 -3q3 -42 27 -65q25 -24 74 -24q62 0 141 27q12 -40 19 -82q-43 -20 -100 -33.5t-94 -13.5q-105 0 -169.5 52t-64.5 154zM263 367h-1q-30 0 -47 -27
q-19 -32 -18 -79q55 0 113 2q9 0 9 11q0 39 -12 63q-13 30 -44 30zM271 648h1q30 0 48 -18.5t18 -43.5q0 -31 -19 -49.5t-51 -18.5q-26 0 -46 19t-20 47q0 26 19 45t50 19z" />
    <glyph glyph-name="Eogonek" unicode="&#x118;" horiz-adv-x="581" 
d="M349 -137v1q0 35 29.5 72.5t84.5 63.5q-38 0 -130.5 0.5t-146.5 0.5q-24 0 -70.5 -0.5t-66.5 -0.5q0 13 0.5 41.5t0.5 42.5l52 3q4 0 4 4v470l-57 2q0 60 1 86h132h233q35 1 99 1q6 -87 9 -178q-94 -10 -97 -10l-16 76q-3 15 -20 17q-42 6 -105 6h-10v-189q15 0 44 0.5
t43 1.5q11 0 13 19l6 37q34 1 94 -1q-1 -32 -1 -104q-1 -36 -1 -98q-87 -3 -94 -3l-4 40q-4 21 -16 21q-56 2 -85 2v-176q0 -15 9 -19t43 -4q46 0 79 7q13 3 19 19l29 79q57 -8 98 -18q-12 -64 -37 -175q-27 -22 -48.5 -55.5t-21.5 -62.5q0 -24 17.5 -38.5t39.5 -14.5
q20 0 45 9q8 -26 13 -53q-36 -20 -83 -20q-52 0 -89.5 25.5t-37.5 72.5z" />
    <glyph glyph-name="eogonek" unicode="&#x119;" horiz-adv-x="499" 
d="M263 367h-1q-30 0 -47 -27q-19 -32 -18 -79q47 0 113 2q9 0 9 11q0 38 -11 63q-15 30 -45 30zM257 -107v1q0 49 66 102q-36 -6 -58 -6q-105 0 -169.5 52t-64.5 154q0 109 70.5 182t181.5 73q89 0 136 -54q51 -61 51 -155q-1 -10 -24 -33.5t-30 -24.5q-63 -3 -218 -3
q3 -42 27 -65q25 -24 75 -24q61 0 140 27q10 -33 20 -82q-45 -19 -60 -28q-52 -32 -52 -98q0 -24 16 -37.5t37 -13.5q16 0 42 8q8 -25 13 -50q-35 -19 -77 -19q-50 0 -86 24.5t-36 69.5z" />
    <glyph glyph-name="Ecaron" unicode="&#x11a;" horiz-adv-x="581" 
d="M50 84l52 3q4 0 4 4v470l-57 2q0 59 1 86h132h233q23 0 56.5 0.5t42.5 0.5q6 -87 9 -178q-94 -10 -97 -10l-16 76q-3 15 -20 17q-42 6 -105 6h-10v-189q15 0 44 0.5t43 1.5q11 0 13 19l6 37q34 1 94 -1q-1 -32 -1 -104q-1 -36 -1 -98q-87 -3 -94 -3l-4 40q-3 21 -16 21
q-56 2 -85 2v-177q0 -14 9 -18t43 -4q46 0 79 7q13 3 19 18l29 80q56 -8 98 -18l-37 -176q-51 1 -328 1h-137q0 13 0.5 41.5t0.5 42.5zM286 802l123 75q22 -22 41 -52l-143 -114q-31 0 -44 1l-142 115q16 22 39 49z" />
    <glyph glyph-name="ecaron" unicode="&#x11b;" horiz-adv-x="499" 
d="M30 196v1q0 108 70.5 181t181.5 73q89 0 136 -54q51 -61 51 -155q-1 -10 -24 -33.5t-30 -24.5q-27 -3 -218 -3q3 -42 27 -65q25 -24 74 -24q62 0 141 27q12 -40 19 -82q-43 -20 -100 -33.5t-94 -13.5q-105 0 -169.5 52t-64.5 154zM263 367h-1q-30 0 -47 -27
q-19 -32 -18 -79q55 0 113 2q9 0 9 11q0 39 -12 63q-13 30 -44 30zM276 590l106 98q25 -19 47 -44l-122 -141q-21 -1 -64 1l-121 140q22 22 50 43z" />
    <glyph glyph-name="Gbreve" unicode="&#x11e;" horiz-adv-x="680" 
d="M497 427l-22 106q-2 9 -5 12q-25 19 -61 19q-59 0 -103 -40q-34 -31 -54 -86.5t-20 -122.5q0 -122 55 -182q49 -57 124 -57q21 0 23 12v136l-78 2q0 14 0.5 44t0.5 44h160h132q0 -60 -1 -88l-42 -2q-4 -2 -4 -4l-3 -194q-61 -36 -194 -36q-162 0 -251 69
q-111 89 -111 240q0 184 150 292q98 69 250 69q99 0 149 -24q8 -108 11 -198q-54 -7 -106 -11zM380 709h-1q-59 0 -104.5 35t-52.5 86q39 12 65 16q8 -28 36.5 -45t58.5 -17q31 0 58 18t33 41q35 -3 66 -12q-8 -49 -53.5 -85.5t-105.5 -36.5z" />
    <glyph glyph-name="gbreve" unicode="&#x11f;" horiz-adv-x="538" 
d="M139 116v7q-42 19 -74.5 55.5t-32.5 89.5q0 79 68 131t165 52q62 0 98 -9q15 -3 22 -3q101 4 149 8q4 -37 2 -90q-10 0 -39 -0.5t-42 -0.5l-2 -4q21 -28 21 -72q0 -62 -45 -110q-65 -67 -200 -62q-22 -19 -22 -34t18.5 -19.5t81.5 -6.5q83 -2 116 -8.5t60 -25.5t37 -38
t10 -55q0 -50 -35 -90t-98 -62q-72 -27 -171 -27q-106 0 -165.5 31t-59.5 88q0 16 21 31q23 16 53.5 34.5t41.5 26.5v6q-37 15 -56.5 34t-19.5 57q0 8 15 18t83 48zM195 283v-1q0 -103 61 -103q58 0 58 109q0 44 -15 71q-12 21 -43 21q-27 0 -44 -26t-17 -71zM371 -112v1
q0 20 -14 27.5t-59 10.5l-59.5 5t-44.5 3q-26 -34 -26 -64q0 -25 26.5 -39t64.5 -14q53 0 84 19q28 17 28 51zM279 508h-1q-55 0 -95.5 34.5t-46.5 85.5q36 12 65 16q7 -28 29.5 -44.5t50.5 -16.5q29 0 49.5 17t26.5 41q35 -3 66 -11q-6 -49 -47 -85.5t-97 -36.5z" />
    <glyph glyph-name="Gcommaaccent" unicode="&#x122;" horiz-adv-x="680" 
d="M497 427l-22 106q-2 9 -5 12q-25 19 -61 19q-59 0 -103 -40q-34 -31 -54 -86.5t-20 -122.5q0 -122 55 -182q49 -57 124 -57q21 0 23 12v136l-78 2q0 14 0.5 44t0.5 44h160h132q0 -60 -1 -88l-42 -2q-4 -2 -4 -4l-3 -194q-61 -36 -194 -36q-162 0 -251 69
q-111 89 -111 240q0 184 150 292q98 69 250 69q99 0 149 -24q8 -108 11 -198q-54 -7 -106 -11zM387 -49h1q32 0 57 -28t25 -64q0 -54 -34 -106.5t-93 -83.5q-33 38 -37 44q66 49 66 99q0 19 -15.5 32t-35.5 17q-3 38 17 64t49 26z" />
    <glyph glyph-name="gcommaaccent" unicode="&#x123;" horiz-adv-x="538" 
d="M139 116v7q-42 19 -74.5 55.5t-32.5 89.5q0 79 68 131t165 52q62 0 98 -9q15 -3 22 -3q101 4 149 8q4 -37 2 -90q-10 0 -39 -0.5t-42 -0.5l-2 -4q21 -28 21 -72q0 -62 -45 -110q-65 -67 -200 -62q-22 -19 -22 -34t18.5 -19.5t81.5 -6.5q83 -2 116 -8.5t60 -25.5t37 -38
t10 -55q0 -50 -35 -90t-98 -62q-72 -27 -171 -27q-106 0 -165.5 31t-59.5 88q0 16 21 31q23 16 53.5 34.5t41.5 26.5v6q-37 15 -56.5 34t-19.5 57q0 8 15 18t83 48zM195 283v-1q0 -103 61 -103q58 0 58 109q0 44 -15 71q-12 21 -43 21q-27 0 -44 -26t-17 -71zM371 -112v1
q0 20 -14 27.5t-59 10.5l-59.5 5t-44.5 3q-26 -34 -26 -64q0 -25 26.5 -39t64.5 -14q53 0 84 19q28 17 28 51zM282 513h-1q-32 0 -57 25.5t-25 59.5q0 51 34 99t93 76q29 -29 37 -40q-66 -45 -66 -91q0 -18 16 -30t36 -16q3 -35 -17 -59t-50 -24z" />
    <glyph glyph-name="Imacron" unicode="&#x12a;" horiz-adv-x="381" 
d="M105 562l-61 3v85q20 0 74 -0.5t77 -0.5q26 0 77.5 0.5t70.5 0.5q0 -58 -1 -85l-62 -3q-2 0 -2 -5l-3 -468l67 -3q0 -58 -1 -86q-19 0 -71.5 0.5t-79.5 0.5q-22 0 -73 -0.5t-74 -0.5q0 58 1 87l58 2q3 0 3 4v469zM328 807q2 -37 0 -74q-40 0 -131.5 0.5t-138.5 0.5
q-3 30 -1 71q85 0 271 2z" />
    <glyph glyph-name="imacron" unicode="&#x12b;" horiz-adv-x="319" 
d="M85 336l-64 2q0 32 2 86q23 2 77.5 8.5t99 12.5t47.5 6q2 0 2 -3q-3 -327 -3 -362l55 -3v-82h-138q-22 0 -69 -0.5t-67 -0.5q0 56 1 82l53 3q4 0 4 4v247zM280 598q2 -37 0 -73q-34 0 -115.5 0.5t-122.5 0.5q-3 29 -1 70q162 2 239 2z" />
    <glyph glyph-name="Iogonek" unicode="&#x12e;" horiz-adv-x="381" 
d="M96 -134v1q0 35 27.5 71.5t80.5 62.5q-25 0 -81 -0.5t-80 -0.5q0 14 0.5 43t0.5 43l58 3q3 0 3 3v470l-61 3v85q20 0 74 -0.5t77 -0.5q26 0 77.5 0.5t70.5 0.5q0 -58 -1 -85l-62 -3q-2 0 -2 -5l-3 -468l67 -3q0 -58 -1 -86q-73 0 -93 -7q-30 -10 -44.5 -37.5t-14.5 -58.5
q0 -27 13.5 -46t39.5 -19t51 9q8 -26 13 -53q-36 -20 -86 -20q-52 0 -88 25.5t-36 72.5z" />
    <glyph glyph-name="iogonek" unicode="&#x12f;" horiz-adv-x="319" 
d="M156 680h1q41 0 64.5 -24t23.5 -57q0 -40 -27 -65t-66 -25q-34 0 -60.5 25.5t-26.5 62.5q0 33 26 58t65 25zM69 -125v1q0 31 25.5 65t74.5 59q-15 0 -67.5 -0.5t-74.5 -0.5q0 56 1 82l53 3q4 0 4 4v247l-64 3q0 32 2 86q24 1 78 8l98.5 13t47.5 6q2 0 2 -3
q-3 -327 -3 -363l55 -3v-82q-55 5 -91 -12q-31 -16 -40.5 -37t-9.5 -52q0 -27 16.5 -42t37.5 -15q16 0 42 8q8 -25 13 -50q-35 -19 -77 -19q-50 0 -86.5 24.5t-36.5 69.5z" />
    <glyph glyph-name="Idotaccent" unicode="&#x130;" horiz-adv-x="381" 
d="M105 562l-61 3v85q20 0 74 -0.5t77 -0.5q26 0 77.5 0.5t70.5 0.5q0 -58 -1 -85l-62 -3q-2 0 -2 -5l-3 -468l67 -3q0 -58 -1 -86q-19 0 -71.5 0.5t-79.5 0.5q-22 0 -73 -0.5t-74 -0.5q0 58 1 87l58 2q3 0 3 4v469zM194 843h1q30 0 48.5 -19t18.5 -44q0 -31 -19.5 -50
t-51.5 -19q-26 0 -46.5 19.5t-20.5 47.5q0 26 19.5 45.5t50.5 19.5z" />
    <glyph glyph-name="dotlessi" unicode="&#x131;" horiz-adv-x="319" 
d="M85 336l-64 2q0 32 2 86q23 2 77.5 8.5t99 12.5t47.5 6q2 0 2 -3q-3 -327 -3 -362l55 -3v-82h-138q-22 0 -69 -0.5t-67 -0.5q0 56 1 82l53 3q4 0 4 4v247z" />
    <glyph glyph-name="Kcommaaccent" unicode="&#x136;" horiz-adv-x="677" 
d="M105 562l-55 3q0 31 2 85q19 0 69.5 -0.5t73.5 -0.5q24 0 71.5 0.5t63.5 0.5q0 -58 -1 -85l-50 -3q-2 0 -2 -5l-1 -189q10 1 46 5q46 49 144 182q5 6 -4 6l-47 2q0 58 1 86h149q18 0 51 0.5t47 0.5q0 -14 -0.5 -43t-0.5 -42l-38 -3l-179 -193v-7q52 -35 96 -132
q36 -79 53 -109q14 -29 35 -30l50 -5q0 -32 -2 -84q-56 -2 -108 -2q-23 -1 -105 -1q-31 47 -71 153q-52 136 -82 136q-27 0 -36 -1l-1 -198l56 -3q0 -58 -2 -86q-17 0 -65 0.5t-73 0.5q-22 0 -71 -0.5t-70 -0.5q0 58 1 86l51 3q3 0 3 4zM338 -31h1q32 0 57 -28t25 -64
q0 -54 -34 -106.5t-93 -83.5q-33 38 -37 44q66 49 66 99q0 19 -15.5 32t-35.5 17q-3 38 17 64t49 26z" />
    <glyph glyph-name="kcommaaccent" unicode="&#x137;" horiz-adv-x="571" 
d="M75 586l-63 2v83q224 28 227 28q2 0 2 -4q0 -107 -2 -419q1 0 21 1t31 2q45 42 69 71q3 4 -2 4l-37 2q0 57 1 83q22 0 70.5 0.5t69.5 0.5q27 1 86 1q0 -56 -1 -83l-37 -3l-110 -91v-6q45 -30 72 -94q22 -52 31 -69q6 -9 15 -9l51 -2q0 -57 -2 -83q-21 0 -108 -1t-91 -1
q-11 21 -43 117q-26 82 -49 82q-25 0 -38 -1q0 -16 -0.5 -56t-0.5 -56l36 -3q0 -55 -1 -81h-123q-21 0 -64.5 -0.5t-63.5 -0.5q0 56 1 82l49 3q4 0 4 4v497zM285 -53h1q32 0 57 -25.5t25 -58.5q0 -51 -34 -99t-93 -77q-6 7 -18.5 20t-18.5 20q66 45 66 91q0 35 -51 47
q-3 35 17 58.5t49 23.5z" />
    <glyph glyph-name="Lacute" unicode="&#x139;" horiz-adv-x="556" 
d="M105 562l-55 2q0 58 1 85h142h150q0 -31 -2 -85l-63 -3q-3 0 -3 -3l-2 -451q0 -15 6.5 -18.5t38.5 -3.5q47 0 80 7q12 3 18 19l34 103q52 -9 100 -20q-20 -98 -42 -195q-13 0 -127.5 0.5t-194.5 0.5q-24 0 -71 -0.5t-67 -0.5q0 58 1 85l51 2q5 0 5 4v472zM288 885
q24 -32 56 -86l-197 -99q-22 31 -38 58z" />
    <glyph glyph-name="lacute" unicode="&#x13a;" horiz-adv-x="309" 
d="M74 585l-68 4q0 31 2 83q22 2 79 9l101.5 12.5t48.5 5.5q3 0 3 -4q0 -64 -1.5 -285t-2.5 -325l57 -2v-82h-139q-22 0 -69.5 -0.5t-67.5 -0.5v82l54 3q3 0 3 4v496zM213 905q24 -32 56 -86l-197 -99q-22 31 -38 58z" />
    <glyph glyph-name="Lcommaaccent" unicode="&#x13b;" horiz-adv-x="556" 
d="M105 562l-55 2q0 58 1 85h142h150q0 -31 -2 -85l-63 -3q-3 0 -3 -3l-2 -451q0 -15 6.5 -18.5t38.5 -3.5q47 0 80 7q12 3 18 19l34 103q52 -9 100 -20q-20 -98 -42 -195q-13 0 -127.5 0.5t-194.5 0.5q-24 0 -71 -0.5t-67 -0.5q0 58 1 85l51 2q5 0 5 4v472zM298 -54h1
q32 0 57 -28t25 -64q0 -54 -34 -106.5t-93 -83.5q-33 38 -37 44q66 49 66 99q0 19 -15.5 32t-35.5 17q-3 38 17 64t49 26z" />
    <glyph glyph-name="lcommaaccent" unicode="&#x13c;" horiz-adv-x="309" 
d="M74 585l-68 4q0 31 2 83q22 2 79 9l101.5 12.5t48.5 5.5q3 0 3 -4q0 -64 -1.5 -285t-2.5 -325l57 -2v-82h-139q-22 0 -69.5 -0.5t-67.5 -0.5v82l54 3q3 0 3 4v496zM158 -53h1q32 0 57 -25.5t25 -58.5q0 -51 -34 -99t-93 -77q-6 7 -18.5 20t-18.5 20q66 45 66 91
q0 35 -51 47q-3 35 17 58.5t49 23.5z" />
    <glyph glyph-name="Lcaron" unicode="&#x13d;" horiz-adv-x="556" 
d="M105 562l-55 2q0 58 1 85h142h150q0 -31 -2 -85l-63 -3q-3 0 -3 -3l-2 -451q0 -15 6.5 -18.5t38.5 -3.5q47 0 80 7q12 3 18 19l34 103q52 -9 100 -20q-20 -98 -42 -195q-13 0 -127.5 0.5t-194.5 0.5q-24 0 -71 -0.5t-67 -0.5q0 58 1 85l51 2q5 0 5 4v472zM462 646h1
q30 0 53 -25.5t23 -58.5q0 -50 -31.5 -98.5t-86.5 -77.5q-31 37 -34 40q61 44 61 91q0 17 -17.5 31t-29.5 15q-3 35 15.5 59t45.5 24z" />
    <glyph glyph-name="lcaron" unicode="&#x13e;" horiz-adv-x="428" 
d="M74 586l-68 3q0 31 2 83q22 2 79 9l101.5 12.5t48.5 5.5q3 0 3 -4q0 -63 -1.5 -284t-2.5 -326l57 -2v-82h-139q-22 0 -69.5 -0.5t-67.5 -0.5v82l54 3q3 0 3 4v497zM360 699h1q32 0 57 -25.5t25 -58.5q0 -50 -34 -98t-93 -77q-5 6 -18 19t-19 21q66 45 66 91
q0 18 -15.5 29.5t-35.5 16.5q-3 35 17 58.5t49 23.5z" />
    <glyph glyph-name="Lslash" unicode="&#x141;" horiz-adv-x="576" 
d="M126 562l-55 2q0 58 1 85h142h149q0 -58 -1 -85l-63 -3q-3 0 -3 -4l-1 -138l114 52q22 -50 31 -88l-146 -61l-1 -215q0 -15 6.5 -18.5t39.5 -3.5q42 0 78 6q13 3 19 20l35 103q52 -9 100 -20q-19 -98 -42 -195q-14 0 -128 0.5t-194 0.5q-24 0 -71 -0.5t-67 -0.5
q0 58 1 85l51 2q4 0 4 4l1 161q-34 -16 -64 -26q-16 35 -30 75l94 43v219z" />
    <glyph glyph-name="lslash" unicode="&#x142;" horiz-adv-x="366" 
d="M44 82l53 3q4 0 4 4v162l-65 -31q-14 28 -32 78l97 49v238l-68 4q0 31 2 83q22 2 78.5 9l101 12.5t48.5 5.5q3 0 3 -4q0 -168 -1 -267q45 24 75 37q15 -31 32 -87l-108 -51q0 -43 -0.5 -125t-0.5 -117l57 -2q0 -56 -1 -82h-139q-21 0 -68.5 -0.5t-68.5 -0.5q0 13 0.5 41
t0.5 41z" />
    <glyph glyph-name="Nacute" unicode="&#x143;" horiz-adv-x="715" 
d="M40 86l49 2q4 1 4 4l-1 470l-58 2q0 58 1 85h192q88 -126 287 -434h5q0 38 -0.5 109t-1 129t-1.5 109l-72 2q0 59 1 85h130q18 0 55.5 0.5t51.5 0.5q0 -57 -2 -85l-44 -3q-3 0 -3 -5l-5 -547q-38 -19 -121 -19q-145 174 -294 395h-7q0 -51 -0.5 -149t-1.5 -148l74 -3
q0 -30 -2 -86q-20 0 -69 0.5t-74 0.5q-17 0 -49 -0.5t-45 -0.5q0 58 1 86zM421 870q24 -32 56 -86l-197 -99q-22 31 -38 58z" />
    <glyph glyph-name="nacute" unicode="&#x144;" horiz-adv-x="609" 
d="M85 336l-63 3q0 14 0.5 41.5t0.5 40.5q22 1 71.5 8.5l90 14t42.5 6.5t2 -3q3 -10 7 -31t7 -31l5 -1q72 44 101 55.5t64 11.5q30 0 58.5 -22t45.5 -51q23 -38 23 -89q0 -77 -4 -203l50 -3q0 -56 -1 -82h-129q-22 0 -65 -0.5t-60 -0.5q0 13 0.5 41t0.5 41l40 3q4 0 4 4v135
q0 71 -8 86q-12 21 -38 21q-37 0 -80 -34q-3 -177 -3 -211l43 -3q0 -56 -1 -82h-125q-21 0 -67.5 -0.5t-65.5 -0.5q0 13 0.5 41t0.5 41l49 3q4 0 4 4v247zM387 694q32 -31 67 -76l-179 -127l-45 52z" />
    <glyph glyph-name="Ncommaaccent" unicode="&#x145;" horiz-adv-x="715" 
d="M40 86l49 2q4 1 4 4l-1 470l-58 2q0 58 1 85h192q88 -126 287 -434h5q0 38 -0.5 109t-1 129t-1.5 109l-72 2q0 59 1 85h130q18 0 55.5 0.5t51.5 0.5q0 -57 -2 -85l-44 -3q-3 0 -3 -5l-5 -547q-38 -19 -121 -19q-145 174 -294 395h-7q0 -51 -0.5 -149t-1.5 -148l74 -3
q0 -30 -2 -86q-20 0 -69 0.5t-74 0.5q-17 0 -49 -0.5t-45 -0.5q0 58 1 86zM363 -29h1q32 0 57 -28t25 -64q0 -54 -34 -106.5t-93 -83.5q-33 38 -37 44q66 49 66 99q0 19 -15.5 32t-35.5 17q-3 38 17 64t49 26z" />
    <glyph glyph-name="ncommaaccent" unicode="&#x146;" horiz-adv-x="609" 
d="M85 336l-63 3q0 14 0.5 41.5t0.5 40.5q22 1 71.5 8.5l90 14t42.5 6.5t2 -3q3 -10 7 -31t7 -31l5 -1q72 44 101 55.5t64 11.5q30 0 58.5 -22t45.5 -51q23 -38 23 -89q0 -77 -4 -203l50 -3q0 -56 -1 -82h-129q-22 0 -65 -0.5t-60 -0.5q0 13 0.5 41t0.5 41l40 3q4 0 4 4v135
q0 71 -8 86q-12 21 -38 21q-37 0 -80 -34q-3 -177 -3 -211l43 -3q0 -56 -1 -82h-125q-21 0 -67.5 -0.5t-65.5 -0.5q0 13 0.5 41t0.5 41l49 3q4 0 4 4v247zM304 -53h1q32 0 57 -25.5t25 -58.5q0 -51 -34 -99t-93 -77q-6 7 -18.5 20t-18.5 20q66 45 66 91q0 35 -51 47
q-3 35 17 58.5t49 23.5z" />
    <glyph glyph-name="Ncaron" unicode="&#x147;" horiz-adv-x="715" 
d="M40 86l49 2q4 1 4 4l-1 470l-58 2q0 58 1 85h192q88 -126 287 -434h5q0 38 -0.5 109t-1 129t-1.5 109l-72 2q0 59 1 85h130q18 0 55.5 0.5t51.5 0.5q0 -57 -2 -85l-44 -3q-3 0 -3 -5l-5 -547q-38 -19 -121 -19q-145 174 -294 395h-7q0 -51 -0.5 -149t-1.5 -148l74 -3
q0 -30 -2 -86q-20 0 -69 0.5t-74 0.5q-17 0 -49 -0.5t-45 -0.5q0 58 1 86zM345 802l123 75q22 -22 41 -52l-143 -114q-31 0 -44 1l-142 115q16 22 39 49z" />
    <glyph glyph-name="ncaron" unicode="&#x148;" horiz-adv-x="609" 
d="M85 336l-63 3q0 14 0.5 41.5t0.5 40.5q22 1 71.5 8.5l90 14t42.5 6.5t2 -3q3 -10 7 -31t7 -31l5 -1q72 44 101 55.5t64 11.5q30 0 58.5 -22t45.5 -51q23 -38 23 -89q0 -77 -4 -203l50 -3q0 -56 -1 -82h-129q-22 0 -65 -0.5t-60 -0.5q0 13 0.5 41t0.5 41l40 3q4 0 4 4v135
q0 71 -8 86q-12 21 -38 21q-37 0 -80 -34q-3 -177 -3 -211l43 -3q0 -56 -1 -82h-125q-21 0 -67.5 -0.5t-65.5 -0.5q0 13 0.5 41t0.5 41l49 3q4 0 4 4v247zM306 590l106 98q25 -19 47 -44l-122 -141q-21 -1 -64 1l-121 140q22 22 50 43z" />
    <glyph glyph-name="Omacron" unicode="&#x14c;" horiz-adv-x="735" 
d="M351 -10h-1q-65 0 -122 22t-95 60q-90 92 -90 247q0 94 41.5 171t106.5 116q86 54 201 54q97 0 174 -49q58 -37 92.5 -110t34.5 -160q0 -76 -26.5 -147.5t-76.5 -118.5q-92 -85 -239 -85zM372 75h1q54 0 85 40q47 62 47 202q0 121 -41 200q-28 58 -89 58q-57 0 -92 -43
q-51 -63 -51 -202q0 -150 50 -210q36 -45 90 -45zM502 807q2 -37 0 -74q-40 0 -131.5 0.5t-138.5 0.5q-3 30 -1 71q85 0 271 2z" />
    <glyph glyph-name="omacron" unicode="&#x14d;" horiz-adv-x="546" 
d="M263 -10h-1q-103 0 -158 48q-74 63 -74 170q0 124 96 195q65 48 162 48q78 0 137 -37q91 -58 91 -185q0 -64 -30.5 -117.5t-77.5 -83.5q-58 -38 -145 -38zM274 68h1q29 0 44 23q23 33 23 135q0 74 -18 115q-15 31 -47 31q-29 0 -45 -24q-27 -38 -27 -124q0 -95 24 -129
q16 -27 45 -27zM403 598q2 -37 0 -73q-34 0 -115.5 0.5t-122.5 0.5q-3 29 -1 70q162 2 239 2z" />
    <glyph glyph-name="Ohungarumlaut" unicode="&#x150;" horiz-adv-x="735" 
d="M351 -10h-1q-65 0 -122 22t-95 60q-90 92 -90 247q0 94 41.5 171t106.5 116q86 54 201 54q97 0 174 -49q58 -37 92.5 -110t34.5 -160q0 -76 -26.5 -147.5t-76.5 -118.5q-92 -85 -239 -85zM372 75h1q54 0 85 40q47 62 47 202q0 121 -41 200q-28 58 -89 58q-57 0 -92 -43
q-51 -63 -51 -202q0 -150 50 -210q36 -45 90 -45zM362 900q23 -22 51 -64l-168 -116q-20 20 -42 47zM527 895q16 -15 52 -63l-166 -118q-15 15 -41 47z" />
    <glyph glyph-name="ohungarumlaut" unicode="&#x151;" horiz-adv-x="546" 
d="M263 -10h-1q-103 0 -158 48q-74 63 -74 170q0 124 96 195q65 48 162 48q78 0 137 -37q91 -58 91 -185q0 -64 -30.5 -117.5t-77.5 -83.5q-58 -38 -145 -38zM274 68h1q29 0 44 23q23 33 23 135q0 74 -18 115q-15 31 -47 31q-29 0 -45 -24q-27 -38 -27 -124q0 -95 24 -129
q16 -27 45 -27zM277 685q23 -18 56 -60l-151 -120l-44 44zM441 680q25 -21 56 -60l-148 -121l-43 44z" />
    <glyph glyph-name="OE" unicode="&#x152;" horiz-adv-x="961" 
d="M42 316v1q0 87 34.5 164.5t98.5 125.5q73 53 175 53q92 0 141 -51v40h75h229q21 0 56 0.5t44 0.5q6 -87 9 -178q-94 -10 -97 -10l-17 76q-2 15 -20 17q-42 6 -105 6h-9l-1 -189q15 0 43.5 0.5t42.5 1.5q12 0 15 19l6 37q34 1 94 -1q-1 -16 -1.5 -51.5t-0.5 -52.5v-98
q-90 -3 -94 -3l-5 41q-3 20 -16 20q-56 2 -85 2v-177q0 -14 9 -18t43 -4q47 0 80 7q12 4 18 19l30 78q35 -5 97 -18q-18 -94 -36 -175q-47 1 -326 1h-79v52q-57 -62 -166 -62t-181 65q-101 94 -101 261zM232 330q0 -79 10.5 -126.5t38.5 -84.5q33 -44 91 -44q38 0 68.5 21.5
t45.5 62.5v341q-13 36 -44 55.5t-66 19.5q-58 0 -93 -42q-51 -65 -51 -203z" />
    <glyph glyph-name="oe" unicode="&#x153;" horiz-adv-x="805" 
d="M417 60h-7q-57 -70 -158 -70q-95 0 -149 47q-73 64 -73 172q0 58 24.5 108.5t65.5 83.5q64 50 157 50q47 0 86 -22.5t58 -56.5h7q57 79 163 79q88 0 133 -54q51 -63 51 -156q-1 -11 -23.5 -33t-31.5 -23q-63 -5 -215 -3q3 -42 27 -66q25 -24 75 -24q63 0 138 28
q12 -42 19 -83q-42 -20 -99 -33.5t-95 -13.5q-108 0 -153 70zM275 68h1q27 0 45 23q21 31 21 133q0 79 -18 117q-13 31 -45 31q-31 0 -47 -24q-27 -38 -27 -123q0 -91 23 -130q18 -27 47 -27zM570 367h-1q-28 0 -46 -27q-18 -29 -18 -79q57 0 107 2q11 0 11 12q0 37 -12 61
q-14 31 -41 31z" />
    <glyph glyph-name="Racute" unicode="&#x154;" horiz-adv-x="636" 
d="M106 562l-54 2q1 29 1 85q138 2 231 2q88 0 147 -14q63 -14 103 -62t40 -99q0 -61 -34.5 -106t-90.5 -68v-5q20 -9 38.5 -33t29.5 -45t36 -75q6 -13 9 -19q15 -34 30 -35l48 -6v-83q-19 -1 -74 -1q-12 0 -64 -0.5t-61 -0.5q-21 36 -94 207q-18 43 -53 43q-18 0 -24 -2
l-1 -161l54 -3q0 -14 -0.5 -41.5t-0.5 -41.5h-143h-126v83l50 3q2 0 2 3zM272 567l-2 -235q4 -1 24 -1q50 0 79 31t29 81q0 54 -29 90.5t-69 36.5q-23 0 -32 -3zM397 885q24 -32 56 -86l-197 -99q-22 31 -38 58z" />
    <glyph glyph-name="racute" unicode="&#x155;" horiz-adv-x="456" 
d="M85 340l-59 2q0 32 2 82q19 2 68 9l89 12.5t42 5.5t2 -3l9 -127l7 -1q45 85 70.5 108.5t64.5 23.5q35 0 72 -14q0 -33 -16.5 -82t-30.5 -62q-3 0 -14.5 3t-25 5t-24.5 2q-16 0 -28 -9q-26 -20 -52 -70q-15 -28 -15 -85q-1 -17 -1 -55l83 -3q0 -29 -2 -81h-152
q-22 0 -71 -0.5t-70 -0.5q0 56 1 81l47 3q4 0 4 4v252zM330 712q32 -31 67 -76l-179 -127l-45 52z" />
    <glyph glyph-name="Rcommaaccent" unicode="&#x156;" horiz-adv-x="636" 
d="M106 562l-54 2q1 29 1 85q138 2 231 2q88 0 147 -14q63 -14 103 -62t40 -99q0 -61 -34.5 -106t-90.5 -68v-5q20 -9 38.5 -33t29.5 -45t36 -75q6 -13 9 -19q15 -34 30 -35l48 -6v-83q-19 -1 -74 -1q-12 0 -64 -0.5t-61 -0.5q-21 36 -94 207q-18 43 -53 43q-18 0 -24 -2
l-1 -161l54 -3q0 -14 -0.5 -41.5t-0.5 -41.5h-143h-126v83l50 3q2 0 2 3zM272 567l-2 -235q4 -1 24 -1q50 0 79 31t29 81q0 54 -29 90.5t-69 36.5q-23 0 -32 -3zM332 -29h1q32 0 57 -28t25 -64q0 -54 -34 -106.5t-93 -83.5q-33 38 -37 44q66 49 66 99q0 19 -15.5 32
t-35.5 17q-3 38 17 64t49 26z" />
    <glyph glyph-name="rcommaaccent" unicode="&#x157;" horiz-adv-x="456" 
d="M85 340l-59 2q0 32 2 82q19 2 68 9l89 12.5t42 5.5t2 -3l9 -127l7 -1q45 85 70.5 108.5t64.5 23.5q35 0 72 -14q0 -33 -16.5 -82t-30.5 -62q-3 0 -14.5 3t-25 5t-24.5 2q-16 0 -28 -9q-26 -20 -52 -70q-15 -28 -15 -85q-1 -17 -1 -55l83 -3q0 -29 -2 -81h-152
q-22 0 -71 -0.5t-70 -0.5q0 56 1 81l47 3q4 0 4 4v252zM202 -53h1q32 0 57 -25.5t25 -58.5q0 -51 -34 -99t-93 -77q-6 7 -18.5 20t-18.5 20q66 45 66 91q0 35 -51 47q-3 35 17 58.5t49 23.5z" />
    <glyph glyph-name="Rcaron" unicode="&#x158;" horiz-adv-x="636" 
d="M106 562l-54 2q1 29 1 85q138 2 231 2q88 0 147 -14q63 -14 103 -62t40 -99q0 -61 -34.5 -106t-90.5 -68v-5q20 -9 38.5 -33t29.5 -45t36 -75q6 -13 9 -19q15 -34 30 -35l48 -6v-83q-19 -1 -74 -1q-12 0 -64 -0.5t-61 -0.5q-21 36 -94 207q-18 43 -53 43q-18 0 -24 -2
l-1 -161l54 -3q0 -14 -0.5 -41.5t-0.5 -41.5h-143h-126v83l50 3q2 0 2 3zM272 567l-2 -235q4 -1 24 -1q50 0 79 31t29 81q0 54 -29 90.5t-69 36.5q-23 0 -32 -3zM305 802l123 75q22 -22 41 -52l-143 -114q-31 0 -44 1l-142 115q16 22 39 49z" />
    <glyph glyph-name="rcaron" unicode="&#x159;" horiz-adv-x="456" 
d="M85 340l-59 2q0 32 2 82q19 2 68 9l89 12.5t42 5.5t2 -3l9 -127l7 -1q45 85 70.5 108.5t64.5 23.5q35 0 72 -14q0 -33 -16.5 -82t-30.5 -62q-3 0 -14.5 3t-25 5t-24.5 2q-16 0 -28 -9q-26 -20 -52 -70q-15 -28 -15 -85q-1 -17 -1 -55l83 -3q0 -29 -2 -81h-152
q-22 0 -71 -0.5t-70 -0.5q0 56 1 81l47 3q4 0 4 4v252zM247 590l106 98q25 -19 47 -44l-122 -141q-21 -1 -64 1l-121 140q22 22 50 43z" />
    <glyph glyph-name="Sacute" unicode="&#x15a;" horiz-adv-x="538" 
d="M138 214l28 -99q2 -6 6 -9q25 -19 66 -19q46 0 69 20q24 19 24 54t-19 50t-83 39q-179 67 -179 197q0 88 68 149q70 64 212 64q93 0 134 -19q6 -56 14 -182q-23 -4 -102 -13l-23 93q-1 5 -4 7q-19 16 -51 16q-35 0 -59 -18q-27 -21 -27 -57t20.5 -51.5t93.5 -40.5
q85 -29 126.5 -74t41.5 -114q0 -101 -74 -160q-73 -57 -212 -57q-98 0 -153 20q-7 54 -22 186q56 12 105 18zM370 895q24 -32 56 -86l-197 -99q-22 31 -38 58z" />
    <glyph glyph-name="sacute" unicode="&#x15b;" horiz-adv-x="447" 
d="M116 159l15 -57q2 -7 8 -11q25 -15 55 -15q27 0 39 5q22 11 22 33q0 19 -14.5 27.5t-65.5 22.5q-134 39 -134 133q0 42 25.5 75t60.5 50q58 29 143 29q86 0 120 -14q10 -84 14 -133q-15 -3 -47.5 -7.5t-42.5 -6.5l-15 53q-2 9 -7 11q-15 11 -39 11q-26 0 -38 -8
q-18 -12 -18 -34q0 -16 16 -24t78 -25q60 -17 90.5 -45t30.5 -84q0 -41 -23.5 -75t-64.5 -55q-53 -25 -148 -25q-79 0 -132 16q-5 40 -16 137q53 11 88 16zM326 694q32 -31 67 -76l-179 -127l-45 52z" />
    <glyph glyph-name="Scedilla" unicode="&#x15e;" horiz-adv-x="538" 
d="M126 -85l84 75q-26 0 -59 3q-60 4 -96 17q-7 54 -22 186q56 12 105 18l28 -99q2 -6 6 -9q25 -19 66 -19q46 0 69 20q24 19 24 54t-19 50t-83 39q-179 67 -179 197q0 88 68 149q70 64 212 64q93 0 134 -19q6 -56 14 -182q-23 -4 -102 -13l-23 93q-1 5 -4 7q-19 16 -51 16
q-35 0 -59 -18q-27 -21 -27 -57t20.5 -51.5t93.5 -40.5q85 -29 126.5 -74t41.5 -114q0 -101 -74 -160q-50 -37 -119 -50l-77 -73q80 -8 80 -76q0 -47 -48.5 -80t-129.5 -33q-6 27 -8 56q88 4 88 48q0 20 -14 29q-17 12 -52 12z" />
    <glyph glyph-name="Scedilla" unicode="&#xf6c1;" horiz-adv-x="538" 
d="M126 -85l84 75q-26 0 -59 3q-60 4 -96 17q-7 54 -22 186q56 12 105 18l28 -99q2 -6 6 -9q25 -19 66 -19q46 0 69 20q24 19 24 54t-19 50t-83 39q-179 67 -179 197q0 88 68 149q70 64 212 64q93 0 134 -19q6 -56 14 -182q-23 -4 -102 -13l-23 93q-1 5 -4 7q-19 16 -51 16
q-35 0 -59 -18q-27 -21 -27 -57t20.5 -51.5t93.5 -40.5q85 -29 126.5 -74t41.5 -114q0 -101 -74 -160q-50 -37 -119 -50l-77 -73q80 -8 80 -76q0 -47 -48.5 -80t-129.5 -33q-6 27 -8 56q88 4 88 48q0 20 -14 29q-17 12 -52 12z" />
    <glyph glyph-name="scedilla" unicode="&#x15f;" horiz-adv-x="447" 
d="M108 -74l76 64h-15q-83 2 -125 16q-7 43 -17 137q53 11 89 16l15 -57q2 -7 8 -11q25 -15 55 -15q27 0 39 5q22 11 22 33q0 19 -14.5 27.5t-65.5 22.5q-134 39 -134 133q0 42 25.5 75t60.5 50q58 29 143 29q86 0 120 -14q10 -84 14 -133q-25 -5 -90 -13l-15 52q-2 9 -7 11
q-15 11 -39 11q-26 0 -38 -8q-18 -12 -18 -34q0 -16 17 -24.5t77 -24.5q60 -17 90.5 -45t30.5 -84q0 -41 -23.5 -75.5t-64.5 -54.5q-22 -9 -44 -14l-78 -67q30 -5 50 -26.5t20 -51.5q0 -47 -43.5 -77t-125.5 -30q-4 25 -6 57q84 5 84 48q0 12 -11 26q-15 15 -50 12
q-2 4 -6 16.5t-6 17.5z" />
    <glyph glyph-name="scedilla" unicode="&#xf6c2;" horiz-adv-x="447" 
d="M108 -74l76 64h-15q-83 2 -125 16q-7 43 -17 137q53 11 89 16l15 -57q2 -7 8 -11q25 -15 55 -15q27 0 39 5q22 11 22 33q0 19 -14.5 27.5t-65.5 22.5q-134 39 -134 133q0 42 25.5 75t60.5 50q58 29 143 29q86 0 120 -14q10 -84 14 -133q-25 -5 -90 -13l-15 52q-2 9 -7 11
q-15 11 -39 11q-26 0 -38 -8q-18 -12 -18 -34q0 -16 17 -24.5t77 -24.5q60 -17 90.5 -45t30.5 -84q0 -41 -23.5 -75.5t-64.5 -54.5q-22 -9 -44 -14l-78 -67q30 -5 50 -26.5t20 -51.5q0 -47 -43.5 -77t-125.5 -30q-4 25 -6 57q84 5 84 48q0 12 -11 26q-15 15 -50 12
q-2 4 -6 16.5t-6 17.5z" />
    <glyph glyph-name="Scaron" unicode="&#x160;" horiz-adv-x="538" 
d="M138 214l28 -99q2 -6 6 -9q25 -19 66 -19q46 0 69 20q24 19 24 54t-19 50t-83 39q-179 67 -179 197q0 88 68 149q70 64 212 64q93 0 134 -19q6 -56 14 -182q-23 -4 -102 -13l-23 93q-1 5 -4 7q-19 16 -51 16q-35 0 -59 -18q-27 -21 -27 -57t20.5 -51.5t93.5 -40.5
q85 -29 126.5 -74t41.5 -114q0 -101 -74 -160q-73 -57 -212 -57q-98 0 -153 20q-7 54 -22 186q56 12 105 18zM295 802l123 75q22 -22 41 -52l-143 -114q-31 0 -44 1l-142 115q16 22 39 49z" />
    <glyph glyph-name="scaron" unicode="&#x161;" horiz-adv-x="447" 
d="M116 159l15 -57q2 -7 8 -11q25 -15 55 -15q27 0 39 5q22 11 22 33q0 19 -14.5 27.5t-65.5 22.5q-134 39 -134 133q0 42 25.5 75t60.5 50q58 29 143 29q86 0 120 -14q10 -84 14 -133q-15 -3 -47.5 -7.5t-42.5 -6.5l-15 53q-2 9 -7 11q-15 11 -39 11q-26 0 -38 -8
q-18 -12 -18 -34q0 -16 16 -24t78 -25q60 -17 90.5 -45t30.5 -84q0 -41 -23.5 -75t-64.5 -55q-53 -25 -148 -25q-79 0 -132 16q-5 40 -16 137q53 11 88 16zM243 590l106 98q25 -19 47 -44l-122 -141q-21 -1 -64 1l-121 140q22 22 50 43z" />
    <glyph glyph-name="Tcommaaccent" unicode="&#x162;" horiz-adv-x="616" 
d="M152 86l68 3q3 0 3 4v466q-34 0 -69 -5q-16 -3 -19 -19l-19 -97l-50 4t-55 5l12 203q9 0 42.5 -0.5t52.5 -0.5h196h187q39 1 95 1q8 -134 9 -202q-23 -3 -106 -10l-16 96q-3 15 -19 19q-22 5 -70 5l-2 -469l72 -3q0 -57 -1 -86q-20 0 -74 0.5t-81 0.5q-24 0 -78 -0.5
t-79 -0.5q0 58 1 86zM301 -31h1q32 0 57 -28t25 -64q0 -54 -34 -106.5t-93 -83.5q-33 38 -37 44q66 49 66 99q0 19 -15.5 32t-35.5 17q-3 38 17 64t49 26z" />
    <glyph glyph-name="tcommaaccent" unicode="&#x163;" horiz-adv-x="424" 
d="M194 -10h-1q-43 0 -77 31q-22 19 -28.5 36t-6.5 42q0 33 0.5 74t0.5 42q0 12 0.5 70t0.5 61h-70q0 43 3 85q10 1 32.5 3t32.5 2q7 0 7 8q0 3 7 83q23 11 60 24.5t62.5 21.5t27.5 8q3 0 3 -4q-1 -11 -2 -69t-1 -71q26 0 78.5 0.5t75.5 0.5q0 -54 -4 -94q-21 0 -74 0.5
t-76 0.5q0 -2 -0.5 -11.5t-0.5 -28.5v-43v-122q0 -20 14 -32.5t32 -12.5q51 0 109 15q6 -33 12 -84q-93 -36 -217 -36zM231 -54h1q32 0 57 -25.5t25 -58.5q0 -51 -34 -99t-93 -77q-6 7 -18.5 20t-18.5 20q66 45 66 91q0 35 -51 47q-3 35 17 58.5t49 23.5z" />
    <glyph glyph-name="Tcaron" unicode="&#x164;" horiz-adv-x="616" 
d="M152 86l68 3q3 0 3 4v466q-34 0 -69 -5q-16 -3 -19 -19l-19 -97l-50 4t-55 5l12 203q9 0 42.5 -0.5t52.5 -0.5h196h187q39 1 95 1q8 -134 9 -202q-23 -3 -106 -10l-16 96q-3 15 -19 19q-22 5 -70 5l-2 -469l72 -3q0 -57 -1 -86q-20 0 -74 0.5t-81 0.5q-24 0 -78 -0.5
t-79 -0.5q0 58 1 86zM319 802l123 75q22 -22 41 -52l-143 -114q-31 0 -44 1l-142 115q16 22 39 49z" />
    <glyph glyph-name="tcaron" unicode="&#x165;" horiz-adv-x="424" 
d="M194 -10h-1q-43 0 -77 31q-22 19 -28.5 36t-6.5 42q0 33 0.5 74t0.5 42q0 12 0.5 70t0.5 61h-70q0 43 3 85q10 1 32.5 3t32.5 2q7 0 7 8q0 3 7 83q23 11 60 24.5t62.5 21.5t27.5 8q3 0 3 -4q-1 -11 -2 -69t-1 -71q26 0 78.5 0.5t75.5 0.5q0 -54 -4 -94q-21 0 -74 0.5
t-76 0.5q0 -2 -0.5 -11.5t-0.5 -28.5v-43v-122q0 -20 14 -32.5t32 -12.5q51 0 109 15q6 -33 12 -84q-93 -36 -217 -36zM359 736h1q32 0 57 -25.5t25 -58.5q0 -51 -34 -99t-93 -77l-21.5 23.5t-15.5 16.5q66 44 66 92q0 18 -15.5 29.5t-35.5 16.5q-3 35 17 58.5t49 23.5z" />
    <glyph glyph-name="Umacron" unicode="&#x16a;" horiz-adv-x="677" 
d="M255 563l-2 -302q-1 -93 36 -137q28 -32 80 -32q46 0 76 35q34 38 34 147q0 203 -2 285q0 2 -4 4l-70 2q0 14 0.5 43t0.5 42q18 0 64 -0.5t69 -0.5q22 0 62 0.5t57 0.5q0 -13 -0.5 -42t-0.5 -43l-48 -3l-2 -272q-1 -159 -74 -232q-66 -68 -181 -68q-131 0 -199 62
q-71 65 -71 206v299q0 6 -5 6l-44 2q0 58 1 85q18 0 66.5 -0.5t71.5 -0.5q27 0 80 0.5t75 0.5q0 -58 -2 -85zM491 807q2 -37 0 -74q-40 0 -131.5 0.5t-138.5 0.5q-3 30 -1 71q85 0 271 2z" />
    <glyph glyph-name="umacron" unicode="&#x16b;" horiz-adv-x="569" 
d="M346 40h-5q-59 -33 -84.5 -41.5t-57.5 -8.5q-45 0 -90.5 47.5t-45.5 93.5q0 39 0.5 114t0.5 106l-44 2q0 14 0.5 41.5t0.5 40.5q22 1 109 4t94 3q3 0 3 -4q-3 -210 -3 -231q0 -66 12 -85q13 -21 39 -21q31 0 60 21v228l-49 2q0 31 2 85q148 4 210 4q2 0 2 -4
q-3 -318 -3 -341q0 -6 4 -6l56 2q0 -13 -0.5 -41t-0.5 -42q-9 -5 -64 -12t-100 -7q-22 16 -46 50zM415 609q2 -37 0 -73q-34 0 -115.5 0.5t-122.5 0.5q-3 29 -1 70q162 2 239 2z" />
    <glyph glyph-name="Uring" unicode="&#x16e;" horiz-adv-x="677" 
d="M255 563l-2 -302q-1 -93 36 -137q28 -32 80 -32q46 0 76 35q34 38 34 147q0 203 -2 285q0 2 -4 4l-70 2q0 14 0.5 43t0.5 42q18 0 64 -0.5t69 -0.5q22 0 62 0.5t57 0.5q0 -13 -0.5 -42t-0.5 -43l-48 -3l-2 -272q-1 -159 -74 -232q-66 -68 -181 -68q-131 0 -199 62
q-71 65 -71 206v299q0 6 -5 6l-44 2q0 58 1 85q18 0 66.5 -0.5t71.5 -0.5q27 0 80 0.5t75 0.5q0 -58 -2 -85zM354 905h1q54 0 88.5 -29t34.5 -74t-36.5 -75t-88.5 -30q-53 0 -88.5 27.5t-35.5 75.5q0 41 36 73t89 32zM355 854h-1q-21 0 -36 -16t-15 -38q0 -23 15 -37.5
t36 -14.5q23 0 36 14.5t13 38.5t-13 38.5t-35 14.5z" />
    <glyph glyph-name="uring" unicode="&#x16f;" horiz-adv-x="569" 
d="M346 40h-5q-59 -33 -84.5 -41.5t-57.5 -8.5q-45 0 -90.5 47.5t-45.5 93.5q0 39 0.5 114t0.5 106l-44 2q0 14 0.5 41.5t0.5 40.5q22 1 109 4t94 3q3 0 3 -4q-3 -210 -3 -231q0 -66 12 -85q13 -21 39 -21q31 0 60 21v228l-49 2q0 31 2 85q148 4 210 4q2 0 2 -4
q-3 -318 -3 -341q0 -6 4 -6l56 2q0 -13 -0.5 -41t-0.5 -42q-9 -5 -64 -12t-100 -7q-22 16 -46 50zM276 706h1q52 0 85 -27t33 -71q0 -45 -35 -74.5t-86 -29.5t-85.5 27.5t-34.5 74.5q0 39 35.5 69.5t86.5 30.5zM276 655h-1q-21 0 -34.5 -13.5t-13.5 -35.5q0 -23 14 -37
t35 -14q22 0 34.5 14t12.5 38q0 48 -47 48z" />
    <glyph glyph-name="Uhungarumlaut" unicode="&#x170;" horiz-adv-x="677" 
d="M255 563l-2 -302q-1 -93 36 -137q28 -32 80 -32q46 0 76 35q34 38 34 147q0 203 -2 285q0 2 -4 4l-70 2q0 14 0.5 43t0.5 42q18 0 64 -0.5t69 -0.5q22 0 62 0.5t57 0.5q0 -13 -0.5 -42t-0.5 -43l-48 -3l-2 -272q-1 -159 -74 -232q-66 -68 -181 -68q-131 0 -199 62
q-71 65 -71 206v299q0 6 -5 6l-44 2q0 58 1 85q18 0 66.5 -0.5t71.5 -0.5q27 0 80 0.5t75 0.5q0 -58 -2 -85zM349 900q23 -22 51 -64l-168 -116q-20 20 -42 47zM514 895q16 -15 52 -63l-166 -118q-15 15 -41 47z" />
    <glyph glyph-name="uhungarumlaut" unicode="&#x171;" horiz-adv-x="569" 
d="M346 40h-5q-59 -33 -84.5 -41.5t-57.5 -8.5q-45 0 -90.5 47.5t-45.5 93.5q0 39 0.5 114t0.5 106l-44 2q0 14 0.5 41.5t0.5 40.5q22 1 109 4t94 3q3 0 3 -4q-3 -210 -3 -231q0 -66 12 -85q13 -21 39 -21q31 0 60 21v228l-49 2q0 31 2 85q148 4 210 4q2 0 2 -4
q-3 -318 -3 -341q0 -6 4 -6l56 2q0 -13 -0.5 -41t-0.5 -42q-9 -5 -64 -12t-100 -7q-22 16 -46 50zM279 685q23 -18 56 -60l-151 -120l-13.5 13.5l-16.5 16.5l-14 14zM443 680q25 -21 56 -60l-148 -121q-37 37 -43 44z" />
    <glyph glyph-name="Uogonek" unicode="&#x172;" horiz-adv-x="677" 
d="M235 -141v1q0 34 24.5 69.5t75.5 60.5q-62 2 -104 15.5t-80 46.5q-71 62 -71 206v300q0 6 -5 6l-44 2q0 57 1 84q18 0 66.5 -0.5t71.5 -0.5q27 0 80 0.5t75 0.5q0 -58 -2 -85l-68 -2l-2 -302q-1 -93 36 -137q28 -32 80 -32q46 0 76 35q34 38 34 148q0 203 -2 285
q0 3 -4 3l-70 3q0 14 0.5 42t0.5 42q18 0 64 -0.5t69 -0.5q22 0 62 0.5t57 0.5q0 -14 -0.5 -42t-0.5 -42l-48 -3l-2 -273q-1 -159 -74 -232q-46 -48 -128 -69q-36 -10 -53.5 -42t-17.5 -67q0 -25 18 -40t39 -15q18 0 43 9q11 -42 13 -53q-36 -20 -83 -20q-52 0 -89.5 25.5
t-37.5 72.5z" />
    <glyph glyph-name="uogonek" unicode="&#x173;" horiz-adv-x="569" 
d="M293 -136v1q0 32 25.5 66t75.5 59h-2q-22 16 -46 50h-5q-59 -33 -84.5 -41.5t-57.5 -8.5q-45 0 -90.5 47.5t-45.5 93.5q0 39 0.5 114t0.5 106l-44 2q0 14 0.5 41.5t0.5 40.5q27 1 100.5 3.5l102.5 3.5q3 0 3 -4q-3 -210 -3 -231q0 -66 12 -85q13 -21 39 -21q31 0 60 21
v228l-49 2q0 31 2 85q21 0 100.5 2t109.5 2q2 0 2 -4q-3 -318 -3 -340q0 -7 4 -7l56 2q0 -13 -0.5 -41.5t-0.5 -42.5q-3 -1 -20 -4l-40.5 -7.5t-40.5 -8.5q-37 -9 -55 -40t-18 -57q0 -23 15.5 -41.5t35.5 -18.5t46 8q8 -25 13 -50q-35 -19 -77 -19q-50 0 -86 24.5t-36 69.5z
" />
    <glyph glyph-name="Ydieresis" unicode="&#x178;" horiz-adv-x="623" 
d="M154 86l63 3q4 0 4 5v149q-30 50 -168 314q0 5 -5 5l-40 3q0 58 1 84h126q31 0 92 0.5t84 0.5q0 -58 -1 -85l-60 -4q45 -110 96 -220h5q59 109 102 215q1 3 -3 5l-54 2q0 58 1 86h142q17 0 47 0.5t42 0.5q0 -58 -1 -86l-44 -3q-122 -210 -192 -317l-1 -155l74 -3
q0 -30 -2 -86q-20 0 -74 0.5t-82 0.5q-23 0 -76 -0.5t-78 -0.5q0 30 2 86zM246 833h1q28 0 44.5 -17.5t16.5 -40.5q0 -29 -17.5 -46t-46.5 -17q-25 0 -43.5 17.5t-18.5 43.5q0 23 17.5 41.5t46.5 18.5zM451 833h1q28 0 45.5 -18.5t17.5 -41.5q0 -26 -18.5 -43.5t-43.5 -17.5
q-29 0 -46.5 17t-17.5 46q0 23 17 40.5t45 17.5z" />
    <glyph glyph-name="Zacute" unicode="&#x179;" horiz-adv-x="605" 
d="M222 102l2 -4q139 0 183 12q22 5 31 30l31 88q85 -17 107 -22l-48 -207q-4 0 -47 0.5t-116.5 0.5h-152.5h-156q-14 30 -32 81l344 467l-2 4h-60q-81 0 -97 -6q-15 -5 -21 -23l-35 -100l-51 10t-54 11q15 89 38 208q2 0 45 -1t61 -1l340 -1q16 -47 31 -114
q-173 -233 -341 -433zM390 885q24 -32 56 -86l-197 -99q-22 31 -38 58z" />
    <glyph glyph-name="zacute" unicode="&#x17a;" horiz-adv-x="500" 
d="M212 87l2 -4q7 0 107 2q28 2 35 18l33 79q39 -7 88 -21q-14 -61 -40 -162q-2 0 -71 0.5t-109 0.5h-127h-88q-13 35 -25 75l268 277l-1 5h-103q-19 0 -26 -15l-29 -80q-52 8 -92 17q17 89 33 162h19.5t36.5 -0.5t54 -0.5q78 -1 261 -1q18 -55 27 -107q-14 -17 -52 -54.5
l-73.5 -70.5l-78 -73t-49.5 -47zM327 694q32 -31 67 -76l-179 -127l-45 52z" />
    <glyph glyph-name="Zdotaccent" unicode="&#x17b;" horiz-adv-x="605" 
d="M222 102l2 -4q139 0 183 12q22 5 31 30l31 88q85 -17 107 -22l-48 -207q-4 0 -47 0.5t-116.5 0.5h-152.5h-156q-14 30 -32 81l344 467l-2 4h-60q-81 0 -97 -6q-15 -5 -21 -23l-35 -100l-51 10t-54 11q15 89 38 208q2 0 45 -1t61 -1l340 -1q16 -47 31 -114
q-173 -233 -341 -433zM300 846h1q30 0 48.5 -19t18.5 -44q0 -31 -19.5 -50t-51.5 -19q-26 0 -46.5 19.5t-20.5 47.5q0 26 19.5 45.5t50.5 19.5z" />
    <glyph glyph-name="zdotaccent" unicode="&#x17c;" horiz-adv-x="500" 
d="M212 87l2 -4q7 0 107 2q28 2 35 18l33 79q39 -7 88 -21q-14 -61 -40 -162q-2 0 -71 0.5t-109 0.5h-127h-88q-13 35 -25 75l268 277l-1 5h-103q-19 0 -26 -15l-29 -80q-52 8 -92 17q17 89 33 162h19.5t36.5 -0.5t54 -0.5q78 -1 261 -1q18 -55 27 -107q-14 -17 -52 -54.5
l-73.5 -70.5l-78 -73t-49.5 -47zM251 648h1q30 0 48 -18.5t18 -43.5q0 -31 -19 -49.5t-51 -18.5q-26 0 -46 19t-20 47q0 26 19 45t50 19z" />
    <glyph glyph-name="Zcaron" unicode="&#x17d;" horiz-adv-x="605" 
d="M222 102l2 -4q139 0 183 12q22 5 31 30l31 88q85 -17 107 -22l-48 -207q-4 0 -47 0.5t-116.5 0.5h-152.5h-156q-14 30 -32 81l344 467l-2 4h-60q-81 0 -97 -6q-15 -5 -21 -23l-35 -100l-51 10t-54 11q15 89 38 208q2 0 45 -1t61 -1l340 -1q16 -47 31 -114
q-173 -233 -341 -433zM329 802l123 75q22 -22 41 -52l-143 -114q-31 0 -44 1l-142 115q16 22 39 49z" />
    <glyph glyph-name="zcaron" unicode="&#x17e;" horiz-adv-x="500" 
d="M212 87l2 -4q7 0 107 2q28 2 35 18l33 79q39 -7 88 -21q-14 -61 -40 -162q-2 0 -71 0.5t-109 0.5h-127h-88q-13 35 -25 75l268 277l-1 5h-103q-19 0 -26 -15l-29 -80q-52 8 -92 17q17 89 33 162h19.5t36.5 -0.5t54 -0.5q78 -1 261 -1q18 -55 27 -107q-14 -17 -52 -54.5
l-73.5 -70.5l-78 -73t-49.5 -47zM253 590l106 98q25 -19 47 -44l-122 -141q-21 -1 -64 1l-121 140q22 22 50 43z" />
    <glyph glyph-name="florin" unicode="&#x192;" horiz-adv-x="563" 
d="M467 655h1q57 0 98 -17q0 -19 -18.5 -60.5t-34.5 -53.5q-69 23 -94 23q-33 0 -45 -22q-13 -27 -19 -144h167q0 -47 -3 -91h-168q-1 -14 -4 -69.5t-5 -89.5t-6.5 -78.5t-10.5 -69.5q-20 -84 -97.5 -138t-151.5 -54q-54 0 -86 13q0 15 17.5 53.5t30.5 50.5q41 -15 77 -15
q60 0 68 99q7 96 11 298h-118q0 7 3 88q88 2 112 2q6 0 6 8q4 81 21.5 123.5t60.5 76.5q83 67 188 67z" />
    <glyph glyph-name="Scommaaccent" unicode="&#x218;" horiz-adv-x="538" 
d="M138 214l28 -99q2 -6 6 -9q25 -19 66 -19q46 0 69 20q24 19 24 54t-19 50t-83 39q-179 67 -179 197q0 88 68 149q70 64 212 64q93 0 134 -19q6 -56 14 -182q-23 -4 -102 -13l-23 93q-1 5 -4 7q-19 16 -51 16q-35 0 -59 -18q-27 -21 -27 -57t20.5 -51.5t93.5 -40.5
q85 -29 126.5 -74t41.5 -114q0 -101 -74 -160q-73 -57 -212 -57q-98 0 -153 20q-7 54 -22 186q56 12 105 18zM261 -49h1q32 0 57 -28t25 -64q0 -54 -34 -106.5t-93 -83.5q-33 38 -37 44q66 49 66 99q0 19 -15.5 32t-35.5 17q-3 38 17 64t49 26z" />
    <glyph glyph-name="scommaaccent" unicode="&#x219;" horiz-adv-x="447" 
d="M116 159l15 -57q2 -7 8 -11q25 -15 55 -15q27 0 39 5q22 11 22 33q0 19 -14.5 27.5t-65.5 22.5q-134 39 -134 133q0 42 25.5 75t60.5 50q58 29 143 29q86 0 120 -14q10 -84 14 -133q-15 -3 -47.5 -7.5t-42.5 -6.5l-15 53q-2 9 -7 11q-15 11 -39 11q-26 0 -38 -8
q-18 -12 -18 -34q0 -16 16 -24t78 -25q60 -17 90.5 -45t30.5 -84q0 -41 -23.5 -75t-64.5 -55q-53 -25 -148 -25q-79 0 -132 16q-5 40 -16 137q53 11 88 16zM223 -67h1q32 0 57 -25.5t25 -58.5q0 -51 -34 -99t-93 -77q-6 7 -18.5 20t-18.5 20q66 45 66 91q0 35 -51 47
q-3 35 17 58.5t49 23.5z" />
    <glyph glyph-name="uni021A" unicode="&#x21a;" horiz-adv-x="616" 
d="M152 86l68 3q3 0 3 4v466q-34 0 -69 -5q-16 -3 -19 -19l-19 -97l-50 4t-55 5l12 203q9 0 42.5 -0.5t52.5 -0.5h196h187q39 1 95 1q8 -134 9 -202q-23 -3 -106 -10l-16 96q-3 15 -19 19q-22 5 -70 5l-2 -469l72 -3q0 -57 -1 -86q-20 0 -74 0.5t-81 0.5q-24 0 -78 -0.5
t-79 -0.5q0 58 1 86zM301 -31h1q32 0 57 -28t25 -64q0 -54 -34 -106.5t-93 -83.5q-33 38 -37 44q66 49 66 99q0 19 -15.5 32t-35.5 17q-3 38 17 64t49 26z" />
    <glyph glyph-name="uni021B" unicode="&#x21b;" horiz-adv-x="424" 
d="M194 -10h-1q-43 0 -77 31q-22 19 -28.5 36t-6.5 42q0 33 0.5 74t0.5 42q0 12 0.5 70t0.5 61h-70q0 43 3 85q10 1 32.5 3t32.5 2q7 0 7 8q0 3 7 83q23 11 60 24.5t62.5 21.5t27.5 8q3 0 3 -4q-1 -11 -2 -69t-1 -71q26 0 78.5 0.5t75.5 0.5q0 -54 -4 -94q-21 0 -74 0.5
t-76 0.5q0 -2 -0.5 -11.5t-0.5 -28.5v-43v-122q0 -20 14 -32.5t32 -12.5q51 0 109 15q6 -33 12 -84q-93 -36 -217 -36zM231 -54h1q32 0 57 -25.5t25 -58.5q0 -51 -34 -99t-93 -77q-6 7 -18.5 20t-18.5 20q66 45 66 91q0 35 -51 47q-3 35 17 58.5t49 23.5z" />
    <glyph glyph-name="circumflex" unicode="&#x2c6;" horiz-adv-x="450" 
d="M225 589l-103 -96q-28 21 -50 43l121 140q20 1 64 1l122 -142q-24 -26 -47 -43z" />
    <glyph glyph-name="caron" unicode="&#x2c7;" horiz-adv-x="450" 
d="M226 590l106 98q25 -19 47 -44l-122 -141q-21 -1 -64 1l-121 140q22 22 50 43z" />
    <glyph glyph-name="uni02C9" unicode="&#x2c9;" horiz-adv-x="450" 
d="M345 598q2 -37 0 -73q-34 0 -115.5 0.5t-122.5 0.5q-3 29 -1 70q162 2 239 2z" />
    <glyph glyph-name="breve" unicode="&#x2d8;" horiz-adv-x="450" 
d="M225 508h-1q-55 0 -95.5 34.5t-46.5 85.5q36 12 65 16q7 -28 29.5 -44.5t50.5 -16.5q29 0 49.5 17t26.5 41q35 -3 66 -11q-6 -49 -47 -85.5t-97 -36.5z" />
    <glyph glyph-name="dotaccent" unicode="&#x2d9;" horiz-adv-x="450" 
d="M226 651h1q30 0 48 -18.5t18 -43.5q0 -31 -19 -49.5t-51 -18.5q-26 0 -46 19t-20 47q0 26 19 45t50 19z" />
    <glyph glyph-name="ring" unicode="&#x2da;" horiz-adv-x="450" 
d="M227 706h1q52 0 85 -27t33 -71q0 -45 -35 -74.5t-86 -29.5t-85.5 27.5t-34.5 74.5q0 39 35.5 69.5t86.5 30.5zM227 655h-1q-21 0 -34.5 -13.5t-13.5 -35.5q0 -23 14 -37t35 -14q22 0 34.5 14t12.5 38q0 48 -47 48z" />
    <glyph glyph-name="ogonek" unicode="&#x2db;" horiz-adv-x="450" 
d="M207 -121v1q0 33 27.5 68.5t80.5 59.5h49q-66 -52 -66 -111q0 -24 16 -37.5t37 -13.5q16 0 42 8q8 -25 13 -50q-35 -19 -77 -19q-50 0 -86 24.5t-36 69.5z" />
    <glyph glyph-name="tilde" unicode="&#x2dc;" horiz-adv-x="450" 
d="M161 642h1q7 0 15 -2t13 -3.5t14 -6.5t11.5 -6.5t13 -8.5t11.5 -8q35 -21 52 -21q29 0 36 50q30 2 56 0q-4 -59 -28 -95t-67 -36q-21 0 -69 31q-5 3 -15.5 10t-15 9.5t-12.5 5t-15 2.5q-31 0 -39 -52h-57q6 59 29.5 95t65.5 36z" />
    <glyph glyph-name="hungarumlaut" unicode="&#x2dd;" horiz-adv-x="450" 
d="M199 685q23 -18 56 -60l-151 -120l-13.5 13.5l-16.5 16.5l-14 14zM363 680q25 -21 56 -60l-148 -121l-43 44z" />
    <glyph glyph-name="Delta" unicode="&#x394;" horiz-adv-x="637" 
d="M14 0v79l205 575h203l200 -574v-80h-608zM190 132h245l-81 254q-22 71 -39 142h-9q-1 -2 -14 -56t-21 -79z" />
    <glyph glyph-name="Delta" unicode="&#x2206;" horiz-adv-x="637" 
d="M14 0v79l205 575h203l200 -574v-80h-608zM190 132h245l-81 254q-22 71 -39 142h-9q-1 -2 -14 -56t-21 -79z" />
    <glyph glyph-name="Omega" unicode="&#x3a9;" horiz-adv-x="732" 
d="M699 123v-123h-298v94q118 92 118 245q0 83 -41 138.5t-109 55.5t-111.5 -55t-43.5 -140q0 -75 34 -144t84 -100v-94h-300v123h125v7q-46 36 -79.5 94.5t-33.5 135.5q0 127 91.5 214.5t235.5 87.5q75 0 136 -25t100 -66.5t60 -93t21 -106.5q0 -144 -116 -241v-7h127z" />
    <glyph glyph-name="Omega" unicode="&#x2126;" horiz-adv-x="732" 
d="M699 123v-123h-298v94q118 92 118 245q0 83 -41 138.5t-109 55.5t-111.5 -55t-43.5 -140q0 -75 34 -144t84 -100v-94h-300v123h125v7q-46 36 -79.5 94.5t-33.5 135.5q0 127 91.5 214.5t235.5 87.5q75 0 136 -25t100 -66.5t60 -93t21 -106.5q0 -144 -116 -241v-7h127z" />
    <glyph glyph-name="pi" unicode="&#x3c0;" horiz-adv-x="601" 
d="M571 358h-56v-207q0 -99 11 -151h-158q-16 27 -16 140v218h-94q-1 -90 -14.5 -197.5t-34.5 -160.5h-157q21 73 35 179t12 179h-43q-18 -1 -40 -5l-16 95q36 33 179 33h408z" />
    <glyph glyph-name="figuredash" unicode="&#x2012;" horiz-adv-x="563" 
d="M43 342h4q88 -1 250 1q89 0 227 2q0 -38 -4 -94h-221q-34 0 -126 0.5t-133 0.5q0 48 3 90z" />
    <glyph glyph-name="endash" unicode="&#x2013;" horiz-adv-x="500" 
d="M268 197h-1q-30 0 -112.5 0.5t-116.5 0.5q0 48 3 90q75 -1 225 1q85 0 197 2q0 -38 -4 -94h-191z" />
    <glyph glyph-name="emdash" unicode="&#x2014;" horiz-adv-x="1000" 
d="M512 197h-1q-336 0 -473 1q0 10 0.5 28t1 33.5t1.5 28.5q155 -1 464 1q192 0 458 2q0 -55 -4 -94h-447z" />
    <glyph glyph-name="quoteleft" unicode="&#x2018;" horiz-adv-x="277" 
d="M149 381h-1q-36 0 -65.5 34.5t-29.5 76.5q0 66 44 132.5t109 97.5q18 -18 44 -54q-77 -56 -77 -115q0 -15 6 -26t17 -17.5t19.5 -9.5t21.5 -7q1 -50 -23 -81t-65 -31z" />
    <glyph glyph-name="quoteright" unicode="&#x2019;" horiz-adv-x="277" 
d="M132 699h1q38 0 67 -33.5t29 -75.5q0 -67 -44 -134.5t-110 -97.5q-32 39 -43 55q77 55 77 115q0 43 -62 64q-3 47 21 77t64 30z" />
    <glyph glyph-name="quotesinglbase" unicode="&#x201a;" horiz-adv-x="281" 
d="M138 160h1q38 0 67 -33.5t29 -75.5q0 -67 -44 -134.5t-110 -97.5q-32 39 -43 55q77 54 77 115q0 44 -62 63q-3 48 21 78t64 30z" />
    <glyph glyph-name="quotedblleft" unicode="&#x201c;" horiz-adv-x="481" 
d="M144 414h-1q-36 0 -63 31t-27 70q0 63 41.5 125t102.5 90q27 -30 41 -52q-73 -52 -73 -105q0 -18 10.5 -30t21 -16.5t26.5 -9.5q7 -43 -17 -73t-62 -30zM360 414h-1q-35 0 -62 31t-27 70q0 63 41.5 125t102.5 90q18 -20 40 -52q-72 -52 -72 -105q0 -18 11 -30.5t20 -16.5
t26 -9q5 -44 -18 -73.5t-61 -29.5z" />
    <glyph glyph-name="quotedblright" unicode="&#x201d;" horiz-adv-x="481" 
d="M126 699h1q36 0 62.5 -31t26.5 -71q0 -63 -40.5 -125t-102.5 -90q-27 30 -41 52q72 51 72 106q0 38 -57 59q-4 42 19 71t60 29zM343 699h1q36 0 62.5 -31t26.5 -71q0 -63 -40.5 -125t-101.5 -90q-31 38 -41 52q72 53 72 106q0 39 -58 58q-4 44 19 72.5t60 28.5z" />
    <glyph glyph-name="quotedblbase" unicode="&#x201e;" horiz-adv-x="484" 
d="M132 151h1q36 0 62.5 -31t26.5 -71q0 -62 -40.5 -124t-102.5 -91q-27 30 -41 52q72 51 72 106q0 38 -57 59q-4 42 19 71t60 29zM348 151h1q36 0 62.5 -31t26.5 -71q0 -62 -40.5 -124t-100.5 -91l-42 52q72 53 72 106q0 39 -58 58q-3 45 19.5 73t59.5 28z" />
    <glyph glyph-name="dagger" unicode="&#x2020;" horiz-adv-x="569" 
d="M356 655h1v-3q-1 -23 -3 -95t-3 -116h169q1 -39 -4 -101q-27 0 -84.5 0.5t-82.5 0.5q-9 -281 -15 -534q-12 -8 -51.5 -14t-53.5 -6q-2 69 -10 261t-11 294h-164q0 54 3 96q27 0 79 1t73 1q6 0 6 8q-1 33 -6 162q32 15 84 30t73 15z" />
    <glyph glyph-name="daggerdbl" unicode="&#x2021;" horiz-adv-x="569" 
d="M357 655h1v-3q-4 -87 -8 -211q57 1 174 1q0 -44 -5 -101h-171q0 -27 -1.5 -91t-2.5 -98q27 0 87.5 -0.5t88.5 -0.5q0 -53 -4 -97h-176q-2 -51 -3.5 -138t-2.5 -111q-14 -7 -51.5 -12.5t-53.5 -5.5q-2 45 -5 133t-5 133q-17 0 -173 -2q0 58 4 103q27 0 81 -0.5t77 -0.5
q6 0 6 8q-1 33 -2.5 93.5t-1.5 86.5h-168q2 57 3 98q26 0 79.5 1t75.5 1q6 0 6 7q-1 30 -3.5 87.5t-3.5 73.5q18 14 76 30t82 16z" />
    <glyph glyph-name="bullet" unicode="&#x2022;" horiz-adv-x="421" 
d="M212 403h1q66 0 102 -43t36 -102q0 -58 -39.5 -100.5t-100.5 -42.5q-59 0 -99.5 38t-40.5 100q0 60 39 105t102 45z" />
    <glyph glyph-name="onedotenleader" unicode="&#x2024;" horiz-adv-x="318" 
d="M161 156h1q38 0 60.5 -23.5t22.5 -57.5q0 -39 -24.5 -62t-63.5 -23q-32 0 -58 23.5t-26 59.5q0 34 24.5 58.5t63.5 24.5z" />
    <glyph glyph-name="twodotenleader" unicode="&#x2025;" horiz-adv-x="635" 
d="M161 156h1q38 0 60.5 -23.5t22.5 -57.5q0 -39 -24.5 -62t-63.5 -23q-32 0 -58 23.5t-26 59.5q0 34 24.5 58.5t63.5 24.5zM478 156h1q38 0 60.5 -23.5t22.5 -57.5q0 -39 -24.5 -62t-63.5 -23q-32 0 -58 23.5t-26 59.5q0 34 24.5 58.5t63.5 24.5z" />
    <glyph glyph-name="ellipsis" unicode="&#x2026;" horiz-adv-x="953" 
d="M161 156h1q38 0 60.5 -23.5t22.5 -57.5q0 -39 -24.5 -62t-63.5 -23q-32 0 -58 23.5t-26 59.5q0 34 24.5 58.5t63.5 24.5zM479 156h1q38 0 60.5 -23.5t22.5 -57.5q0 -39 -24.5 -62t-63.5 -23q-32 0 -58 23.5t-26 59.5q0 34 24.5 58.5t63.5 24.5zM797 156h1
q38 0 60.5 -23.5t22.5 -57.5q0 -39 -24.5 -62t-63.5 -23q-32 0 -58 23.5t-26 59.5q0 34 24.5 58.5t63.5 24.5z" />
    <glyph glyph-name="perthousand" unicode="&#x2030;" horiz-adv-x="1243" 
d="M547 589l-6 3q-109 0 -199 1q35 -33 35 -112q0 -108 -73 -161q-41 -32 -102 -32q-60 0 -101 31q-62 46 -62 151q0 101 68 150q43 32 114 32q214 -2 406 10q11 -16 33 -54l-206 -322l-206 -321q-35 17 -69 38l204 320zM210 591h-1q-13 0 -25 -13q-22 -25 -22 -108
q0 -86 18 -106q12 -15 28 -15q18 0 28 13q18 22 18 110q0 77 -15 103q-9 16 -29 16zM652 353h1q69 0 106 -34q55 -48 55 -141q0 -51 -19 -92.5t-50 -65.5q-40 -31 -100 -31q-62 0 -102 28q-26 19 -45 58t-19 88q0 45 19 88.5t47 65.5q46 36 107 36zM1040 353h1q69 0 106 -34
q55 -48 55 -141q0 -105 -68 -158q-41 -31 -101 -31q-61 0 -102 28q-26 19 -45 58t-19 88q0 45 19 88.5t47 65.5q46 36 107 36zM648 292h-1q-14 0 -27 -14q-19 -21 -19 -111q0 -84 16 -102q11 -15 29 -15q16 0 27 13q19 21 19 107q0 82 -16 106q-9 16 -28 16zM1037 292h-1
q-14 0 -27 -14q-19 -21 -19 -111q0 -84 16 -102q11 -15 29 -15q16 0 27 13q19 21 19 107q0 82 -16 106q-9 16 -28 16z" />
    <glyph glyph-name="guilsinglleft" unicode="&#x2039;" horiz-adv-x="301" 
d="M170 220l95 -158q-18 -18 -50 -42l-163 165q-2 21 -2 67l167 165q11 -7 48 -42z" />
    <glyph glyph-name="guilsinglright" unicode="&#x203a;" horiz-adv-x="301" 
d="M131 221l-94 155q30 30 49 43l165 -166q0 -25 -2 -67l-165 -167q-25 20 -48 43z" />
    <glyph glyph-name="fraction" unicode="&#x2044;" horiz-adv-x="475" 
d="M72 -18q-2 1 -27.5 15t-39.5 23l180 285l214 358q45 -20 72 -40l-219 -355z" />
    <glyph glyph-name="zerosuperior" unicode="&#x2070;" 
d="M355 571v-1q0 -102 -58 -150q-40 -34 -109 -34q-63 0 -101 34q-53 46 -53 136q0 104 59 158q38 38 111 38q68 0 104 -39q47 -49 47 -142zM196 696h-1q-16 0 -26 -18q-15 -28 -15 -119q0 -81 15 -104q9 -13 25 -13t23 10q19 24 19 106q0 93 -14 121q-8 17 -26 17z" />
    <glyph glyph-name="foursuperior" unicode="&#x2074;" 
d="M299 444l42 -1q0 -33 -1 -49h-105h-109v48l74 2q3 0 3 3v28h-155q-18 36 -28 66l83 107l84 102q3 0 114 -3q0 -29 -0.5 -100t-0.5 -105h63q0 -41 -2 -63h-62v-35zM204 667h-7q-12 -17 -29 -38.5t-22 -29.5l-35 -50q-4 -7 3 -7h89z" />
    <glyph glyph-name="fivesuperior" unicode="&#x2075;" 
d="M71 550l-11 11q6 78 22 185h128h122q0 -28 -4 -76q-36 0 -92.5 0.5t-76.5 0.5q-8 -43 -9 -48q17 2 48 2q66 0 103.5 -30t37.5 -76q0 -68 -52 -102q-44 -31 -137 -31q-65 0 -90 8q-7 49 -14 105q39 9 75 13l14 -56q1 -3 5 -5q9 -6 30 -6q26 0 40 13q15 14 15 38
q0 56 -86 56q-48 0 -68 -2z" />
    <glyph glyph-name="sixsuperior" unicode="&#x2076;" 
d="M157 601h4q33 19 77 19q50 0 80 -28q33 -33 33 -75q0 -61 -43 -98q-40 -33 -111 -33t-107 32q-50 41 -50 131q0 92 57 153q50 50 146 50q41 0 72 -7q8 -59 10 -93q-36 -6 -74 -11l-12 41q-1 6 -5 7q-6 3 -15 3q-23 0 -36 -16q-20 -25 -26 -75zM202 439h1q19 0 26 13
q8 15 8 46q0 34 -13 48q-9 10 -25 10q-20 0 -41 -18q-1 -55 15 -82q9 -17 29 -17z" />
    <glyph glyph-name="sevensuperior" unicode="&#x2077;" 
d="M249 662v3q-102 0 -108 -2q-7 -2 -10 -10l-15 -46q-72 12 -74 13q4 34 18 127q9 0 31.5 -0.5t32.5 -0.5h210q13 -31 22 -72q-100 -148 -115 -213q-6 -23 -6 -67q-53 -4 -115 -4q-1 42 11 73q22 58 118 199z" />
    <glyph glyph-name="eightsuperior" unicode="&#x2078;" 
d="M275 588v-3q36 -12 56.5 -35t20.5 -51q0 -46 -32 -75q-45 -38 -134 -38q-81 0 -116 26q-34 25 -34 65q0 28 20.5 52t55.5 37v3q-61 29 -61 82q0 48 42 75q38 26 108 26q73 0 106 -25q30 -22 30 -58q0 -51 -62 -81zM153 663v-1q0 -15 13 -25t47 -22q26 16 26 44
q0 19 -9 28q-9 11 -31 11t-33 -8q-13 -9 -13 -27zM244 480v1q0 18 -16 30t-55 27q-27 -18 -27 -53q0 -21 14 -33t37 -12q19 0 33 9t14 31z" />
    <glyph glyph-name="ninesuperior" unicode="&#x2079;" 
d="M229 539h-2q-32 -20 -77 -20q-51 0 -80 29q-34 30 -34 76q0 53 45 94q40 34 110 34q71 0 106 -34q50 -44 50 -131q0 -97 -60 -154q-50 -47 -140 -47q-52 0 -84 8l-8.5 47l-7.5 43q50 12 74 16l15 -41q2 -7 8 -10q8 -3 19 -3q29 0 40 15q23 25 26 78zM185 698h-1
q-16 0 -23 -12q-11 -17 -11 -47q0 -29 14 -46q9 -11 24 -11q22 0 40 15q1 57 -15 86q-9 15 -28 15z" />
    <glyph glyph-name="parenleftsuperior" unicode="&#x207d;" horiz-adv-x="297" 
d="M79 547v1q0 87 45.5 155t110.5 105q16 -13 34 -37q-84 -74 -84 -216q0 -75 21 -127.5t62 -99.5q-18 -20 -38 -34q-45 33 -74.5 62.5t-53 80t-23.5 110.5z" />
    <glyph glyph-name="parenrightsuperior" unicode="&#x207e;" horiz-adv-x="297" 
d="M221 561v-1q0 -88 -44 -155t-110 -111q-24 22 -37 35q85 90 85 227q0 134 -82 218q21 21 38 34q150 -97 150 -247z" />
    <glyph glyph-name="nsuperior" unicode="&#x207f;" horiz-adv-x="470" 
d="M70 556l-48 2q0 43 1 62q15 1 52 6.5t67.5 10.5t32.5 5t2 -2q5 -37 8 -48l4 -1q57 34 78.5 43t48.5 9q22 0 43.5 -16.5t34.5 -38.5q18 -31 18 -69q0 -8 -3 -161l38 -2q0 -10 -0.5 -31.5t-0.5 -31.5h-96h-93v62l31 2q3 0 3 3v34v41.5v32.5q0 55 -6 66q-10 17 -29 17
q-28 0 -66 -27q0 -24 -0.5 -83.5t-0.5 -82.5l33 -3q0 -42 -1 -62h-93h-99q0 10 0.5 31t0.5 31l37 2q4 0 4 3z" />
    <glyph glyph-name="zeroinferior" unicode="&#x2080;" 
d="M355 57v-1q0 -102 -58 -150q-40 -34 -109 -34q-63 0 -101 34q-53 46 -53 136q0 104 59 158q38 38 111 38q68 0 104 -39q47 -49 47 -142zM196 182h-1q-16 0 -26 -18q-15 -28 -15 -119q0 -82 15 -104q9 -13 25 -13t23 10q19 24 19 106q0 93 -14 121q-8 17 -26 17z" />
    <glyph glyph-name="oneinferior" unicode="&#x2081;" 
d="M271 -60l82 -1q0 -40 -1 -59h-132h-155q0 39 1 59l90 1q2 0 2 3v191q-26 -3 -93 -12q-8 50 -9 59q31 8 83.5 24l89 27t42.5 11q1 0 1 -3q0 -42 -0.5 -147t-0.5 -153z" />
    <glyph glyph-name="twoinferior" unicode="&#x2082;" 
d="M337 127v-1q0 -73 -110 -146q-15 -11 -39 -22v-5q13 0 44.5 1t67 3t41.5 2q1 0 1 -1q0 -31 -4 -79q-20 0 -99.5 0.5t-99.5 0.5h-83q-10 31 -16 55q56 35 86 60q91 75 91 129q0 21 -12 36q-9 12 -30 12q-20 0 -33 -10q-3 -2 -3 -6l-13 -59q-11 0 -72 6q1 42 5 113
q56 22 133 22t111 -32t34 -79z" />
    <glyph glyph-name="threeinferior" unicode="&#x2083;" 
d="M123 -1l12 -56q1 -3 5 -6q8 -5 24 -5q28 0 41 10q16 14 16 33q0 52 -78 52h-35q-2 41 -1 60q66 -1 88 13t22 44q0 15 -10 25q-9 9 -30 9q-20 0 -33 -9q-3 -1 -3 -5l-11 -51q-50 4 -75 5q2 67 4 101q59 19 132 19q81 0 109 -22q35 -28 35 -61q0 -63 -75 -83v-5
q40 -6 61.5 -30.5t21.5 -53.5q0 -52 -47 -82q-43 -29 -138 -29q-63 0 -101 8q-6 39 -11 108q24 5 77 11z" />
    <glyph glyph-name="fourinferior" unicode="&#x2084;" 
d="M299 -70l42 -1q0 -33 -1 -49h-105h-109v48l74 2q3 0 3 3v28h-155q-18 36 -28 66l83 107l84 102q3 0 114 -3q0 -29 -0.5 -100t-0.5 -105h63q0 -41 -2 -63h-62v-35zM204 153h-7q-12 -17 -29 -38.5t-22 -29.5l-35 -50q-4 -7 3 -7h89z" />
    <glyph glyph-name="fiveinferior" unicode="&#x2085;" 
d="M71 36l-11 11q6 78 22 185h128h122q0 -28 -4 -76q-36 0 -92.5 0.5t-76.5 0.5q-8 -43 -9 -48q17 2 48 2q66 0 103.5 -30t37.5 -76q0 -68 -52 -102q-44 -31 -137 -31q-65 0 -90 8q-7 49 -14 105q39 9 75 13l14 -56q1 -3 5 -5q9 -6 30 -6q26 0 40 13q15 13 15 38
q0 56 -86 56q-48 0 -68 -2z" />
    <glyph glyph-name="sixinferior" unicode="&#x2086;" 
d="M157 87h4q33 19 77 19q50 0 80 -28q33 -33 33 -75q0 -61 -43 -98q-40 -33 -111 -33t-107 32q-50 41 -50 131q0 92 57 153q50 50 146 50q41 0 72 -7q8 -59 10 -93q-36 -6 -74 -11l-12 41q-1 6 -5 7q-6 3 -15 3q-23 0 -36 -16q-20 -25 -26 -75zM202 -75h1q19 0 26 13
q8 15 8 46q0 34 -13 48q-9 10 -25 10q-20 0 -41 -18q-1 -55 15 -82q9 -17 29 -17z" />
    <glyph glyph-name="seveninferior" unicode="&#x2087;" 
d="M249 148v3q-102 0 -108 -2q-7 -2 -10 -10l-15 -46q-72 12 -74 13q4 34 18 127q9 0 31.5 -0.5t32.5 -0.5h210q13 -31 22 -72q-100 -148 -115 -213q-6 -23 -6 -67q-53 -4 -115 -4q-1 42 11 73q22 58 118 199z" />
    <glyph glyph-name="eightinferior" unicode="&#x2088;" 
d="M275 74v-3q36 -12 56.5 -35t20.5 -51q0 -46 -32 -75q-45 -38 -134 -38q-81 0 -116 26q-34 25 -34 65q0 28 20.5 52t55.5 37v3q-61 29 -61 82q0 48 42 75q38 26 108 26q73 0 106 -25q30 -22 30 -58q0 -51 -62 -81zM153 149v-1q0 -15 13 -25t47 -22q26 16 26 44q0 19 -9 28
q-9 11 -31 11t-33 -8q-13 -9 -13 -27zM244 -34v1q0 18 -16 30t-55 27q-27 -18 -27 -53q0 -21 14 -33t37 -12q19 0 33 9t14 31z" />
    <glyph glyph-name="nineinferior" unicode="&#x2089;" 
d="M229 25h-2q-32 -20 -77 -20q-51 0 -80 29q-34 30 -34 76q0 53 45 94q40 34 110 34q71 0 106 -34q50 -44 50 -131q0 -97 -60 -154q-50 -47 -140 -47q-52 0 -84 8l-8.5 47l-7.5 43q50 12 74 16l15 -41q2 -7 8 -10q8 -3 19 -3q29 0 40 15q23 25 26 78zM185 184h-1
q-16 0 -23 -12q-11 -17 -11 -47q0 -29 14 -46q9 -11 24 -11q22 0 40 15q1 57 -15 86q-9 15 -28 15z" />
    <glyph glyph-name="parenleftinferior" unicode="&#x208d;" horiz-adv-x="297" 
d="M79 33v1q0 87 45.5 155t110.5 105q16 -13 34 -37q-84 -74 -84 -216q0 -75 21 -127.5t62 -99.5q-18 -20 -38 -34q-45 33 -74.5 62.5t-53 80t-23.5 110.5z" />
    <glyph glyph-name="parenrightinferior" unicode="&#x208e;" horiz-adv-x="297" 
d="M221 47v-1q0 -88 -44 -155t-110 -111q-24 22 -37 35q85 90 85 227q0 134 -82 218q21 21 38 34q150 -97 150 -247z" />
    <glyph glyph-name="colonmonetary" unicode="&#x20a1;" horiz-adv-x="568" 
d="M406 30l-8 -109q-25 -3 -55 -3l8 107q-42 0 -60 2l-8 -106q-26 -3 -55 -3l8 118q-104 25 -155 95.5t-51 157.5q0 117 65 204t181 117l8 111q38 6 63 6l-9 -107q18 2 55 2l6 98q35 7 64 7l-10 -110q66 -2 115 -32q0 -26 -17 -60t-35 -49q-42 30 -73 37l-30 -389
q67 7 112 21q5 -22 15 -84q-55 -20 -134 -31zM359 122l28 405q-25 4 -58 0l-29 -398q25 -7 59 -7zM247 153l25 357q-38 -20 -63.5 -71.5t-25.5 -120.5q0 -122 64 -165z" />
    <glyph glyph-name="Euro" unicode="&#x20ac;" horiz-adv-x="563" 
d="M-1 318v55h57q28 124 127 203q48 37 110.5 58t121.5 21q80 0 120 -15q9 -99 15 -202q-60 -9 -104 -14l-23 104q-2 8 -6 11q-19 13 -36 13q-44 0 -84 -41q-50 -53 -63 -138h149v-55h-153v-6q0 -33 4 -58h149v-52l-135 1q12 -38 39 -63q20 -19 52.5 -29.5t55.5 -10.5
q74 0 140 27q12 -42 17 -93q-111 -44 -190 -44q-125 0 -204 59q-76 56 -99 154l-60 -1v52h49q0 5 -0.5 14.5t-0.5 14.5q0 9 2 35h-50z" />
    <glyph glyph-name="afii61289" unicode="&#x2113;" horiz-adv-x="554" 
d="M452 191l71 -70q-80 -133 -229 -133q-145 0 -180 132q0 4 -5 9l-25 -16t-19 -12l-40 82q29 18 84 57v207q0 121 51.5 182t138.5 61q73 0 116 -45t43 -122q0 -81 -47 -152t-150 -158v-14q0 -38 20 -59t54 -21q56 0 117 72zM261 469v-119q80 89 80 171q0 67 -36 67
q-44 0 -44 -119z" />
    <glyph glyph-name="trademark" unicode="&#x2122;" horiz-adv-x="665" 
d="M89 440l29 1v163q-22 0 -30 -4l-8 -48q-8 0 -25 2t-25 2q2 36 4 94q21 0 63.5 -0.5t63.5 -0.5q20 0 60 0.5t60 0.5q0 -12 1.5 -43l2.5 -51q-8 0 -25 -1.5t-26 -2.5l-8 49q-8 3 -28 3l-1 -163l28 -1v-45h-65h-72q0 30 1 45zM302 439l27 1q2 49 2 162l-28 1q0 32 1 47
q20 0 61.5 -0.5t60.5 -0.5l38 -142h5l42 142q18 0 57 0.5t58 0.5v-47l-28 -1q1 -49 1 -162l28 -1v-44h-56h-55v44l18 1v112h-5q-26 -85 -47 -143h-45q-28 82 -46 145h-6v-114l19 -1v-44h-49h-53v44z" />
    <glyph glyph-name="estimated" unicode="&#x212e;" horiz-adv-x="833" 
d="M790 313h-605q-5 0 -5 -5l1 -181q0 -14 8 -22q93 -99 231 -99q146 0 242 111h54q-52 -61 -129.5 -96t-167.5 -35q-156 0 -266 98t-110 237t109.5 238t264.5 99q154 0 263.5 -99t109.5 -238v-8zM653 337v184q0 12 -10 22q-95 95 -226 95q-134 0 -228 -97q-9 -9 -9 -24
v-180q0 -5 5 -5h463q5 0 5 5z" />
    <glyph glyph-name="onethird" unicode="&#x2153;" horiz-adv-x="891" 
d="M261 353l82 -1q0 -40 -1 -59h-132h-155q0 39 1 59l90 1q2 0 2 3v191q-13 -1 -27.5 -3t-33.5 -5l-32 -5l-9 60q31 8 83.5 24l89 27t42.5 11q1 0 1 -3q0 -42 -0.5 -147.5t-0.5 -152.5zM282 -18q-2 1 -27.5 15t-39.5 23l179 285l215 358q45 -20 72 -40l-219 -356zM616 119
l12 -56q1 -3 5 -6q7 -5 24 -5q28 0 41 10q16 14 16 33q0 52 -78 52h-35q-2 41 -1 60q66 -1 88 13t22 44q0 15 -10 25q-9 9 -30 9q-20 0 -33 -9q-3 -1 -3 -5l-11 -51q-50 4 -75 5q2 67 4 101q59 19 132 19q81 0 109 -22q35 -28 35 -61q0 -63 -75 -83v-5q40 -6 61.5 -30.5
t21.5 -53.5q0 -52 -47 -82q-43 -29 -138 -29q-63 0 -101 8q-6 39 -11 108q24 5 77 11z" />
    <glyph glyph-name="twothirds" unicode="&#x2154;" horiz-adv-x="891" 
d="M337 540v-1q0 -73 -110 -146q-15 -11 -39 -22v-5q13 0 44.5 1t67 3t41.5 2q1 0 1 -1q0 -31 -4 -79q-20 0 -99.5 0.5t-99.5 0.5h-83q-10 31 -16 55q56 35 86 60q91 77 91 129q0 22 -12 37q-9 12 -30 12q-20 0 -33 -10q-3 -2 -3 -6l-13 -59q-31 1 -72 5q1 43 5 114
q56 22 133 22t111 -32t34 -80zM290 -18q-2 1 -27.5 15t-39.5 23l180 285l215 358q41 -19 72 -40l-219 -356zM625 119l12 -56q1 -3 5 -6q8 -5 24 -5q29 0 40 10q16 14 16 33q0 52 -77 52h-35q-2 41 -1 60q65 -1 87 13t22 44q0 15 -10 25q-9 9 -29 9q-22 0 -33 -9q-3 -1 -3 -5
l-11 -51q-50 4 -75 5q2 67 4 101q59 19 131 19q81 0 109 -22q35 -28 35 -61q0 -63 -75 -83v-5q40 -6 61.5 -30.5t21.5 -53.5q0 -52 -47 -82q-43 -29 -137 -29q-63 0 -101 8q-6 39 -11 108q24 5 77 11z" />
    <glyph glyph-name="oneeighth" unicode="&#x215b;" horiz-adv-x="891" 
d="M266 353l82 -1q0 -40 -1 -59h-132h-155q0 39 1 59l90 1q2 0 2 3v191q-13 -1 -27.5 -3t-33.5 -5l-32 -5q-4 32 -9 60q31 8 83.5 24l89 27t42.5 11q1 0 1 -3q0 -42 -0.5 -147.5t-0.5 -152.5zM287 -18q-2 1 -27.5 15t-39.5 23l179 285l215 358q45 -20 72 -40l-219 -356z
M767 194v-3q36 -12 56.5 -35t20.5 -52q0 -45 -32 -74q-45 -38 -134 -38q-81 0 -116 26q-34 25 -34 65q0 28 20.5 51.5t55.5 37.5v3q-61 29 -61 82q0 47 42 75q41 26 108 26q73 0 106 -25q30 -22 30 -58q0 -51 -62 -81zM645 269v-1q0 -15 13 -25t47 -22q26 16 26 44
q0 19 -9 28q-9 11 -31 11t-33 -8q-13 -9 -13 -27zM736 86v1q0 18 -16 30t-55 26q-27 -18 -27 -52q0 -21 14 -33t37 -12q19 0 33 9t14 31z" />
    <glyph glyph-name="threeeighths" unicode="&#x215c;" horiz-adv-x="891" 
d="M142 413l12 -56q1 -3 5 -6q7 -5 24 -5q29 0 40 10q16 14 16 33q0 52 -77 52h-35q-2 41 -1 60q65 -1 87 13t22 43q0 15 -10 25q-9 9 -29 9q-22 0 -33 -9q-3 -2 -3 -5l-11 -50q-13 1 -38 2.5t-37 2.5q2 65 4 100q59 19 131 19q81 0 109 -22q35 -28 35 -61q0 -62 -75 -82v-5
q40 -6 61.5 -30.5t21.5 -53.5q0 -52 -47 -82q-43 -29 -137 -29q-63 0 -101 8q-6 39 -11 108q24 5 77 11zM277 -18q-6 3 -29.5 16t-36.5 22l179 285l214 358q45 -20 72 -40l-218 -356zM758 194v-3q36 -11 56.5 -34t20.5 -52q0 -46 -32 -75q-45 -38 -135 -38q-81 0 -116 26
q-34 25 -34 65q0 28 21 52t56 37v3q-61 29 -61 82q0 47 42 75q41 26 108 26q73 0 106 -25q30 -22 30 -58q0 -51 -62 -81zM636 269v-1q0 -15 13 -25t47 -22q26 16 26 44q0 19 -9 28q-9 11 -31 11t-33 -8q-13 -9 -13 -27zM727 86v1q0 18 -16 30t-55 27q-28 -18 -28 -53
q0 -21 15 -33q12 -12 37 -12q20 0 33 9q14 9 14 31z" />
    <glyph glyph-name="fiveeighths" unicode="&#x215d;" horiz-adv-x="891" 
d="M94 449l-11 11q6 78 22 185h128h122q0 -28 -4 -76q-36 0 -92.5 0.5t-76.5 0.5q-8 -43 -9 -48q17 2 48 2q66 0 103.5 -30t37.5 -76q0 -67 -52 -101q-44 -31 -137 -31q-65 0 -90 8q-7 49 -14 105q28 6 75 12l14 -55q1 -3 5 -5q9 -6 30 -6q26 0 40 13q15 14 15 37
q0 56 -86 56q-48 0 -68 -2zM273 -18q-2 1 -27.5 15t-39.5 23l179 286l215 357q45 -20 72 -40l-219 -355zM754 194v-3q36 -12 56.5 -35t20.5 -51q0 -46 -32 -75q-45 -38 -135 -38q-81 0 -116 26q-34 25 -34 65q0 28 20.5 52t55.5 37v3q-61 29 -61 82q0 47 42 75q41 26 109 26
q73 0 106 -25q30 -22 30 -58q0 -51 -62 -81zM631 269v-1q0 -15 13 -25t48 -22q26 16 26 44q0 19 -9 28q-9 11 -32 11q-21 0 -33 -8q-13 -9 -13 -27zM723 86v1q0 18 -16 30t-55 27q-28 -18 -28 -53q0 -21 15 -33q12 -12 37 -12q20 0 33 9q14 9 14 31z" />
    <glyph glyph-name="seveneighths" unicode="&#x215e;" horiz-adv-x="891" 
d="M274 561v3q-102 0 -108 -2q-7 -2 -10 -10l-15 -46q-72 12 -74 13q4 34 18 127q9 0 31.5 -0.5t32.5 -0.5h210q13 -31 22 -72q-100 -148 -115 -213q-6 -22 -6 -66q-53 -4 -115 -4q-1 43 11 72q22 58 118 199zM233 -18q-6 3 -29.5 16t-36.5 22l179 286l214 357
q40 -18 73 -40l-219 -355zM714 195v-3q36 -12 56.5 -35t20.5 -52q0 -46 -32 -75q-45 -38 -135 -38q-81 0 -116 26q-34 25 -34 65q0 28 21 52t56 38v2q-61 31 -61 82q0 47 42 75q41 26 108 26q73 0 106 -25q30 -22 30 -57q0 -53 -62 -81zM592 269v-1q0 -14 13 -24.5t47 -22.5
q26 16 26 44q0 19 -9 28q-9 11 -31 11t-33 -8q-13 -9 -13 -27zM683 86v1q0 18 -16 30t-55 27q-28 -18 -28 -53q0 -21 15 -33q12 -12 37 -12q20 0 33 9q14 9 14 31z" />
    <glyph glyph-name="partialdiff" unicode="&#x2202;" horiz-adv-x="586" 
d="M89 558l-44 105q92 55 198 55q134 0 223.5 -93.5t89.5 -252.5q0 -180 -91.5 -281.5t-221.5 -101.5q-54 0 -98 21.5t-70 55.5t-40 72.5t-14 76.5q0 103 61.5 170t160.5 67q44 0 82.5 -22.5t58.5 -45.5h1v13q0 83 -44 138.5t-122 55.5q-69 0 -130 -33zM280 329h-1
q-42 0 -67.5 -35t-25.5 -87q0 -42 21.5 -66t54.5 -24h1q40 0 69 44t35 100q-6 25 -29.5 46.5t-57.5 21.5z" />
    <glyph glyph-name="product" unicode="&#x220f;" horiz-adv-x="681" 
d="M568 515v-586h-150v586h-155v-586h-150v586h-91v134h637v-134h-91z" />
    <glyph glyph-name="summation" unicode="&#x2211;" horiz-adv-x="543" 
d="M19 -71v91l206 266l-195 257v106h481v-134h-272v-7l159 -215l-169 -224v-7h306v-133h-516z" />
    <glyph glyph-name="minus" unicode="&#x2212;" horiz-adv-x="563" 
d="M499 193l-437 1q0 2 3 89q65 0 243.5 2t194.5 2q0 -36 -4 -94z" />
    <glyph glyph-name="uni2215" unicode="&#x2215;" horiz-adv-x="475" 
d="M72 -18q-2 1 -27.5 15t-39.5 23l180 285l214 358q45 -20 72 -40l-219 -355z" />
    <glyph glyph-name="uni2219" unicode="&#x2219;" horiz-adv-x="298" 
d="M150 343h1q38 0 60.5 -24t22.5 -58q0 -38 -24.5 -61t-63.5 -23q-33 0 -58.5 23.5t-25.5 58.5q0 34 24 59t64 25z" />
    <glyph glyph-name="radical" unicode="&#x221a;" horiz-adv-x="597" 
d="M622 844l-227 -918h-114l-158 406l-80 -31l-26 74l188 77l101 -283q4 -10 26 -87h1q11 58 19 91l157 671h113z" />
    <glyph glyph-name="infinity" unicode="&#x221e;" horiz-adv-x="758" 
d="M560 91h-1q-34 0 -70 17.5t-57.5 35.5t-53.5 49q-60 -57 -88 -74q-46 -28 -100 -28q-73 0 -119.5 49.5t-46.5 124.5q0 71 48.5 122t125.5 51q35 0 71 -17.5t57.5 -35.5t53.5 -49q60 57 88 74q46 28 100 28q73 0 119.5 -49.5t46.5 -123.5q0 -72 -48.5 -123t-125.5 -51z
M556 193h1q28 0 48 21.5t20 50.5q0 31 -19 51t-47 20q-20 0 -42.5 -13t-33 -22t-36.5 -35q4 -3 17.5 -17.5t21 -21t20.5 -16t25 -14t25 -4.5zM199 193h1q7 0 13.5 1t13.5 4.5t12.5 5.5t13 8t11.5 8.5t12.5 10.5l11 10.5l12 11.5l11.5 11q-24 24 -37 36q-40 36 -72 36
q-29 0 -49 -21t-20 -50q0 -31 19 -51.5t47 -20.5z" />
    <glyph glyph-name="integral" unicode="&#x222b;" horiz-adv-x="394" 
d="M370 786l-15 -98q-18 5 -36 5q-32 0 -47 -28q-18 -30 -18 -142q0 -72 7.5 -205.5t7.5 -221.5q0 -120 -31 -179q-42 -83 -139 -83q-48 0 -74 13l18 101q13 -5 38 -5q27 0 42 21q23 30 23 127q0 89 -8 226.5t-8 216.5q0 145 63 214q43 46 117 46q36 0 60 -8z" />
    <glyph glyph-name="approxequal" unicode="&#x2248;" horiz-adv-x="563" 
d="M467 407l53 -56q-24 -39 -60.5 -63t-79.5 -24q-26 0 -55 9l-49 21q-39 18 -47 21q-28 8 -45 8q-51 0 -93 -55l-48 58q59 85 143 85q25 0 52 -9q11 -4 27.5 -12t22.5 -10q31 -14 42 -18q28 -10 48 -10q48 0 89 55zM470 219l51 -53q-54 -90 -143 -90q-24 0 -51 9
q-16 5 -50 22q-6 2 -22 10t-27 12q-23 7 -45 7q-47 0 -92 -54l-47 59q24 36 61 59.5t79 23.5q23 0 49 -7q12 -4 32 -13t24 -11q30 -15 40 -19q25 -10 49 -10q52 0 92 55z" />
    <glyph glyph-name="notequal" unicode="&#x2260;" horiz-adv-x="563" 
d="M349 289l-36 -98q71 -1 189 -1q0 -46 -3 -89q-55 0 -219 -2l-30 -84q-44 15 -84 33l18 51q-21 0 -63 -0.5t-60 -1.5q0 51 3 94h153q4 10 34 98q-72 1 -190 1q0 2 3 89q52 0 220 2q9 24 30 87q53 -20 87 -36q-14 -39 -19 -51q21 0 62 0.5t59 1.5q0 -34 -4 -94h-150z" />
    <glyph glyph-name="lessequal" unicode="&#x2264;" horiz-adv-x="563" 
d="M231 394q19 -18 119 -100.5l112 -92.5q-26 -39 -51 -64l-296 217q-3 41 -2 76l300 210q27 -32 47 -68zM66 -2q0 80 4 89q61 0 219 -0.5t210 -0.5q0 -3 -3 -84q-376 0 -430 -4z" />
    <glyph glyph-name="greaterequal" unicode="&#x2265;" horiz-adv-x="563" 
d="M337 390q-18 17 -117 95t-110 88q17 29 48 67l295 -211q2 -23 2 -76l-300 -216q-30 32 -51 65zM66 -1q0 75 3 84q190 0 430 4q0 -33 -4 -89q-9 0 -214 0.5t-215 0.5z" />
    <glyph glyph-name="lozenge" unicode="&#x25ca;" horiz-adv-x="584" 
d="M546 321l-192 -361h-125l-191 361l191 361h125zM411 317l-105 213q-11 20 -15 32h-2q-11 -25 -15 -32l-102 -206l106 -211q2 -5 7 -16.5t7 -15.5h3q6 12 14 32z" />
    <glyph glyph-name="Euro.fitted" unicode="&#xe000;" horiz-adv-x="596" 
d="M13 318v55h57q29 126 127 203q98 79 240 79q88 0 128 -15q9 -88 16 -202q-61 -9 -104 -14l-23 104q-2 9 -6 11q-16 13 -45 13q-55 0 -93 -41q-50 -53 -62 -138h167v-55h-172v-6q0 -20 4 -58h168v-52l-154 1q13 -39 39 -63q43 -40 114 -40q33 0 80.5 8.5t71.5 18.5
q9 -38 17 -93q-47 -18 -106 -31t-96 -13q-130 0 -209 59q-76 56 -99 154l-60 -1v52h50q-2 20 -2 29t2 35h-50z" />
    <glyph glyph-name="Euro.oldstyle" unicode="&#xe001;" horiz-adv-x="573" 
d="M9 242v46h44q22 111 112 180q87 65 214 65q82 0 126 -11q9 -86 15 -178q-41 -6 -102 -13l-22 87q-2 9 -6 11q-14 7 -35 7q-46 0 -80 -34q-43 -41 -50 -114l171 1v-47h-173q0 -4 2 -18q0 -11 4 -25h161v-46h-142q13 -21 25 -30q34 -29 100 -29q55 0 131 22q6 -27 17 -90
q-101 -36 -189 -36q-117 0 -187 50q-62 42 -84 113l-52 -1v47h40q-1 9 -1 27v16h-39z" />
    <glyph glyph-name="cent.fitted" unicode="&#xe005;" horiz-adv-x="516" 
d="M34 295v1q0 95 62.5 165.5t177.5 87.5v103q39 7 84 10q-1 -18 -1.5 -54t-0.5 -54h8q69 0 117 -24q0 -24 -14 -62.5t-29 -47.5q-61 32 -87 35q-4 -162 -5 -252q47 1 111 24q5 -15 21 -73q-64 -31 -130 -40q-2 -82 -2 -120q-13 -1 -39.5 -3.5t-39.5 -3.5q0 78 1 120
q-41 0 -79 10t-74.5 30t-58.5 58.5t-22 89.5zM188 321v-1q0 -50 24 -81q18 -25 56 -36l3 252q-35 -7 -59 -45t-24 -89z" />
    <glyph glyph-name="degree.oldstyle" unicode="&#xe006;" horiz-adv-x="385" 
d="M193 626h1q64 0 103 -37t39 -95q0 -57 -42 -96t-102 -39q-61 0 -102 35.5t-41 97.5q0 54 41.5 94t102.5 40zM194 563h-1q-24 0 -40 -20.5t-16 -50.5q0 -32 16.5 -51t40.5 -19q26 0 40 19t14 51q0 71 -54 71z" />
    <glyph glyph-name="dollar.fitted" unicode="&#xe007;" horiz-adv-x="529" 
d="M46 443v1q0 38 21 72t52 56q57 40 143 47q0 10 0.5 28.5t1 34t1.5 30.5q38 8 78 9q-2 -64 -4 -100q85 0 137 -30q0 -22 -16.5 -57t-33.5 -48q-54 39 -91 47q-1 -35 -5 -144q84 -24 124.5 -63t40.5 -106q0 -81 -54 -132q-60 -54 -157 -61q-2 -58 -4 -95q-37 -6 -73 -6
q0 4 3 98q-105 0 -176 39q0 17 19 53.5t37 50.5q73 -50 122 -58q0 25 1.5 76.5t2.5 78.5l-46.5 19.5t-39 18.5t-36.5 24.5t-24.5 28.5t-18.5 39t-5 49zM179 468v-1q0 -22 17.5 -36t59.5 -25q1 21 2.5 64.5t1.5 63.5q-40 -1 -59 -19q-22 -18 -22 -47zM365 178v1q0 52 -76 69
q-2 -92 -4 -138q39 0 60 19q20 17 20 49z" />
    <glyph glyph-name="florin.fitted" unicode="&#xe00a;" horiz-adv-x="514" 
d="M434 655h1q57 0 98 -17q0 -19 -18.5 -60.5t-34.5 -53.5q-69 23 -94 23q-33 0 -45 -22q-13 -27 -19 -144h167q0 -47 -3 -91h-168q-1 -14 -4 -69.5t-5 -89.5t-6.5 -78.5t-10.5 -69.5q-20 -84 -97.5 -138t-151.5 -54q-54 0 -86 13q0 15 17.5 53.5t30.5 50.5q41 -15 77 -15
q60 0 68 99q7 96 11 298h-118q0 7 3 88q88 2 112 2q6 0 6 8q4 81 21.5 123.5t60.5 76.5q83 67 188 67z" />
    <glyph glyph-name="florin.oldstyle" unicode="&#xe00b;" horiz-adv-x="483" 
d="M391 533h1q55 0 90 -13q0 -19 -18 -56.5t-34 -48.5q-53 19 -78 19q-29 0 -37 -18q-10 -24 -14 -105q22 0 67.5 0.5t69.5 0.5q0 -44 -3 -85h-139q-9 -176 -23 -239q-16 -71 -82.5 -117.5t-134.5 -46.5q-53 0 -80 10q0 19 16 51.5t29 45.5q35 -13 65 -13q50 0 56 80
q3 37 4.5 85.5t2 93t0.5 50.5h-96q0 30 2 82q72 2 93 2q4 0 5 7q3 61 20.5 95.5t54.5 64.5q42 33 78 44t85 11z" />
    <glyph glyph-name="numbersign.oldstyle" unicode="&#xe00c;" horiz-adv-x="566" 
d="M195 520q31 2 91 2q-8 -38 -25 -138q34 1 100 1q8 45 22 135h92l-25 -135q67 0 93 1q0 -48 -4 -79h-104q-6 -44 -20 -132h100q0 -41 -4 -77h-110q-14 -87 -25 -145q-57 -2 -82 -1l23 145h-104l-26 -144q-30 -3 -81 -1q4 20 23 144h-98q-1 25 4 81q32 -1 106 -1
q7 44 19 132h-104q0 36 5 76h111zM247 307q-6 -44 -20 -132h103q3 22 9.5 66t9.5 66h-102z" />
    <glyph glyph-name="orn.001" unicode="&#xe00d;" horiz-adv-x="1000" 
d="M615 635q2 -39 2.5 -127t1.5 -114q-50 -2 -239 -2v77.5v93.5v70q67 4 235 2zM334 353q2 -34 1.5 -118.5t0.5 -121.5q-94 -5 -238 -3q-3 101 1 242q68 3 235 1zM901 353q0 -181 -1 -242q-118 -3 -236 0q-3 126 0 243q42 1 131 0t106 -1zM616 68q3 -184 1 -241
q-157 -2 -236 0q-1 33 -1 77t0.5 94.5t0.5 71.5q168 0 235 -2z" />
    <glyph glyph-name="orn.002" unicode="&#xe00e;" horiz-adv-x="1000" 
d="M515 734q76 -150 134 -300q0 -1 -4 -7q-114 -4 -294 -2q40 109 137 309h27zM998 246q0 -20 -1 -30q-182 -97 -299 -144q-1 25 -1 312q196 -78 301 -138zM0 213v25q135 71 305 143q2 -83 2 -314q-216 96 -307 146zM351 26l4 10q265 0 296 -1q-60 -163 -129 -305h-32
q-54 100 -139 296z" />
    <glyph glyph-name="orn.003" unicode="&#xe00f;" horiz-adv-x="1000" 
d="M334 635q1 -36 1.5 -118.5t1.5 -119.5q-60 -3 -241 -3q0 39 -0.5 123.5t-0.5 116.5q63 3 239 1zM902 635q0 -98 -2 -240q-92 -2 -239 0q-1 85 1 242q102 2 240 -2zM618 350q2 -136 2 -240q-124 -3 -241 0q-2 52 1 241q169 0 238 -1zM334 67q3 -97 1 -241q-70 -3 -238 0
q-5 122 0 239q94 4 237 2zM903 65q0 -116 -4 -240q-85 -1 -238 1q0 166 2 240q104 3 240 -1z" />
    <glyph glyph-name="orn.004" unicode="&#xe010;" horiz-adv-x="1000" 
d="M15 723q68 1 461 1q9 -219 1 -486q-88 -2 -462 -2v151v193.5v142.5zM81 650q-3 -262 1 -339q80 -4 333 3q1 73 -5 338q-34 1 -329 -2zM163 566q33 2 166 2q2 -48 2 -172q-52 -2 -168 0q-2 89 0 170zM664 567q26 1 168 1q2 -46 2 -173q-107 -4 -169 0q-1 27 -1 172z
M521 226q167 1 462 -1q2 -265 0 -486q-201 -3 -463 1q-4 254 1 486zM587 154q-6 -188 -2 -340q303 -3 333 -3q2 231 0 338q-233 6 -331 5zM669 64q46 2 167 2q2 -56 2 -172h-169v50v64.5v55.5zM163 61h168q1 -17 1 -173q-112 -2 -169 -1q-2 112 0 174z" />
    <glyph glyph-name="orn.005" unicode="&#xe011;" horiz-adv-x="916" 
d="M85 261l7 4q479 0 668 4q2 303 -1 421q47 2 74 0q-1 -193 -1 -486l-8 -5h-206.5t-250.5 -0.5t-209 -2.5q-3 -86 0 -420q-42 -2 -67 -1l-7 5q1 105 1 265.5v215.5zM200 408v279q181 2 281 1q1 -46 1 -137.5v-140.5q-61 -2 -282 -2zM270 474q98 -2 144 1q0 82 -3 148
q-34 -1 -146 -4q3 -112 5 -145zM435 -223q-2 176 -2 280q186 0 283 -1v-278q-123 -3 -281 -1zM505 -159l3 -1q119 3 141 4q0 80 -3 146q-23 0 -73.5 -0.5t-71.5 -1.5q0 -100 4 -147z" />
    <glyph glyph-name="orn.006" unicode="&#xe012;" horiz-adv-x="1000" 
d="M759 429v-85h233v-67q-71 -2 -233 -2v-84q160 0 233 -2v-65q-68 -1 -233 -1v-82q30 0 113 -1t120 -1v-66q-72 -1 -236 -1v-234q-12 0 -35.5 0.5t-31.5 0.5q0 29 -1.5 112t-1.5 113q-25 -1 -81 -1v-67.5v-87.5v-69q-10 -1 -66 -1v226h-81v-69.5v-89.5v-67q-13 -1 -36.5 0
t-30.5 1q0 27 -0.5 110t-0.5 114h-78q-1 -41 -2 -126t-1 -98h-20.5h-25h-20.5q-1 32 -1 117v115q-161 0 -234 1q-1 21 -1 66q32 0 115 1t119 2q-1 30 -1 84q-33 1 -117 0t-115 -1v22v25v18q195 3 232 3v85q-31 1 -114 1h-118q-1 11 -1 67h73.5h92h67.5v84q-30 0 -112.5 1
t-119.5 1q-1 11 -1 66q35 0 119.5 0.5t115.5 0.5v228q11 0 34 0.5t32 0.5q1 -30 1.5 -110.5t0.5 -112.5q25 1 82 1v70v87.5v62.5q21 1 65 1q3 -162 3 -221h79q1 35 1.5 118.5t0.5 102.5h65q1 -25 1.5 -108.5t0.5 -112.5q13 0 40 -0.5t40 -0.5q0 110 2 222h21h25.5h19.5v-227
q32 -1 117 -1.5t119 -0.5q2 -42 2 -65q-30 0 -116 -1t-119 -2zM686 433q-134 3 -376 3q0 -30 -0.5 -101t-0.5 -144.5t1 -153.5q202 -5 381 -2q0 99 -2.5 240.5t-2.5 157.5z" />
    <glyph glyph-name="orn.007" unicode="&#xe013;" horiz-adv-x="1000" 
d="M500 -216l-9 14q265 566 438 904l19 2q3 -272 1 -920q-67 0 -224 -0.5t-225 0.5zM418 -203l-9 -11q-31 -1 -359 -1v889l10 6q246 5 357 0q0 -526 1 -883zM594 -145l4 -7q197 2 277 6q3 104 14 616l-8 1q-161 -328 -287 -616z" />
    <glyph glyph-name="orn.008" unicode="&#xe014;" horiz-adv-x="1000" 
d="M409 680l9 -9v-886q-80 -2 -358 0l-9 6q-1 215 -1 890q328 0 359 -1zM948 -238l-18 1q-182 355 -438 905q4 10 6 14q68 1 226 0.5t225 -0.5q2 -646 -1 -920zM605 617l-5 -7q115 -275 282 -613l7 1q-3 205 -14 615q-72 4 -270 4z" />
    <glyph glyph-name="orn.009" unicode="&#xe015;" horiz-adv-x="1000" 
d="M508 -206l-6 -14q-68 -1 -226 -0.5t-225 0.5q-3 705 1 920l18 -1q168 -327 438 -905zM591 -218l-10 8q1 357 1 889q44 0 179 0.5t180 -0.5l8 -6q1 -215 1 -891q-35 0 -113 -0.5t-140.5 -0.5t-105.5 1zM397 -156l5 8q-93 219 -281 613h-8l3.5 -307.5t4.5 -307.5
q109 -6 276 -6z" />
    <glyph glyph-name="orn.010" unicode="&#xe016;" horiz-adv-x="1000" 
d="M502 681l7 -14q-299 -633 -439 -904l-18 -1q-1 78 -1 919h451zM582 671l8 9h106h140.5h113.5q0 -204 -0.5 -500t-0.5 -391l-9 -6q-291 0 -358 2v886zM401 606l-4 8q-196 3 -272 0q-5 -125 -10 -617l8 -1q198 423 278 610z" />
    <glyph glyph-name="orn.011" unicode="&#xe017;" horiz-adv-x="860" 
d="M235 -315l-6 4q34 95 69 181q-140 0 -201 1v250.5v265.5v185q313 3 665 2q3 -488 2 -702q-66 -1 -199 -1q10 -30 33 -90.5t33 -89.5l-6 -7q-331 0 -390 1zM431 220h9l103 -277q5 0 61 1t84 2q4 276 4 558q-299 -2 -520 -6q-4 -540 -4 -554q94 -2 158 -2z" />
    <glyph glyph-name="orn.012" unicode="&#xe018;" horiz-adv-x="860" 
d="M659 755l3 -7l-50 -184h49h54.5h45.5q0 -510 -1 -687q-382 -2 -659 -1q0 600 1 687q50 1 143 1l-61 185l6 6q40 0 141 0.5t185 0.5t143 -1zM425 183l10 -1q105 374 138 503q-114 5 -289 3l-4 -6q124 -433 145 -499z" />
    <glyph glyph-name="orn.013" unicode="&#xe019;" horiz-adv-x="1000" 
d="M89 23l-7 5q-2 220 1 389l4 5l167 -68v220q88 0 231.5 0.5t246.5 0.5t185 -1q3 -334 2 -703q-177 -2 -663 -2q-1 38 -1 219zM583 222l1 -9q-114 -48 -256 -102q0 -51 2 -165q191 -4 518 -4q-2 386 -5 557q-3 0 -199.5 2t-315.5 2q-2 -116 -1 -178q87 -33 256 -103z" />
    <glyph glyph-name="orn.014" unicode="&#xe01a;" horiz-adv-x="1000" 
d="M911 -7l-7 -3q-61 20 -163 48q1 -2 0.5 -79t-0.5 -79q-492 0 -651 2q-4 343 -1 680q54 0 178.5 0.5t242.5 0.5t230 -1q1 -56 1 -152l164 58l6 -5q2 -311 0 -470zM361 227l-1 -10l484 -138q2 196 0 288l-5 6l-209.5 -63t-268.5 -83z" />
    <glyph glyph-name="orn.015" unicode="&#xe01b;" horiz-adv-x="1000" 
d="M0 56v676h1000v-670l-7 1q-35 44 -148 167h-7q-55 -56 -150 -164h-5q-70 98 -161 214h-6l-172 -207l-8 -1q-97 116 -154 176h-10l-165 -192h-7zM0 -268v155q66 0 291.5 -1t406.5 -0.5t302 2.5v-156h-1000z" />
    <glyph glyph-name="orn.016" unicode="&#xe01c;" horiz-adv-x="394" 
d="M207 395h-21q-62 103 -168 297l5 8q291 0 344 -1q-61 -127 -160 -304zM194 334h1q39 0 65 -29t26 -70q0 -45 -25 -75t-66 -30q-42 0 -70.5 28t-28.5 70q0 46 28.5 76t69.5 30zM184 70h19q54 -87 169 -298l-5 -8q-309 0 -344 1q83 171 161 305z" />
    <glyph glyph-name="orn.017" unicode="&#xe01d;" horiz-adv-x="1000" 
d="M660 218v22l290 169l8 -5q0 -313 -1 -348q-189 99 -297 162zM339 241l1 -19l-291 -171l-8 5q0 313 1 348q143 -73 297 -163zM590 230v-1q0 -41 -24 -68t-61 -27q-45 0 -70 27t-25 67q0 41 25.5 71t63.5 30q39 0 65 -28t26 -71z" />
    <glyph glyph-name="orn.018" unicode="&#xe01e;" horiz-adv-x="574" 
d="M0 315v33q160 2 251 1q64 -43 114.5 -88.5t112.5 -111.5q67 0 96 1v-33q-152 -2 -251 -1q-41 23 -122.5 94t-111.5 106q-12 0 -43 -0.5t-46 -0.5z" />
    <glyph glyph-name="orn.019" unicode="&#xe01f;" horiz-adv-x="574" 
d="M574 348v-32q-14 0 -45.5 0.5t-43.5 0.5q-30 -35 -111.5 -106.5t-122.5 -94.5q-98 -1 -251 1v32h96q62 66 112.5 111.5t114.5 88.5q91 1 251 -1z" />
    <glyph glyph-name="orn.020" unicode="&#xe020;" horiz-adv-x="982" 
d="M48 93l4 3q119 -74 146 -93l-1 -3q-25 -1 -78.5 -0.5t-75.5 0.5q-6 48 5 93zM144 385h3l39 -125l-107 -18q4 28 23.5 73.5t41.5 69.5zM410 538l3 -3q-27 -83 -40 -117q-62 29 -117 59q20 21 68 40.5t86 20.5zM718 473l-2 -4l-104 -52l-47 119q42 -3 85.5 -22t67.5 -41z
M833 378l3 3q54 -65 69 -158q-21 6 -58.5 18t-49.5 15q13 47 36 122zM725 50h-5q-11 103 -73 178q-57 62 -152 62q-57 0 -97 -17t-77 -56q-61 -81 -69 -177l-5 1l-184 132l1 3q123 24 203 38v2q-47 135 -69 207l2 5l203 -97l1 -1q34 98 79 210h6q43 -93 91 -210l196 97l4 -4
l-63 -210v1l185 -53v-5q-75 -48 -177 -106zM937 4l-3 -4h-163v4l156 86q7 -20 10 -86zM322 0l-3 5q0 46 14.5 89t35.5 66q50 56 122 56q81 0 122 -65q36 -60 39 -149q-33 -2 -178 -2h-152z" />
    <glyph glyph-name="orn.021" unicode="&#xe021;" horiz-adv-x="886" 
d="M527 76l1 -2q65 1 174 8.5t123 13.5q3 -25 -1.5 -56t-12.5 -38q-73 -1 -301 -1q-282 0 -439 3q-15 21 -15 92q60 -15 300 -22l1 2q-187 178 -267 286q2 22 16.5 46t30.5 32q37 -57 131.5 -165t132.5 -138h2q0 83 -11 464q13 12 41 19t50 3q-2 -56 -5 -243t-1 -251l2 -1
q52 55 130.5 154t114.5 157q11 1 30 -24t23 -51q-32 -51 -109.5 -138.5t-140.5 -149.5z" />
    <glyph glyph-name="orn.022" unicode="&#xe022;" horiz-adv-x="1000" 
d="M499 485l5 5q241 4 491 2l3 -4q-87 -204 -231 -514h-7q-173 321 -261 511zM255 491h7l227 -514l-3 -4q-294 -3 -488 1q-4 2 -5 4zM591 435l-3 -3l168 -325h5q95 195 152 325l-2 3q-90 5 -320 0zM251 357l-4 -1l-164 -324l3 -3q104 -2 315 2l2 3q-58 132 -152 323z" />
    <glyph glyph-name="orn.023" unicode="&#xe023;" horiz-adv-x="1000" 
d="M761 84l-8 -1q-106 168 -244 412l5 9q42 1 475 1l4 -10q-144 -266 -232 -411zM489 -34l-5 -9q-124 -2 -471 1l-6 10q124 224 241 408h8z" />
    <glyph glyph-name="orn.024" unicode="&#xe024;" horiz-adv-x="672" 
d="M501 -48l-12 1l-331 440l-158 -206v100l155 214h12l329 -437h9l167 223v-100zM508 272l-11 -1l-142 214l2 11q128 3 292 1l4 -11zM306 -26l-3 -11q-41 -1 -292 -1l-3 11l140 215h11z" />
    <glyph glyph-name="orn.025" unicode="&#xe025;" horiz-adv-x="1000" 
d="M743 -23l-6 -5q-83 0 -246 0.5t-245 1.5l-6 3q-1 243 1 740l6 2l694 -327l1 -8zM705 31l5 2l147 331l-2 7l-549 246l-4 -4q0 -97 2 -577q65 0 198.5 -2zM674 121l-3 -3q-127 18 -321 51l-2 4q111 154 214 280l3 1q52 -150 109 -333zM614 171l1 2q-36 102 -71 186h-3
l-121 -157l1 -3q87 -16 193 -28z" />
    <glyph glyph-name="orn.026" unicode="&#xe026;" horiz-adv-x="1000" 
d="M16 -27l-2 6l327 694l8 1l407 -199l5 -6q0 -83 -0.5 -246t-1.5 -245l-3 -6q-243 -1 -740 1zM116 38l4 -4q99 -1 577 2q0 65 2 198.5l3 202.5l-2 5l-330 147l-7 -2zM272 301l-1 3l327 117l3 -3q-19 -183 -43 -337l-4 -2q-83 60 -282 222zM366 284v-3l159 -129l3 1
q13 96 21 208l-2 1q-11 -4 -181 -78z" />
    <glyph glyph-name="orn.027" unicode="&#xe027;" horiz-adv-x="1000" 
d="M244 -11l-5 6q0 83 0.5 246t1.5 245l3 6q244 1 740 -1l2 -6l-327 -694l-8 -1zM298 27l2 -5l330 -147l7 2l247 549l-4 4q-99 1 -577 -2q0 -65 -2 -198zM401 47l-3 3q23 188 44 333l5 2q131 -93 279 -222l1 -3q-126 -48 -326 -113zM451 106l2 -1q116 45 179 75v3l-157 129
l-3 -1q-8 -59 -21 -205z" />
    <glyph glyph-name="orn.028" unicode="&#xe028;" horiz-adv-x="1000" 
d="M257 488l6 5q83 0 246 -0.5t245 -1.5l6 -4q1 -243 -1 -740l-6 -2l-694 327l-1 8zM295 433l-5 -2l-147 -330l2 -7l549 -247l4 4q1 100 -2 577q-65 0 -198 2zM324 342l3 4q146 -19 324 -50l2 -5q-57 -81 -219 -282l-3 -1q-73 218 -107 334zM383 293l-1 -2q46 -139 66 -192
h3l130 164l-1 3q-83 13 -197 27z" />
    <glyph glyph-name="orn.029" unicode="&#xe029;" horiz-adv-x="1000" 
d="M775 567l-1 -13l-213 -259q117 -119 252 -241h9l178 232v-99l-171 -232l-15 1l-349 331l218 264l-237 181h99zM479 526v-13l-194 -233l1 -12l325 -304q-1 0 -49.5 -0.5t-49.5 0.5l-279 255q-2 53 0 105l149 180l-1 9l-148 122q-2 42 0 83zM711 310l98 120l99 -91
l-99 -125z" />
    <glyph glyph-name="orn.030" unicode="&#xe02a;" horiz-adv-x="1000" 
d="M446 732h100l-228 -181l217 -264l-349 -331l-15 -1l-171 232v99l179 -232h9q138 125 251 241l-213 259v13zM714 268l1 12q-119 148 -194 233l1 13l245 193q2 -41 0 -83l-148 -123v-9l148 -180q2 -52 0 -105l-279 -255q-48 -1 -98 0zM290 310l-98 -96l-99 125q83 78 98 91
z" />
    <glyph glyph-name="orn.031" unicode="&#xe02b;" horiz-adv-x="1000" 
d="M545 -268h-100l237 181l-217 263l349 332l15 1l171 -223v-100l-179 225h-9q-129 -117 -251 -242l213 -259v-13zM286 195l-1 -12q128 -158 194 -232l-1 -13q-62 -46 -245 -193q-2 41 0 83l148 123v9l-148 180q-2 52 0 105l279 255h98zM710 154q32 33 98 95q66 -79 99 -124
l-98 -91z" />
    <glyph glyph-name="orn.032" unicode="&#xe02c;" horiz-adv-x="1000" 
d="M545 -268h-99l-221 165l1 13l213 259q-125 128 -252 242h-9l-178 -225v100l171 223l15 -1l349 -332l-218 -263zM715 183l-1 12q-175 172 -325 305q1 0 49.5 0.5t49.5 -0.5l279 -255q2 -53 0 -105l-149 -180l1 -9l148 -123q2 -42 0 -83q-181 145 -246 193v13zM289 154
l-98 -120l-99 91l99 124q51 -47 98 -95z" />
    <glyph glyph-name="orn.033" unicode="&#xe02d;" horiz-adv-x="1000" 
d="M890 353v-15q-59 -117 -211 -379q-50 0 -139.5 -1t-164.5 -1t-147 2q-4 512 1 744l10 4q348 -174 651 -354zM552 467l-7 2q-148 -163 -253 -298l2 -6q159 -48 352 -92l4 5q-41 184 -98 389z" />
    <glyph glyph-name="orn.034" unicode="&#xe02e;" horiz-adv-x="1000" 
d="M380 621l14 1q147 -75 380 -212q0 -49 1 -138.5t1 -164.5t-2 -147q-512 -4 -745 1l-4 10q204 396 355 650zM258 299l-1 -7q123 -125 282 -267l7 2q48 170 93 370l-5 5q-193 -48 -376 -103z" />
    <glyph glyph-name="orn.035" unicode="&#xe02f;" horiz-adv-x="1000" 
d="M621 -157l-15 -1q-133 69 -379 212q0 49 -1 138.5t-1 165t2 147.5q511 4 744 -1l4 -10q-193 -381 -354 -651zM735 181l2 6q-139 129 -298 254l-7 -2q-32 -152 -62 -368l5 -5q154 44 360 115z" />
    <glyph glyph-name="orn.036" unicode="&#xe030;" horiz-adv-x="1000" 
d="M111 111l-1 15q65 125 212 379q50 0 139 1t164.5 1t147.5 -2q4 -510 -1 -744l-10 -4q-364 185 -651 354zM434 -10l7 -2l267 281l-2 6q-123 42 -360 107l-5 -5q29 -137 93 -387z" />
    <glyph glyph-name="sterling.fitted" unicode="&#xe031;" horiz-adv-x="583" 
d="M374 655h1q61 0 113 -18q10 -122 13 -179q-10 -1 -98 -12l-23 99q-3 10 -6 12q-10 5 -35 5q-26 0 -43 -21t-17 -74q0 -25 14 -107q66 0 156 2q1 -33 -3 -93q-90 0 -139 1q0 -6 0.5 -18.5t0.5 -17.5q0 -76 -69 -134q-5 -4 -6.5 -6t1 -3t8.5 -1q141 0 159 8q14 3 20 22
l33 98q49 -9 99 -22l-42 -197q-2 0 -112 0.5t-209 0.5q-26 0 -81 -0.5t-83 -0.5q0 31 2 91l76 3q7 0 13 4q34 37 34 119q0 31 -4 54h-96q0 31 2 85h71q3 0 3 4q-16 62 -16 104q0 40 20.5 78.5t57.5 62.5q75 51 185 51z" />
    <glyph glyph-name="sterling.oldstyle" unicode="&#xe032;" horiz-adv-x="564" 
d="M413 109l26 72q40 -5 93 -18q-17 -89 -35 -164q-13 0 -111 0.5t-178 0.5h-180q0 57 2 84l84 3q9 0 11 2q21 27 21 88q0 23 -4 38h-92q0 28 2 78q48 0 70 1q3 0 3 3q-13 39 -13 76q0 32 18 63.5t51 51.5q68 45 178 45q70 0 116 -16q10 -79 15 -152q-58 -8 -93 -10l-19 75
q-2 7 -6 10q-14 8 -43 8q-30 0 -42 -16q-16 -18 -16 -56q0 -28 11 -79q63 0 163 2q1 -38 -2 -84h-149q0 -3 0.5 -13t0.5 -16q0 -50 -50 -93q-12 -9 2 -9q124 0 147 7q13 3 19 18z" />
    <glyph glyph-name="yen.fitted" unicode="&#xe033;" horiz-adv-x="566" 
d="M205 92v46q-23 0 -73.5 -0.5t-70.5 -0.5q0 27 2 67q20 0 67.5 -0.5t74.5 -0.5v51h-143q0 43 2 64h122l-132 228q-3 4 -11 6l-30 2q0 56 1 81h111q29 0 85 0.5t74 0.5q0 -56 -1 -82l-56 -4l91 -202h7q55 117 89 196q2 6 -5 6l-50 2q0 56 1 83h124q15 0 41 0.5t34 0.5
q0 -56 -1 -83l-34 -2l-136 -229q22 0 60.5 0.5t52.5 0.5q2 -39 -1 -70h-146v-49h147q0 -43 -1 -65q-20 0 -70 -0.5t-76 -0.5l-1 -53l82 -3q0 -26 -2 -82q-19 0 -73 0.5t-81 0.5q-23 0 -75.5 -0.5t-76.5 -0.5q0 30 2 82l71 3q5 0 5 7z" />
    <glyph glyph-name="yen.oldstyle" unicode="&#xe034;" horiz-adv-x="542" 
d="M302 287h5q59 95 87 152q1 3 -5 5l-38 1q0 53 1 77h118q13 0 36 0.5t32 0.5q0 -50 -1 -77l-36 -2l-68.5 -97l-58.5 -82q20 0 57 0.5t50 0.5q2 -33 -1 -58h-142l-1 -38h47h53.5h43.5q0 -36 -1 -54q-21 0 -69 -0.5t-74 -0.5l-1 -36l83 -3q0 -12 -0.5 -37.5t-0.5 -38.5
q-22 0 -73 0.5t-75 0.5q-21 0 -71.5 -0.5t-76.5 -0.5q0 52 1 76l74 3q3 0 3 4v32q-22 0 -70.5 -0.5t-70.5 -0.5q0 21 2 57q21 0 67.5 -0.5t71.5 -0.5v39h-140q0 36 2 55h114l-70 98.5l-53 76.5q-4 6 -9 6l-35 1q0 14 0.5 39.5t0.5 36.5h109q25 0 73.5 0.5t66.5 0.5
q0 -50 -1 -77l-43 -2z" />
    <glyph glyph-name="uniEFED" unicode="&#xefed;" horiz-adv-x="450" 
d="M291 857h1q30 0 48.5 -19t18.5 -44q0 -31 -19.5 -50t-51.5 -19q-26 0 -46.5 19.5t-20.5 47.5q0 26 19.5 45.5t50.5 19.5z" />
    <glyph glyph-name="uniEFEE" unicode="&#xefee;" horiz-adv-x="450" 
d="M292 724h-1q-59 0 -104.5 35t-52.5 86q39 12 65 16q8 -28 36.5 -45t58.5 -17q31 0 58 18t33 41q35 -3 66 -12q-8 -49 -53.5 -85.5t-105.5 -36.5z" />
    <glyph glyph-name="uniEFF1" unicode="&#xeff1;" horiz-adv-x="450" 
d="M201 -129v1q0 35 29.5 72.5t85.5 63.5h50q-68 -57 -68 -118q0 -25 17 -39t38 -14q20 0 45 9q11 -42 13 -53q-36 -20 -83 -20q-52 0 -89.5 25.5t-37.5 72.5z" />
    <glyph glyph-name="uniEFF2" unicode="&#xeff2;" horiz-adv-x="450" 
d="M267 -82l96 85h83l-81 -76q80 -8 80 -76q0 -47 -48.5 -80t-129.5 -33q-6 27 -8 56q88 4 88 48q0 20 -14 29q-17 12 -52 12z" />
    <glyph glyph-name="uniEFF3" unicode="&#xeff3;" horiz-adv-x="450" 
d="M320 905h1q54 0 88.5 -29t34.5 -74t-36.5 -75t-88.5 -30q-53 0 -88.5 27.5t-35.5 75.5q0 41 36 73t89 32zM321 854h-1q-21 0 -36 -16t-15 -38q0 -23 15 -37.5t36 -14.5q23 0 36 14.5t13 38.5t-13 38.5t-35 14.5z" />
    <glyph glyph-name="uniEFF5" unicode="&#xeff5;" horiz-adv-x="450" 
d="M288 847h1q26 0 74 -25q44 -24 59 -24t26.5 13t12.5 33q19 2 58 0q-3 -57 -27.5 -93.5t-71.5 -36.5q-25 0 -75 27q-39 22 -58 22q-15 0 -26 -12.5t-13 -33.5q-19 -2 -58 0q2 53 29.5 91.5t68.5 38.5z" />
    <glyph glyph-name="uniEFF7" unicode="&#xeff7;" horiz-adv-x="450" 
d="M294 780l-126 -74q-24 27 -39 49l142 114q14 1 45 1l143 -114q-15 -24 -42 -51z" />
    <glyph glyph-name="uniF628" unicode="&#xf628;" horiz-adv-x="1152" 
d="M509 462l-4 4q-24 0 -190 2q26 -37 26 -77q0 -67 -49 -109q-41 -35 -106 -35q-68 0 -105 29q-48 39 -48 103t48 107q43 38 110 38q265 0 404 9q21 -32 27 -53l-216 -273l-190 -246q-34 20 -57 42l190 249zM189 470h-1q-15 0 -28 -11q-22 -22 -22 -76q0 -50 18 -70
q14 -12 31 -12q23 0 33 12q17 22 17 71q0 58 -18 74q-11 12 -30 12zM613 267h1q75 0 113 -41q36 -36 36 -92q0 -67 -49 -109q-41 -35 -106 -35q-66 0 -105 30q-48 37 -48 103q0 64 48 106q41 38 110 38zM611 213h-1q-16 0 -27 -9q-23 -23 -23 -78q0 -49 21 -72
q10 -10 28 -10q23 0 32 12q18 23 18 71q0 57 -20 77q-11 9 -28 9zM969 267h1q75 0 113 -41q36 -36 36 -92q0 -67 -49 -109q-41 -35 -105 -35q-66 0 -105 30q-48 37 -48 103q0 64 48 106q41 38 109 38zM967 213h-1q-17 0 -26 -9q-23 -23 -23 -78q0 -51 21 -72q10 -10 28 -10
q22 0 31 12q18 23 18 71q0 57 -20 77q-10 9 -28 9z" />
    <glyph glyph-name="uniF629" unicode="&#xf629;" 
d="M200 -16v66q-63 0 -109 28t-46 85q0 59 42.5 101.5t115.5 48.5l1 55q28 3 54 5v-59h7q40 0 80 -16q0 -18 -9.5 -41.5t-19.5 -30.5q-44 22 -61 23l-2 -136q33 0 76 19q10 -32 15 -52q-47 -22 -91 -27l-1 -65q-14 -2 -52 -4zM201 113l1 136q-26 -3 -42 -23.5t-16 -49.5
q0 -37 25 -52q10 -8 32 -11z" />
    <glyph glyph-name="uniF62A" unicode="&#xf62a;" 
d="M233 290l-2 -77q57 -13 84.5 -34t27.5 -62q0 -51 -36 -81q-36 -28 -102 -33l-2 -57q-16 -2 -50 -4l2 60q-69 2 -120 28q1 12 12.5 34.5t22.5 32.5q45 -31 85 -36l2 79q-60 18 -86.5 38.5t-26.5 62.5q0 46 42 76q35 27 98 30l1 55q17 3 53 5l-2 -60q60 0 98 -19
q0 -15 -10 -36.5t-21 -31.5q-44 29 -70 30zM181 222l2 69q-23 0 -35 -10q-12 -9 -12 -25q0 -13 10.5 -20.5t34.5 -13.5zM207 132l-2 -73q27 1 38 11q10 7 10 25q0 14 -10 22.5t-36 14.5z" />
    <glyph glyph-name="uniF62B" unicode="&#xf62b;" horiz-adv-x="309" 
d="M42 214q38 1 112 1q19 0 58 0.5t57 1.5q0 -42 -3 -81q-15 0 -56 0.5t-60 0.5h-110q0 13 0.5 39t1.5 38z" />
    <glyph glyph-name="uniF62C" unicode="&#xf62c;" horiz-adv-x="297" 
d="M79 153v1q0 87 45.5 155t110.5 105q16 -13 34 -37q-84 -74 -84 -216q0 -75 21 -127.5t62 -99.5q-18 -20 -38 -34q-45 33 -74.5 62.5t-53 80t-23.5 110.5z" />
    <glyph glyph-name="uniF62D" unicode="&#xf62d;" horiz-adv-x="297" 
d="M221 167v-1q0 -88 -44 -155t-110 -111q-24 22 -37 35q85 90 85 227q0 134 -82 218q21 21 38 34q150 -97 150 -247z" />
    <glyph glyph-name="uniF62E" unicode="&#xf62e;" 
d="M200 277v66q-63 0 -109 28t-46 85q0 59 42.5 101.5t115.5 48.5l1 55q28 3 54 5v-59h7q40 0 80 -16q0 -18 -9.5 -41.5t-19.5 -30.5q-44 22 -61 23l-2 -136q33 0 76 19q10 -32 15 -52q-47 -22 -91 -27l-1 -65q-14 -2 -52 -4zM201 406l1 136q-26 -3 -42 -23.5t-16 -49.5
q0 -37 25 -52q10 -8 32 -11z" />
    <glyph glyph-name="uniF62F" unicode="&#xf62f;" 
d="M233 583l-2 -77q57 -13 84.5 -34t27.5 -62q0 -51 -36 -81q-36 -28 -102 -33l-2 -57q-16 -2 -50 -4l2 60q-69 2 -120 28q1 12 12.5 34.5t22.5 32.5q45 -31 85 -36l2 79q-60 18 -86.5 38.5t-26.5 62.5q0 46 42 76q35 27 98 30l1 55q17 3 53 5l-2 -60q60 0 98 -19
q0 -15 -10 -36.5t-21 -31.5q-44 29 -70 30zM181 515l2 69q-23 0 -35 -10q-12 -9 -12 -25q0 -13 10.5 -20.5t34.5 -13.5zM207 425l-2 -73q27 1 38 11q10 7 10 25q0 14 -10 22.5t-36 14.5z" />
    <glyph glyph-name="uniF630" unicode="&#xf630;" horiz-adv-x="309" 
d="M42 507q38 1 112 1q19 0 58 0.5t57 1.5q0 -42 -3 -81q-15 0 -56 0.5t-60 0.5h-110q0 13 0.5 39t1.5 38z" />
    <glyph glyph-name="uniF631" unicode="&#xf631;" horiz-adv-x="297" 
d="M79 446v1q0 87 45.5 155t110.5 105q16 -13 34 -37q-84 -74 -84 -216q0 -75 21 -127.5t62 -99.5q-18 -20 -38 -34q-45 33 -74.5 62.5t-53 80t-23.5 110.5z" />
    <glyph glyph-name="uniF632" unicode="&#xf632;" horiz-adv-x="297" 
d="M221 460v-1q0 -88 -44 -155t-110 -111q-24 22 -37 35q85 90 85 227q0 134 -82 218q21 21 38 34q150 -97 150 -247z" />
    <glyph glyph-name="uniF633" unicode="&#xf633;" horiz-adv-x="742" 
d="M36 269v1q0 169 107.5 277t267.5 108q132 0 213 -74.5t81 -192.5q0 -60 -24 -108t-58 -75t-76 -40t-121 -13q-7 0 -18.5 7.5t-15.5 15.5q0 18 7 51l-5 3q-29 -29 -70 -53t-64 -24q-15 0 -44.5 18t-39.5 37q-2 10 -2 26q0 50 20 104q13 33 34.5 67t59.5 64t78 30
q47 0 84 -31h4l18 33q45 -10 96 -26l-62 -254q-1 -3 1 -4t5 -1q20 0 43 10.5t36 23.5q45 45 45 126q0 94 -62.5 161.5t-181.5 67.5q-118 0 -201.5 -90t-83.5 -235q0 -119 69.5 -178.5t163.5 -59.5q83 0 145 45q23 -28 24 -46q-69 -50 -190 -50q-115 0 -199 72t-84 207z
M299 261v-1q0 -20 17 -20t48.5 27.5t39.5 49.5q10 24 26 91q-12 19 -39 19q-34 0 -64 -66q-28 -64 -28 -100z" />
    <glyph glyph-name="uniF634" unicode="&#xf634;" horiz-adv-x="450" 
d="M224 -25h1q32 0 57 -28t25 -64q0 -54 -34 -106.5t-93 -83.5q-33 38 -37 44q66 49 66 99q0 19 -15.5 32t-35.5 17q-3 38 17 64t49 26z" />
    <glyph glyph-name="uniF635" unicode="&#xf635;" horiz-adv-x="450" 
d="M224 -42h1q32 0 57 -28t25 -64q0 -54 -34 -106.5t-93 -83.5q-33 38 -37 44q66 49 66 99q0 19 -15.5 32t-35.5 17q-3 38 17 64t49 26z" />
    <glyph glyph-name="uniF637" unicode="&#xf637;" horiz-adv-x="470" 
d="M70 743l-51 3q0 10 0.5 32t0.5 33q16 1 87 9.5t85 9.5q-4 -84 -4 -237q7 4 26 14l24.5 13t19 9t20.5 8t17.5 4t20.5 2q22 0 43.5 -16.5t34.5 -38.5q18 -31 18 -69q0 -8 -3 -161l38 -2q0 -10 -0.5 -31.5t-0.5 -31.5h-96h-93v62l31 2q3 0 3 3v34v41.5v32.5q0 55 -6 66
q-10 17 -29 17q-30 0 -67 -28v-165l33 -3v-62h-94h-98v62l38 2q3 0 3 3q0 106 -0.5 198.5t-0.5 184.5z" />
    <glyph glyph-name="uniF638" unicode="&#xf638;" horiz-adv-x="563" 
d="M298 655h1q46 0 84 -16q6 12 23 54q35 -7 74 -21l-35 -75q81 -89 81 -273q0 -185 -100 -280q-57 -54 -155 -54q-52 0 -91 18l-30 -65q-30 7 -63 18q8 16 21 46.5l16 37.5q-42 42 -64 98.5t-22 150.5q0 203 99 299q65 62 161 62zM286 576h-1q-24 0 -42 -27
q-13 -19 -21.5 -91.5t-8.5 -151.5q0 -39 1 -58l36 82l85 197q-3 12 -6 16q-19 33 -43 33zM282 68h1q25 0 42 26q27 40 27 208q0 32 -2 86l-33 -75l-87 -193q2 -7 7 -20q17 -32 45 -32z" />
    <glyph glyph-name="uniF639" unicode="&#xf639;" horiz-adv-x="580" 
d="M534 325v-1q0 -185 -100 -280q-57 -54 -155 -54q-86 0 -140 48q-93 80 -93 256q0 203 99 299q65 62 161 62q94 0 147 -58q81 -83 81 -272zM294 576h-1q-24 0 -42 -27q-13 -19 -21.5 -91.5t-8.5 -151.5q0 -162 24 -206q17 -32 45 -32q26 0 43 26q27 40 27 208
q0 200 -23 241q-19 33 -43 33z" />
    <glyph glyph-name="uniF63A" unicode="&#xf63a;" horiz-adv-x="553" 
d="M503 464v-1q0 -47 -19 -92t-55.5 -85.5t-60 -62t-62.5 -53.5l-76 -55v-4q41 1 153.5 5.5t125.5 4.5l2 -2q0 -68 -7 -120q-20 0 -152.5 0.5t-172.5 0.5h-127q-13 34 -28 88q91 64 149 120q75 70 115 126.5t40 118.5q0 46 -22 77q-22 28 -62 28t-66 -17q-3 -3 -6 -10
l-23 -100q-48 4 -103 11q3 64 11 179q86 34 196 34q125 0 188 -54q62 -53 62 -137z" />
    <glyph glyph-name="uniF63B" unicode="&#xf63b;" horiz-adv-x="558" 
d="M178 541l-21 -89q-61 4 -100 10q4 108 7 161q83 32 198 32q118 0 173 -37q65 -44 65 -113q0 -55 -37 -95t-99 -57v-6q73 -13 112 -58t39 -98q0 -87 -84 -149q-69 -52 -233 -52q-86 0 -136 11q-12 85 -21 173q48 9 104 17l23 -94q1 -5 7 -9q18 -9 43 -9q60 0 89 26t29 70
q0 50 -38 78t-100 29h-56q-3 45 -3 93q106 1 148.5 30.5t42.5 81.5q0 34 -19 54q-23 24 -72 24q-37 0 -56 -15q-3 -2 -5 -9z" />
    <glyph glyph-name="uniF63C" unicode="&#xf63c;" horiz-adv-x="570" 
d="M446 82l59 -2q0 -53 -1 -79h-148q-23 0 -75.5 -0.5t-80.5 -0.5q0 54 1 79l89 3q4 0 4 5v74q-29 -1 -239 -1q-22 48 -40 104l130 183q97 132 154 202q71 0 151 -5q0 -51 -1 -184t-1 -197q16 0 53 0.5t46 0.5q0 -50 -3 -97h-97q0 -58 -1 -85zM295 490h-6l-74 -112l-69 -108
q-2 -6 2 -6q45 -2 146 -2z" />
    <glyph glyph-name="uniF63D" unicode="&#xf63d;" horiz-adv-x="567" 
d="M512 229v-1q0 -60 -26 -108t-67 -75q-81 -55 -213 -55q-82 0 -131 9q-7 48 -22 166q39 10 100 19l25 -91q1 -7 8 -10q17 -8 39 -8q54 0 84 27q34 31 34 86q0 57 -40.5 87t-112.5 30q-39 0 -96 -3l-20 19q16 162 40 324h190q121 0 195 1q0 -62 -8 -124q-210 2 -278 3
l-18 -103q17 3 73 3q113 0 178.5 -55.5t65.5 -140.5z" />
    <glyph glyph-name="uniF63E" unicode="&#xf63e;" horiz-adv-x="567" 
d="M214 377h5q62 34 124 34q80 0 128 -46q25 -24 41.5 -63t16.5 -72q0 -111 -78 -186q-55 -54 -163 -54q-98 0 -151 46q-94 78 -94 233q0 182 89 288q83 98 234 98q56 0 96 -10q14 -102 19 -157q-39 -9 -98 -18l-21 77q-2 9 -6 10q-10 7 -33 7q-45 0 -71 -42
q-33 -56 -38 -145zM297 67h1q30 0 48 28q18 29 18 98q0 28 -8.5 57.5t-21.5 44.5q-16 19 -43 19q-20 0 -42.5 -10.5t-31.5 -26.5q-4 -118 25 -172q20 -38 55 -38z" />
    <glyph glyph-name="uniF63F" unicode="&#xf63f;" horiz-adv-x="560" 
d="M391 511v5q-27 0 -57.5 0.5t-45.5 0.5h-33h-26.5t-18.5 -0.5t-16 -1.5l-12 -2q-12 -3 -19 -20l-24 -76q-62 9 -99 18q7 53 32 211q1 0 38.5 -1t56.5 -1h341q17 -46 32 -113q-171 -262 -205 -407q-7 -29 -7 -121q-40 -7 -164 -7q-2 85 15 132q48 118 212 383z" />
    <glyph glyph-name="uniF640" unicode="&#xf640;" horiz-adv-x="563" 
d="M403 361v-4q57 -30 89.5 -74t32.5 -93q0 -91 -80 -153q-63 -47 -180 -47q-104 0 -161 37q-70 47 -70 121q0 101 124 169v5q-96 55 -96 156q0 42 22 77t53 56q64 44 158 44q99 0 149 -40q55 -42 55 -108q0 -89 -96 -146zM212 498v-1q0 -30 25.5 -53t81.5 -47q38 38 38 98
q0 34 -17 56q-18 25 -53 25q-32 0 -50 -16q-25 -23 -25 -62zM365 156v1q0 69 -125 120q-44 -43 -44 -109q0 -41 19 -68q9 -14 29 -23t38 -9q39 0 62 24q21 24 21 64z" />
    <glyph glyph-name="uniF641" unicode="&#xf641;" horiz-adv-x="565" 
d="M351 270h-4q-66 -33 -120 -33q-80 0 -130 48q-58 58 -58 141q0 104 78 174q67 55 165 55q93 0 147 -49q40 -36 66 -99.5t26 -143.5q0 -99 -25.5 -175.5t-68.5 -119.5q-79 -78 -218 -78q-71 0 -113 9l-8.5 48.5l-10 56.5l-8.5 48q37 11 95 22l27 -84q3 -8 8 -10
q16 -9 45 -9q51 0 76 43q29 53 31 156zM269 578h-1q-31 0 -47 -26q-19 -30 -19 -105q0 -65 25 -97q18 -22 49 -22q47 0 72 32q1 61 -6 111t-17 68q-18 39 -56 39z" />
    <glyph glyph-name="uniF642" unicode="&#xf642;" horiz-adv-x="794" 
d="M509 462l-4 4q-24 0 -190 2q26 -37 26 -77q0 -67 -49 -109q-41 -35 -106 -35q-68 0 -105 29q-48 39 -48 103t48 107q43 38 110 38q264 0 404 9q18 -27 28 -53l-217 -273l-190 -246q-34 20 -57 42l190 249zM189 470h-1q-15 0 -28 -11q-22 -22 -22 -76q0 -50 18 -70
q14 -12 31 -12q23 0 33 12q17 22 17 71q0 58 -18 74q-11 12 -30 12zM613 267h1q75 0 113 -41q36 -36 36 -92q0 -67 -49 -109q-41 -35 -106 -35q-66 0 -105 30q-48 37 -48 103q0 64 48 106q41 38 110 38zM611 213h-1q-16 0 -27 -9q-23 -23 -23 -78q0 -49 21 -72
q10 -10 28 -10q23 0 32 12q18 23 18 71q0 57 -20 77q-11 9 -28 9z" />
    <glyph glyph-name="uniF643" unicode="&#xf643;" horiz-adv-x="576" 
d="M283 -10h-1q-97 0 -156 45q-90 59 -90 184q0 61 28 111.5t73 83.5q63 46 167 46q98 0 157 -49q81 -65 81 -177q0 -122 -93 -194q-62 -50 -166 -50zM287 98h1q44 0 65 24q36 40 36 104q0 60 -32 100q-22 26 -66 26q-39 0 -63 -24q-39 -43 -39 -104q0 -65 37 -104
q9 -9 27.5 -15.5t33.5 -6.5z" />
    <glyph glyph-name="uniF644" unicode="&#xf644;" horiz-adv-x="576" 
d="M89 85l135 3q5 0 5 4v212l-134 -25q-12 61 -15 83q34 11 114 39.5l138 48.5t62 20t4 -4q0 -62 -2 -205.5t-2 -172.5l124 -3q0 -59 -1 -84h-212q-31 0 -103 -0.5t-115 -0.5q0 53 2 85z" />
    <glyph glyph-name="uniF645" unicode="&#xf645;" horiz-adv-x="576" 
d="M263 108v-8q152 2 238 2q0 -58 -7 -103q-16 0 -136.5 0.5t-158.5 0.5h-120q-16 52 -22 88q98 51 118 63q72 44 103 73.5t31 68.5q0 23 -14 39q-18 20 -53 20q-69 0 -124 -51q-29 26 -56 64q97 95 244 95q90 0 140 -50q40 -39 40 -98q0 -60 -34.5 -101t-114.5 -76
q-39 -16 -74 -27z" />
    <glyph glyph-name="uniF646" unicode="&#xf646;" horiz-adv-x="576" 
d="M353 168v-7q69 -6 107 -49.5t38 -97.5q0 -94 -75 -148q-78 -57 -213 -57q-101 0 -149 28q5 24 25 83q50 -21 109 -21q64 0 101 31q31 28 31 71q0 45 -34 72t-97 27q-37 0 -50 -1q-2 24 -4 84q95 2 130.5 29t35.5 73q0 31 -19 51q-18 20 -55 20q-60 0 -119 -45
q-21 24 -47 66q85 83 225 83q93 0 140 -49q40 -40 40 -96q0 -52 -34 -91t-86 -56z" />
    <glyph glyph-name="uniF647" unicode="&#xf647;" horiz-adv-x="576" 
d="M310 -171v172q-32 -1 -255 -1q-23 48 -40 97q53 79 132 179q62 76 157 181q77 0 162 -5q0 -49 -1 -173t-1 -183q30 -1 97 -1q0 -49 -4 -88q-19 -1 -94 -1q-2 -94 -2 -170q-64 -7 -151 -7zM310 328h-5q-22 -27 -83 -110q-42 -60 -72 -112q-2 -2 -1 -4.5t3 -2.5
q69 -3 157 -3z" />
    <glyph glyph-name="uniF648" unicode="&#xf648;" horiz-adv-x="576" 
d="M115 123l-18 17q14 148 37 311h168q119 0 178 -1q0 -62 -4 -111q-91 -1 -246 -4q-10 -58 -16 -100q15 1 51 1q113 0 173.5 -53.5t60.5 -135.5q0 -114 -90 -179q-79 -56 -214 -56q-28 0 -69.5 8t-64.5 19q15 57 25 82q50 -19 102 -19q76 0 110 27q37 31 37 88
q0 51 -36.5 79.5t-108.5 28.5q-33 0 -75 -2z" />
    <glyph glyph-name="uniF649" unicode="&#xf649;" horiz-adv-x="576" 
d="M227 366l6 -2q46 38 112 38q85 0 133 -50q51 -52 51 -129q0 -109 -80 -179q-65 -54 -163 -54q-112 0 -176 68q-27 29 -43.5 74.5t-16.5 96.5q0 180 128 306q97 93 232 120q23 -40 34 -81q-89 -27 -143 -81q-55 -56 -74 -127zM296 68h1q28 0 45 23q21 28 21 98
q0 59 -28 94q-17 23 -45 23q-45 0 -70 -41v-39q2 -74 22 -118q20 -40 54 -40z" />
    <glyph glyph-name="uniF64A" unicode="&#xf64a;" horiz-adv-x="576" 
d="M344 327l-1 6q-113 0 -279 -4q3 65 14 123q29 0 121 -0.5t140 -0.5h148q17 -44 32 -106q-125 -223 -268 -542q-75 23 -115 43z" />
    <glyph glyph-name="uniF64B" unicode="&#xf64b;" horiz-adv-x="576" 
d="M398 345v-4q59 -24 93 -65t35 -91q1 -97 -76 -151q-67 -44 -173 -44q-110 0 -165 40q-62 41 -62 115q0 51 37 95t97 65v5q-104 48 -104 147q0 75 68 123q64 46 163 46q92 0 144 -40q51 -40 51 -101q0 -46 -29.5 -82t-78.5 -58zM224 479v-1q0 -56 93 -96q50 35 50 91
q0 32 -16 53q-18 24 -53 24q-33 0 -53 -19q-21 -23 -21 -52zM373 151v1q0 65 -113 110q-26 -19 -40 -48.5t-14 -55.5q0 -38 20 -63q22 -30 65 -30q40 0 62 25q20 25 20 61z" />
    <glyph glyph-name="uniF64C" unicode="&#xf64c;" horiz-adv-x="576" 
d="M357 93l-6 3q-45 -36 -115 -36q-84 0 -134 52q-51 52 -51 129q0 94 76 160q70 59 171 59q102 0 161 -61q69 -68 69 -187q0 -168 -121 -287q-97 -96 -257 -116q-20 45 -30 88q122 28 176 85q47 48 61 111zM281 380h-1q-24 0 -39 -18q-26 -32 -26 -101q0 -62 27 -89
q19 -19 43 -19q18 0 39 11t32 25q0 3 0.5 11.5t0.5 12.5q0 82 -22 126q-19 41 -54 41z" />
    <glyph glyph-name="uniF64E" unicode="&#xf64e;" horiz-adv-x="576" 
d="M29 242v46h44q23 113 112 180q87 65 214 65q82 0 126 -11q9 -86 15 -178q-41 -6 -102 -13l-22 87q-2 9 -6 11q-14 7 -35 7q-46 0 -80 -34q-43 -41 -50 -114l171 1v-47h-173q0 -7 2 -21q0 -8 4 -22h161v-46h-142q13 -21 25 -30q34 -29 100 -29q55 0 131 22q6 -27 17 -90
q-101 -36 -189 -36q-117 0 -187 50q-62 42 -84 113l-52 -1v47h40q-1 9 -1 27v16h-39z" />
    <glyph glyph-name="uniF64F" unicode="&#xf64f;" horiz-adv-x="576" 
d="M446 533h1q56 0 89 -13q0 -19 -18 -56.5t-34 -48.5q-53 19 -78 19q-29 0 -37 -18q-10 -24 -14 -105q21 0 67 0.5t71 0.5q0 -44 -3 -85h-139q-9 -176 -23 -239q-16 -71 -82.5 -117.5t-134.5 -46.5q-53 0 -80 10q0 19 16 51.5t29 45.5q35 -13 65 -13q50 0 56 80
q3 37 4.5 85.5t2 93t0.5 50.5h-96q0 30 2 82q72 2 92 2q4 0 5 7q3 61 20.5 95.5t54.5 64.5q42 33 78.5 44t85.5 11z" />
    <glyph glyph-name="uniF650" unicode="&#xf650;" horiz-adv-x="576" 
d="M195 520q31 2 91 2q-8 -38 -25 -138q34 1 100 1q8 45 22 135h92l-25 -135q67 0 93 1q0 -48 -4 -79h-104q-6 -44 -20 -132h100q0 -41 -4 -77h-110q-14 -87 -25 -145q-57 -2 -82 -1l23 145h-104l-26 -144q-30 -3 -81 -1q4 20 23 144h-98q-1 25 4 81q32 -1 106 -1
q7 44 19 132h-104q0 36 5 76h111zM247 307q-6 -44 -20 -132h103q3 22 9.5 66t9.5 66h-102z" />
    <glyph glyph-name="uniF651" unicode="&#xf651;" horiz-adv-x="576" 
d="M428 109l26 72q40 -5 93 -18q-17 -89 -35 -164q-13 0 -111 0.5t-178 0.5h-180q0 57 2 84l84 3q9 0 11 2q21 27 21 88q0 23 -4 38h-92q0 28 2 78q48 0 69 1q3 0 3 3q-13 39 -13 76q0 32 18 63.5t51 51.5q67 45 178 45q70 0 116 -16q10 -79 15 -152q-58 -8 -93 -10l-19 75
q-2 7 -6 10q-14 8 -43 8q-30 0 -42 -16q-16 -18 -16 -56q0 -28 11 -79q62 0 164 2q1 -38 -2 -84h-149q0 -3 0.5 -13t0.5 -16q0 -50 -50 -93q-12 -9 2 -9q124 0 147 7q13 3 19 18z" />
    <glyph glyph-name="uniF652" unicode="&#xf652;" horiz-adv-x="576" 
d="M316 287h5q59 95 87 152q1 3 -5 5l-38 1q0 53 1 77h118q13 0 36 0.5t32 0.5q0 -50 -1 -77l-36 -2l-68.5 -97l-58.5 -82q20 0 57 0.5t50 0.5q2 -33 -1 -58h-142l-1 -38h144q0 -36 -1 -54q-21 0 -69 -0.5t-74 -0.5l-1 -36l83 -3q0 -12 -0.5 -37.5t-0.5 -38.5q-22 0 -73 0.5
t-75 0.5q-21 0 -71.5 -0.5t-76.5 -0.5q0 52 1 76l74 3q3 0 3 4v32q-22 0 -70.5 -0.5t-70.5 -0.5q0 21 2 57q21 0 67.5 -0.5t71.5 -0.5v39h-140q0 36 2 55h114l-70 98.5l-53 76.5q-4 6 -9 6l-35 1q0 14 0.5 39.5t0.5 36.5h109q25 0 73.5 0.5t66.5 0.5q0 -50 -1 -77l-43 -2z
" />
    <glyph glyph-name="uniF653" unicode="&#xf653;" horiz-adv-x="576" 
d="M346 389l-4 -101q149 -26 149 -133q0 -64 -42 -103q-48 -45 -142 -51l-2 -74q-38 -5 -68 -5l2 80q-108 2 -158 34q0 16 14.5 44.5t31.5 46.5q57 -42 114 -47l2 105q-75 22 -113 52.5t-38 89.5q0 57 55 101q46 35 131 40l1 73q41 7 72 8l-3 -81q82 0 133 -27
q0 -21 -13.5 -50t-27.5 -41q-48 34 -94 39zM275 303l2 88q-33 0 -50 -15q-15 -13 -15 -30q0 -37 63 -43zM311 175l-2 -99q31 0 46 12q18 14 18 34q0 23 -14 34.5t-48 18.5z" />
    <glyph glyph-name="uniF654" unicode="&#xf654;" horiz-adv-x="576" 
d="M298 -64l1 99q-90 1 -149 40.5t-59 122.5q0 80 57.5 141t155.5 72v84q30 6 74 8l-2 -89h10q61 0 106 -24q0 -22 -14 -52.5t-27 -38.5q-45 32 -79 33l-4 -214q31 0 102 20q9 -25 17 -62q-49 -28 -118 -37l-1 -97q-36 -5 -70 -6zM299 118l2 215q-30 -9 -51 -42t-21 -74
q0 -44 20 -69q18 -23 50 -30z" />
    <glyph glyph-name="uniF655" unicode="&#xf655;" 
d="M355 177v-1q0 -102 -58 -150q-40 -34 -109 -34q-63 0 -101 34q-53 46 -53 136q0 104 59 158q38 38 111 38q68 0 104 -39q47 -49 47 -142zM196 302h-1q-16 0 -26 -18q-15 -28 -15 -119q0 -81 15 -104q9 -13 25 -13t23 10q19 24 19 106q0 93 -14 121q-8 17 -26 17z" />
    <glyph glyph-name="uniF656" unicode="&#xf656;" 
d="M271 60l82 -1q0 -40 -1 -59h-132h-155q0 39 1 59l90 1q2 0 2 3v191q-26 -3 -93 -12q-8 50 -9 59q31 8 83.5 24l89 27t42.5 11q1 0 1 -3q0 -42 -0.5 -147t-0.5 -153z" />
    <glyph glyph-name="uniF657" unicode="&#xf657;" 
d="M337 247v-1q0 -73 -110 -146q-15 -11 -39 -22v-5q13 0 44.5 1t67 3t41.5 2q1 0 1 -1q0 -31 -4 -79q-20 0 -99.5 0.5t-99.5 0.5h-83q-10 31 -16 55q56 35 86 60q91 75 91 129q0 21 -12 36q-9 12 -30 12q-20 0 -33 -10q-3 -2 -3 -6l-13 -59q-11 0 -72 6q1 42 5 113
q56 22 133 22t111 -32t34 -79z" />
    <glyph glyph-name="uniF658" unicode="&#xf658;" 
d="M123 119l12 -56q1 -3 5 -6q8 -5 24 -5q28 0 41 10q16 14 16 33q0 52 -78 52h-35q-2 41 -1 60q66 -1 88 13t22 44q0 15 -10 25q-9 9 -30 9q-20 0 -33 -9q-3 -1 -3 -5l-11 -51q-50 4 -75 5q2 67 4 101q59 19 132 19q81 0 109 -22q35 -28 35 -61q0 -63 -75 -83v-5
q40 -6 61.5 -30.5t21.5 -53.5q0 -52 -47 -82q-43 -29 -138 -29q-63 0 -101 8q-6 39 -11 108q24 5 77 11z" />
    <glyph glyph-name="uniF659" unicode="&#xf659;" 
d="M299 50l42 -1q0 -33 -1 -49h-105h-109v48l74 2q3 0 3 3v28h-155q-18 36 -28 66l83 107l84 102q3 0 114 -3q0 -29 -0.5 -100t-0.5 -105h63q0 -41 -2 -63h-62v-35zM204 273h-7q-12 -17 -29 -38.5t-22 -29.5l-35 -50q-4 -7 3 -7h89z" />
    <glyph glyph-name="uniF65A" unicode="&#xf65a;" 
d="M71 156l-11 11q6 78 22 185h128h122q0 -28 -4 -76q-36 0 -92.5 0.5t-76.5 0.5q-8 -43 -9 -48q17 2 48 2q66 0 103.5 -30t37.5 -76q0 -68 -52 -102q-44 -31 -137 -31q-65 0 -90 8q-7 49 -14 105q39 9 75 13l14 -56q1 -3 5 -5q9 -6 30 -6q26 0 40 13q15 14 15 38
q0 56 -86 56q-48 0 -68 -2z" />
    <glyph glyph-name="uniF65B" unicode="&#xf65b;" 
d="M157 207h4q33 19 77 19q50 0 80 -28q33 -33 33 -75q0 -61 -43 -98q-40 -33 -111 -33t-107 32q-50 41 -50 131q0 92 57 153q50 50 146 50q41 0 72 -7q8 -59 10 -93q-36 -6 -74 -11l-12 41q-1 6 -5 7q-6 3 -15 3q-23 0 -36 -16q-20 -25 -26 -75zM202 45h1q19 0 26 13
q8 15 8 46q0 34 -13 48q-9 10 -25 10q-20 0 -41 -18q-1 -55 15 -82q9 -17 29 -17z" />
    <glyph glyph-name="uniF65C" unicode="&#xf65c;" 
d="M249 268v3q-102 0 -108 -2q-7 -2 -10 -10l-15 -46q-72 12 -74 13q4 34 18 127q9 0 31.5 -0.5t32.5 -0.5h210q13 -31 22 -72q-100 -148 -115 -213q-6 -23 -6 -67q-53 -4 -115 -4q-1 42 11 73q22 58 118 199z" />
    <glyph glyph-name="uniF65D" unicode="&#xf65d;" 
d="M275 194v-3q36 -12 56.5 -35t20.5 -51q0 -46 -32 -75q-45 -38 -134 -38q-81 0 -116 26q-34 25 -34 65q0 28 20.5 52t55.5 37v3q-61 29 -61 82q0 48 42 75q38 26 108 26q73 0 106 -25q30 -22 30 -58q0 -51 -62 -81zM153 269v-1q0 -15 13 -25t47 -22q26 16 26 44
q0 19 -9 28q-9 11 -31 11t-33 -8q-13 -9 -13 -27zM244 86v1q0 18 -16 30t-55 27q-27 -18 -27 -53q0 -21 14 -33t37 -12q19 0 33 9t14 31z" />
    <glyph glyph-name="uniF65E" unicode="&#xf65e;" 
d="M229 145h-2q-32 -20 -77 -20q-51 0 -80 29q-34 30 -34 76q0 53 45 94q40 34 110 34q71 0 106 -34q50 -44 50 -131q0 -97 -60 -154q-50 -47 -140 -47q-52 0 -84 8l-8.5 47l-7.5 43q50 12 74 16l15 -41q2 -7 8 -10q8 -3 19 -3q29 0 40 15q23 25 26 78zM185 304h-1
q-16 0 -23 -12q-11 -17 -11 -47q0 -29 14 -46q9 -11 24 -11q22 0 40 15q1 57 -15 86q-9 15 -28 15z" />
    <glyph glyph-name="uniF65F" unicode="&#xf65f;" horiz-adv-x="267" 
d="M205 35v-1q0 -55 -35 -108.5t-96 -86.5l-38 46q68 50 68 103q0 19 -16.5 32.5t-37.5 18.5q-3 39 17.5 65.5t50.5 26.5q34 0 60.5 -28.5t26.5 -67.5z" />
    <glyph glyph-name="uniF660" unicode="&#xf660;" horiz-adv-x="267" 
d="M135 129h1q31 0 49.5 -19.5t18.5 -47.5q0 -32 -20 -51t-52 -19q-27 0 -48 19t-21 49q0 28 20 48.5t52 20.5z" />
    <glyph glyph-name="uniF661" unicode="&#xf661;" 
d="M355 470v-1q0 -102 -58 -150q-40 -34 -109 -34q-63 0 -101 34q-53 46 -53 136q0 104 59 158q38 38 111 38q68 0 104 -39q47 -49 47 -142zM196 595h-1q-16 0 -26 -18q-15 -29 -15 -119q0 -82 15 -104q9 -13 25 -13t23 10q19 24 19 106q0 93 -14 121q-8 17 -26 17z" />
    <glyph glyph-name="uniF662" unicode="&#xf662;" 
d="M271 353l82 -1q0 -40 -1 -59h-132h-155q0 39 1 59l90 1q2 0 2 3v191q-26 -3 -93 -12q-8 50 -9 59q31 8 83.5 24l89 27t42.5 11q1 0 1 -3q0 -41 -0.5 -146.5t-0.5 -153.5z" />
    <glyph glyph-name="uniF663" unicode="&#xf663;" 
d="M337 540v-1q0 -73 -110 -146q-15 -11 -39 -22v-5q13 0 44.5 1t67 3t41.5 2q1 0 1 -1q0 -31 -4 -79q-20 0 -99.5 0.5t-99.5 0.5h-83q-10 31 -16 55q56 35 86 60q91 75 91 129q0 21 -12 36q-9 12 -30 12q-20 0 -33 -10q-3 -1 -3 -6l-13 -59q-11 0 -72 6q1 42 5 113
q56 22 133 22t111 -32t34 -79z" />
    <glyph glyph-name="uniF664" unicode="&#xf664;" 
d="M123 412l12 -56q1 -3 5 -6q8 -5 24 -5q28 0 41 10q16 14 16 33q0 52 -78 52h-35q-2 41 -1 60q66 -1 88 13t22 44q0 15 -10 25q-9 9 -30 9q-20 0 -33 -9q-3 -2 -3 -5l-11 -51q-50 4 -75 5q2 67 4 101q59 19 132 19q81 0 109 -22q35 -28 35 -61q0 -63 -75 -83v-5
q40 -6 61.5 -30.5t21.5 -53.5q0 -52 -47 -82q-43 -29 -138 -29q-63 0 -101 8q-6 39 -11 108q24 5 77 11z" />
    <glyph glyph-name="uniF665" unicode="&#xf665;" 
d="M299 343l42 -1q0 -33 -1 -49h-105h-109v48l74 2q3 0 3 3v28h-155q-18 36 -28 66l83 107l84 102q3 0 114 -3q0 -29 -0.5 -100t-0.5 -105h63q0 -41 -2 -63h-62v-35zM204 566h-7q-12 -17 -29 -38.5t-22 -29.5l-35 -50q-4 -7 3 -7h89z" />
    <glyph glyph-name="uniF666" unicode="&#xf666;" 
d="M71 449l-11 11q6 78 22 185h128h122q0 -28 -4 -76q-36 0 -92.5 0.5t-76.5 0.5q-8 -43 -9 -48q17 2 48 2q66 0 103.5 -30t37.5 -76q0 -68 -52 -102q-44 -31 -137 -31q-65 0 -90 8q-7 49 -14 105q39 9 75 13l14 -56q1 -3 5 -5q9 -6 30 -6q26 0 40 13q15 13 15 38
q0 56 -86 56q-48 0 -68 -2z" />
    <glyph glyph-name="uniF667" unicode="&#xf667;" 
d="M157 500h4q33 19 77 19q50 0 80 -28q33 -33 33 -75q0 -61 -43 -98q-40 -33 -111 -33t-107 32q-50 41 -50 131q0 92 57 153q50 50 146 50q41 0 72 -7q8 -59 10 -93q-36 -6 -74 -11l-12 41q-1 6 -5 7q-6 3 -15 3q-23 0 -36 -16q-20 -25 -26 -75zM202 338h1q19 0 26 13
q8 15 8 46q0 34 -13 48q-9 10 -25 10q-20 0 -41 -18q-1 -55 15 -82q9 -17 29 -17z" />
    <glyph glyph-name="uniF668" unicode="&#xf668;" 
d="M249 561v3q-102 0 -108 -2q-7 -2 -10 -10l-15 -46q-72 12 -74 13q4 34 18 127q9 0 31.5 -0.5t32.5 -0.5h210q13 -31 22 -72q-100 -148 -115 -213q-6 -23 -6 -67q-53 -4 -115 -4q-1 42 11 73q22 58 118 199z" />
    <glyph glyph-name="uniF669" unicode="&#xf669;" 
d="M275 487v-3q36 -12 56.5 -35t20.5 -51q0 -46 -32 -75q-45 -38 -134 -38q-81 0 -116 26q-34 25 -34 65q0 28 20.5 52t55.5 37v3q-61 29 -61 82q0 48 42 75q38 26 108 26q73 0 106 -25q30 -22 30 -58q0 -51 -62 -81zM153 562v-1q0 -15 13 -25t47 -22q26 16 26 44
q0 19 -9 28q-9 11 -31 11t-33 -8q-13 -9 -13 -27zM244 379v1q0 18 -16 30t-55 27q-27 -18 -27 -53q0 -21 14 -33t37 -12q19 0 33 9t14 31z" />
    <glyph glyph-name="uniF66A" unicode="&#xf66a;" 
d="M229 438h-2q-32 -20 -77 -20q-51 0 -80 29q-34 30 -34 76q0 53 45 94q40 34 110 34q71 0 106 -34q50 -44 50 -131q0 -97 -60 -154q-50 -47 -140 -47q-52 0 -84 8l-8.5 47l-7.5 43q50 12 74 16l15 -41q2 -7 8 -10q8 -3 19 -3q29 0 40 15q23 25 26 78zM185 597h-1
q-16 0 -23 -12q-11 -17 -11 -47q0 -28 14 -46q9 -11 24 -11q22 0 40 15q1 57 -15 86q-9 15 -28 15z" />
    <glyph glyph-name="uniF66B" unicode="&#xf66b;" horiz-adv-x="267" 
d="M205 328v-1q0 -55 -35 -108.5t-96 -86.5l-38 46q68 50 68 103q0 19 -16.5 32.5t-37.5 18.5q-3 39 17.5 65.5t50.5 26.5q34 0 60.5 -28.5t26.5 -67.5z" />
    <glyph glyph-name="uniF66C" unicode="&#xf66c;" horiz-adv-x="267" 
d="M135 422h1q31 0 49.5 -19.5t18.5 -47.5q0 -32 -20 -51t-52 -19q-27 0 -48 19t-21 49q0 28 20 48.5t52 20.5z" />
    <glyph glyph-name="uniF66D" unicode="&#xf66d;" horiz-adv-x="582" 
d="M1 80l38 1q1 0 5 4q111 276 184 440q28 3 139 3l166 -446l41 -2v-80h-108h-145q0 13 0.5 39t0.5 41l44 2q2 0 2 4q-7 23 -14 42q-2 4 -6 4l-168 -1q-3 -9 -8.5 -28t-6.5 -22l49 -1q0 -55 -1 -80h-124h-89q0 51 1 80zM274 378h-8l-60 -166q-2 -5 2 -5h122q-14 39 -56 171z
M291 605h-1q-55 0 -95.5 34.5t-46.5 85.5q33 13 65 17q7 -29 29.5 -45.5t50.5 -16.5q29 0 49.5 17.5t26.5 40.5q35 -2 66 -11q-6 -49 -47 -85.5t-97 -36.5z" />
    <glyph glyph-name="uniF66E" unicode="&#xf66e;" horiz-adv-x="582" 
d="M1 80l38 1q1 0 5 4q111 276 184 440q28 3 139 3l166 -446l41 -2v-80h-108h-145q0 13 0.5 39t0.5 41l44 2q2 0 2 4q-7 23 -14 42q-2 4 -6 4l-168 -1q-3 -9 -8.5 -28t-6.5 -22l49 -1q0 -55 -1 -80h-124h-89q0 51 1 80zM274 378h-8l-60 -166q-2 -5 2 -5h122q-14 39 -56 171z
M411 690q2 -37 0 -73q-34 0 -115.5 0.5t-122.5 0.5q-3 29 -1 70q162 2 239 2z" />
    <glyph glyph-name="uniF66F" unicode="&#xf66f;" horiz-adv-x="582" 
d="M274 378h-8l-60 -166q-2 -5 2 -5h122q-27 74 -56 171zM271 -127v1q0 32 26.5 67t77.5 59h-54q0 12 0.5 38.5t0.5 41.5l44 2q2 0 2 4q-7 23 -14 42q-2 4 -6 4l-168 -1q-3 -9 -8.5 -28t-6.5 -22l49 -1q0 -55 -1 -80h-124h-89q0 51 1 80l38 1q1 0 5 4q111 276 184 440
q61 3 139 3l166 -446l41 -2v-80h-109h-40q-63 -54 -63 -109q0 -24 16 -37.5t37 -13.5q16 0 42 8q8 -25 13 -50q-35 -19 -77 -19q-50 0 -86 24.5t-36 69.5z" />
    </font>
</defs>
</svg>
